<?xml version="1.0" encoding="UTF-8"?>
<svg version="1.1" xmlns="http://www.w3.org/2000/svg" width="512" height="512">
<path d="M0 0 C2.09942397 1.63572511 4.18198333 3.27364117 6.2109375 4.99609375 C7.92225734 6.20665995 7.92225734 6.20665995 9.75 5.6796875 C10.86375 5.34324219 10.86375 5.34324219 12 5 C23.18450988 4.24695905 32.62698109 4.56645316 41.8125 11.75 C47.8702339 17.40769487 51.59107368 24.45426092 52.3359375 32.734375 C52.36536845 34.07265642 52.37788423 35.41139811 52.375 36.75 C52.37483887 37.45012207 52.37467773 38.15024414 52.37451172 38.87158203 C52.22765382 45.58530703 50.88979872 52.11020128 46 57 C46.41015778 61.65624995 46.41015778 61.65624995 48 66 C52.57800622 65.47474566 57.10165888 64.82385228 61.640625 64.02734375 C75.39335596 61.70452465 88.75604978 60.58754604 102.6875 60.5625 C103.42705933 60.55668915 104.16661865 60.5508783 104.92858887 60.54489136 C129.10260473 60.41350353 153.62303413 65.40061991 171.68359375 82.5625 C185.7620639 97.37694414 188.50596529 112.88574965 188.27734375 132.54296875 C188.03610659 140.77503684 186.53381556 148.19434127 184 156 C183.61070312 157.24910156 183.22140625 158.49820313 182.8203125 159.78515625 C176.23815632 179.51649341 165.20457704 198.17388915 152.48828125 214.55078125 C151.88943115 215.32244629 151.29058105 216.09411133 150.67358398 216.88916016 C149.49815145 218.39119924 148.31185499 219.88481636 147.11352539 221.36865234 C146.31096313 222.38306396 146.31096313 222.38306396 145.4921875 223.41796875 C145.01120605 224.01375732 144.53022461 224.6095459 144.03466797 225.22338867 C142.66449461 227.23343426 142.66449461 227.23343426 143 231 C144.33879426 233.08584791 144.33879426 233.08584791 146.25 235.1875 C156.2611323 247.26807131 164.65821137 260.15348102 171.95849609 274.03125 C172.85211837 275.72046004 173.77660953 277.3932766 174.70703125 279.0625 C178.09249853 285.35107247 180.47236437 291.87455211 182.75 298.625 C183.04414795 299.49616455 183.3382959 300.3673291 183.64135742 301.26489258 C189.82164378 320.22815175 191.44249289 342.32325965 182.71484375 360.70703125 C174.48816547 375.62504674 160.73783378 386.58831278 144.57177734 391.77978516 C139.74143193 393.17554585 134.87267031 394.3986807 129.97607422 395.53857422 C128.99791748 395.76697998 128.99791748 395.76697998 128 396 C126.9171875 396.21366211 126.9171875 396.21366211 125.8125 396.43164062 C125.214375 396.61919922 124.61625 396.80675781 124 397 C122.8532735 399.07597136 122.8532735 399.07597136 122.125 401.625 C119.06682729 409.9342212 113.93750687 415.10420159 106 419 C98.06129783 422.20018404 87.00640985 422.7284701 79 419.375 C76.953125 418.2578125 76.953125 418.2578125 75 417 C74.29359375 416.56429688 73.5871875 416.12859375 72.859375 415.6796875 C66.07835144 411.08366042 61.99178945 404.96715779 60 397 C60 395.68 60 394.36 60 393 C56.04 392.67 52.08 392.34 48 392 C47.39414062 393.3303125 46.78828125 394.660625 46.1640625 396.03125 C33.06663862 424.40504004 15.32928168 454.0508879 -15.1484375 466.02734375 C-16.55996094 466.50880859 -16.55996094 466.50880859 -18 467 C-19.5778125 467.54720703 -19.5778125 467.54720703 -21.1875 468.10546875 C-38.3838541 472.14026905 -55.67267435 468.57545248 -70.5078125 459.40234375 C-76.65222946 455.34785285 -81.85018039 450.22289261 -87 445 C-87.71542969 444.29488281 -88.43085938 443.58976562 -89.16796875 442.86328125 C-102.64102634 428.72351566 -112.56873095 409.9252656 -120 392 C-124.49984633 392.51073525 -128.93284974 393.15075109 -133.38671875 393.97265625 C-147.03358195 396.39337857 -160.29405817 397.41342785 -174.125 397.4375 C-174.89024994 397.44331085 -175.65549988 397.4491217 -176.44393921 397.45510864 C-200.99293201 397.58394794 -225.44449322 392.65187602 -243.81640625 375.25 C-256.29582243 362.39106669 -260.96491169 346.68450708 -261 329 C-260.51475549 318.70437744 -258.22583685 309.452957 -254.85717773 299.73754883 C-253.22181715 295.01090206 -253.22181715 295.01090206 -253.69921875 290.140625 C-254.12847656 289.43421875 -254.55773437 288.7278125 -255 288 C-255.34160156 287.37996094 -255.68320313 286.75992187 -256.03515625 286.12109375 C-256.37417969 285.56550781 -256.71320313 285.00992187 -257.0625 284.4375 C-261.38518354 276.76822276 -261.23617947 266.4745091 -259.31640625 257.97265625 C-256.0625034 249.2100714 -250.37088577 243.1085046 -242 239 C-236.38136738 236.67978768 -231.16909923 236.6916431 -225.18945312 236.78515625 C-220.93172362 236.71486151 -220.93172362 236.71486151 -217.35986328 234.61523438 C-215.79381479 232.79874106 -215.79381479 232.79874106 -214 230 C-215.38786593 227.00482284 -217.01797331 224.53111403 -219.0546875 221.9375 C-227.96460791 210.42850901 -235.91780595 198.71832795 -243 186 C-243.58152832 184.96480225 -243.58152832 184.96480225 -244.17480469 183.90869141 C-256.90957403 160.92384773 -265.2459224 132.34002383 -258.4375 106.1875 C-252.55022787 89.42826192 -241.62366313 78.14831325 -226 70 C-209.6201794 62.46724418 -193.0354663 60.74989141 -175.25 60.6875 C-174.06513 60.68207687 -174.06513 60.68207687 -172.85632324 60.67654419 C-158.51691135 60.65032194 -144.8406808 62.06193143 -130.70507812 64.54248047 C-127.14646018 65.14436224 -123.58517158 65.58865785 -120 66 C-119.74943848 65.44763672 -119.49887695 64.89527344 -119.24072266 64.32617188 C-105.19708293 33.57665143 -87.38381048 4.72870713 -55 -9 C-36.13120137 -14.86594776 -16.01722105 -11.29962684 0 0 Z M-79.08666992 29.79223633 C-94.95103633 49.337992 -94.95103633 49.337992 -103 72 C-101.56841553 72.45886597 -101.56841553 72.45886597 -100.10791016 72.92700195 C-81.72473511 78.84033788 -63.68303774 85.00722298 -46.0078125 92.8203125 C-45.12037354 93.20380859 -44.23293457 93.58730469 -43.31860352 93.98242188 C-41.47535768 94.79137719 -39.65652965 95.65591985 -37.84765625 96.5390625 C-33.34433531 97.26799511 -30.27675518 95.26949606 -26.3125 93.25 C-7.91015931 84.43397882 11.47258167 77.85109002 31 72 C30.67 70.68 30.34 69.36 30 68 C28.81664062 68.04640625 27.63328125 68.0928125 26.4140625 68.140625 C15.68103565 68.43699826 7.93618107 67.88134916 -1.25 61.875 C-9.65523213 53.08771186 -11.46073177 44.81058807 -11.30078125 33.07421875 C-11.09820243 28.58943536 -9.86631129 24.93516271 -7.875 20.91796875 C-6.7924705 18.89645842 -6.7924705 18.89645842 -7 16 C-9.18217434 14.69856454 -11.37005242 13.40892573 -13.5625 12.125 C-14.17158203 11.76019531 -14.78066406 11.39539063 -15.40820312 11.01953125 C-38.76092363 -2.5719992 -63.58296053 10.9719072 -79.08666992 29.79223633 Z M6.625 28.625 C4.42092107 33.20270239 4.2028361 37.00552411 5 42 C7.32968931 46.83858548 10.16141452 49.67031069 15 52 C19.99447589 52.7971639 23.79729761 52.57907893 28.375 50.375 C31.95907713 47.13226355 34.59535241 44.53524104 35.3828125 39.6015625 C35.63883919 33.91777006 34.93626932 30.35061345 31 26 C26.64938655 22.06373068 23.08222994 21.36116081 17.3984375 21.6171875 C12.46475896 22.40464759 9.86773645 25.04092287 6.625 28.625 Z M-209 82 C-210.10472656 82.36222656 -211.20945312 82.72445312 -212.34765625 83.09765625 C-224.92260882 87.78742996 -234.61841334 95.4916548 -240.3125 107.6875 C-247.17707735 123.53106039 -242.92275654 143.02645881 -237.05712891 158.48486328 C-229.87032151 176.4745476 -219.50164615 192.50389036 -208 208 C-207.03126953 209.30710938 -207.03126953 209.30710938 -206.04296875 210.640625 C-204.70432344 212.43384542 -203.35403667 214.21837281 -202 216 C-197.74703618 212.68061361 -194.28491173 209.13825757 -190.78125 205.04296875 C-186.35413586 199.96537951 -181.4588064 195.46600783 -176.359375 191.078125 C-173.96805631 188.97186417 -171.63759657 186.81150819 -169.30957031 184.63598633 C-164.17046759 179.83576647 -158.98115241 175.22216388 -153.4140625 170.9140625 C-152.61742187 170.28242188 -151.82078125 169.65078125 -151 169 C-150.42024414 168.63616211 -149.84048828 168.27232422 -149.24316406 167.89746094 C-144.91262773 164.86991784 -143.48149578 162.32044205 -142.46875 157.125 C-142.12019685 154.7536268 -141.79888295 152.37814406 -141.5 150 C-141.11035237 147.38656228 -140.71434297 144.77496186 -140.30859375 142.1640625 C-140.20675278 141.49347809 -140.1049118 140.82289368 -139.99998474 140.13198853 C-137.27577401 122.55048578 -132.75180762 105.14034011 -127.06640625 88.296875 C-125.89741325 85.26035454 -125.89741325 85.26035454 -126 83 C-129.47819905 82.34888403 -132.95771702 81.70509251 -136.4375 81.0625 C-137.41138672 80.88009766 -138.38527344 80.69769531 -139.38867188 80.50976562 C-161.46042999 76.44974323 -187.48000677 74.81095516 -209 82 Z M54 83 C55.43847469 88.30843156 56.88315208 93.61414179 58.39453125 98.90234375 C61.32384478 109.24049467 63.91286915 119.62264741 66.1875 130.125 C66.44466797 131.30723145 66.70183594 132.48946289 66.96679688 133.70751953 C68.30069352 140.0365265 69.32853116 146.29169445 70.0222168 152.72045898 C70.66884969 159.97123441 70.66884969 159.97123441 73.72265625 166.390625 C76.0431844 168.19314051 78.44739153 169.54607523 81 171 C83.21710742 172.70977315 85.32398968 174.53958315 87.4375 176.375 C88.56374328 177.33470443 89.69004481 178.2943405 90.81640625 179.25390625 C95.28147854 183.0934178 99.6626351 187.01683252 104 191 C104.57008789 191.51965332 105.14017578 192.03930664 105.72753906 192.57470703 C113.91025748 200.04319651 121.73680287 207.62596096 129 216 C149.36173516 196.81933996 170.00089384 160.18925304 171.28515625 132.0859375 C171.65751241 117.8688227 169.95582189 106.19833952 160.32421875 95.0625 C145.24021666 80.59219393 123.12828477 77.76061863 103.25 77.6875 C102.50021881 77.68388458 101.75043762 77.68026917 100.97793579 77.67654419 C84.95467172 77.64562401 69.7018265 79.84912595 54 83 Z M-110 88 C-114.37940937 101.41758693 -118.39920069 114.83440164 -121.4375 128.625 C-121.68387207 129.74302002 -121.93024414 130.86104004 -122.18408203 132.01293945 C-123.39227706 137.66449282 -124.39459085 143.25209244 -125 149 C-119.96048755 145.84752965 -114.95259512 142.66005829 -110.03515625 139.3203125 C-94.7464093 128.94730778 -78.90698496 119.50716717 -62.65771484 110.71411133 C-59.23268491 108.98013614 -59.23268491 108.98013614 -57 106 C-67.90355959 101.12593621 -78.92174236 96.85498026 -90.25 93.0625 C-91.40346924 92.67328369 -92.55693848 92.28406738 -93.74536133 91.88305664 C-99.16662963 90.09714765 -104.3058366 88.51839927 -110 88 Z M6.0625 97.5625 C5.0091748 97.93818115 3.95584961 98.3138623 2.87060547 98.70092773 C-3.20567999 100.89767946 -9.14166033 103.2731452 -15 106 C-11.74379503 109.7096006 -8.03979995 111.71335939 -3.6875 113.875 C14.79553186 123.39025632 32.09366011 134.84323953 49.1184082 146.73168945 C50.97076442 148.0391724 50.97076442 148.0391724 53 149 C50.60123052 128.19687846 44.34653304 107.88033076 38 88 C27.65174648 88 15.70181723 94.11218352 6.0625 97.5625 Z M-42.8359375 118.859375 C-43.42233505 119.15945969 -44.0087326 119.45954437 -44.61289978 119.76872253 C-46.53666667 120.75666349 -48.45630472 121.75224762 -50.375 122.75 C-51.36105728 123.26169235 -51.36105728 123.26169235 -52.36703491 123.78372192 C-75.57446866 135.85393319 -97.61003904 149.83405721 -118.75 165.25 C-119.33950439 165.67933838 -119.92900879 166.10867676 -120.53637695 166.55102539 C-122.04591781 167.67208313 -123.52461152 168.83436159 -125 170 C-125.69287109 170.49338867 -126.38574219 170.98677734 -127.09960938 171.49511719 C-130.08196516 175.42612571 -129.93903427 179.48869937 -130.234375 184.3125 C-130.30944275 185.36429443 -130.3845105 186.41608887 -130.46185303 187.49975586 C-131.26391051 199.98164789 -131.30341987 212.4784534 -131.26074219 224.98144531 C-131.24934867 228.32890072 -131.2561699 231.67603854 -131.2675705 235.02348328 C-131.30535707 247.90423306 -131.16293023 260.7699021 -130.296875 273.625 C-130.24452698 274.60847412 -130.19217896 275.59194824 -130.13824463 276.60522461 C-129.77608661 281.10057971 -129.50214688 283.36675662 -126.640625 286.9753418 C-125.76921875 287.643479 -124.8978125 288.31161621 -124 289 C-123.39833008 289.49733643 -122.79666016 289.99467285 -122.17675781 290.50708008 C-120.20654006 291.950139 -118.23498732 293.38976661 -116.25 294.8125 C-115.4763208 295.36800537 -114.7026416 295.92351074 -113.90551758 296.49584961 C-97.48997487 308.13818099 -80.35836532 318.81466948 -62.72119141 328.50292969 C-60.79438811 329.56296538 -58.87266602 330.63226139 -56.95458984 331.70800781 C-53.835634 333.45269631 -50.7018494 335.16732919 -47.5625 336.875 C-46.59683105 337.41801758 -45.63116211 337.96103516 -44.63623047 338.52050781 C-43.72631348 339.00616211 -42.81639648 339.49181641 -41.87890625 339.9921875 C-40.68116577 340.64743408 -40.68116577 340.64743408 -39.45922852 341.31591797 C-34.52376239 342.68881344 -29.98326018 339.61585534 -25.6484375 337.3828125 C-24.64288818 336.86485107 -23.63733887 336.34688965 -22.60131836 335.81323242 C-21.5366333 335.25611572 -20.47194824 334.69899902 -19.375 334.125 C-18.2619751 333.54274658 -17.1489502 332.96049316 -16.00219727 332.3605957 C1.76164306 322.97983406 18.54633703 312.26826777 35.12304688 300.93554688 C37.87001971 299.0874477 40.65187709 297.31123085 43.453125 295.546875 C51.82068325 290.42592977 51.82068325 290.42592977 57.51171875 282.76171875 C58.07699187 279.41417938 58.03498357 276.39014201 58 273 C58.13929435 270.98764955 58.30165242 268.97677891 58.4855957 266.96801758 C59.05224604 259.97452777 59.16153836 253.02552374 59.16796875 246.01171875 C59.17129715 244.71087845 59.17462555 243.41003815 59.17805481 242.06977844 C59.18399146 239.32930676 59.18590072 236.58886632 59.18530273 233.84838867 C59.18522203 231.0940893 59.19208484 228.33995821 59.20581055 225.58569336 C59.27294018 211.82321732 59.23100175 198.06941478 58.30078125 184.33203125 C58.22188911 182.86089119 58.22188911 182.86089119 58.1414032 181.36003113 C57.77717169 176.87582926 57.49700225 174.62612513 54.64038086 171.02734375 C53.76905518 170.35832031 52.89772949 169.68929687 52 169 C51.39833008 168.50266357 50.79666016 168.00532715 50.17675781 167.49291992 C48.20654006 166.049861 46.23498732 164.61023339 44.25 163.1875 C43.0894812 162.35424194 43.0894812 162.35424194 41.90551758 161.50415039 C20.68914374 146.45694425 -1.68425544 133.34415722 -24.6875 121.25 C-25.68668457 120.72374023 -26.68586914 120.19748047 -27.71533203 119.65527344 C-28.63813965 119.17606445 -29.56094727 118.69685547 -30.51171875 118.203125 C-31.74088013 117.56358887 -31.74088013 117.56358887 -32.99487305 116.91113281 C-36.95659227 115.11092142 -39.14324535 116.96690479 -42.8359375 118.859375 Z M-154.0625 193.5625 C-157.57090285 196.84827799 -161.09409371 200.09252247 -164.74609375 203.21875 C-170.08491157 207.86374677 -175.02144699 212.91371845 -180 217.9375 C-180.97502386 218.9175531 -181.9502828 219.8973724 -182.92578125 220.87695312 C-185.28616618 223.24902313 -187.64416905 225.6234086 -190 228 C-188.39822218 231.98087165 -185.61769406 234.65493174 -182.6171875 237.61328125 C-182.08408966 238.14592087 -181.55099182 238.67856049 -181.0017395 239.2273407 C-179.87266483 240.35339921 -178.74116559 241.4770312 -177.60742188 242.59838867 C-175.89664129 244.29108744 -174.19382508 245.99147489 -172.4921875 247.69335938 C-164.38194676 255.77877861 -156.20232724 263.09825457 -147 270 C-147 242.94 -147 215.88 -147 188 C-149.42035734 188 -152.27448557 191.88260738 -154.0625 193.5625 Z M75 188 C75 215.06 75 242.12 75 270 C81.16858893 265.46035119 81.16858893 265.46035119 86.8671875 260.546875 C87.51695557 259.93585938 88.16672363 259.32484375 88.83618164 258.6953125 C89.5089917 258.05335938 90.18180176 257.41140625 90.875 256.75 C91.59099365 256.07195312 92.3069873 255.39390625 93.04467773 254.6953125 C101.52084796 246.62364299 109.77152771 238.32291882 118 230 C116.39822218 226.01912835 113.61769406 223.34506826 110.6171875 220.38671875 C109.81754074 219.58775932 109.81754074 219.58775932 109.0017395 218.7726593 C107.87266483 217.64660079 106.74116559 216.5229688 105.60742188 215.40161133 C103.89664129 213.70891256 102.19382508 212.00852511 100.4921875 210.30664062 C92.38194676 202.22122139 84.20232724 194.90174543 75 188 Z M-202 242 C-203.5048792 244.04023328 -203.5048792 244.04023328 -204 247 C-202.98111107 249.12960906 -201.75150843 250.9354365 -200.359375 252.83984375 C-195.84735098 260.00981296 -196.14995158 268.82373966 -197 277 C-198.9235574 285.13092913 -202.94037887 291.15189183 -209.9375 295.75 C-216.14823072 299.57591215 -221.75213639 300.28194445 -228.875 300.125 C-230.050625 300.11146484 -230.050625 300.11146484 -231.25 300.09765625 C-233.16680055 300.07428063 -235.08344191 300.03841653 -237 300 C-237.81822733 302.37316118 -238.62968707 304.7482942 -239.4375 307.125 C-239.66759766 307.79015625 -239.89769531 308.4553125 -240.13476562 309.140625 C-244.29894848 321.45212213 -245.81639825 338.57825105 -240.3125 350.65625 C-239.879375 351.4296875 -239.44625 352.203125 -239 353 C-238.525625 353.8559375 -238.05125 354.711875 -237.5625 355.59375 C-230.92897529 366.18187599 -220.65813986 372.17743605 -209 376 C-207.23462891 376.58974609 -207.23462891 376.58974609 -205.43359375 377.19140625 C-180.19794293 384.58725067 -151.18436116 380.05372735 -126 375 C-127.43847469 369.69156844 -128.88315208 364.38585821 -130.39453125 359.09765625 C-133.32943821 348.7387384 -135.9149969 338.337328 -138.1875 327.8125 C-138.44539307 326.62624023 -138.70328613 325.43998047 -138.96899414 324.21777344 C-140.26899 318.06460153 -141.2908123 311.98827197 -141.97192383 305.73852539 C-142.71492928 299.25630841 -143.47343277 294.49849344 -148.5 289.875 C-150.30599089 288.54537193 -152.14039577 287.25354937 -154 286 C-155.80495252 284.55814288 -157.59649446 283.09935532 -159.375 281.625 C-160.75171875 280.50931641 -160.75171875 280.50931641 -162.15625 279.37109375 C-166.73014146 275.55742326 -171.07671017 271.50824504 -175.43212891 267.45019531 C-177.03046219 265.97182413 -178.64377743 264.51155591 -180.26171875 263.0546875 C-186.38471382 257.51720496 -192.18353161 251.8380448 -197.66235352 245.65649414 C-198.75819031 244.42261548 -199.87675885 243.20898475 -201 242 C-201.33 242 -201.66 242 -202 242 Z M127.62402344 243.37011719 C127.04168945 244.00594727 126.45935547 244.64177734 125.859375 245.296875 C125.20727051 246.00263672 124.55516602 246.70839844 123.88330078 247.43554688 C123.17931152 248.19931641 122.47532227 248.96308594 121.75 249.75 C114.80124873 257.21295575 107.60226231 264.2122658 100 271 C99.12859375 271.79792969 98.2571875 272.59585937 97.359375 273.41796875 C92.29206878 278.04706453 87.08252649 282.45550597 81.73828125 286.76171875 C80.83464844 287.50035156 79.93101562 288.23898437 79 289 C78.40558105 289.37850098 77.81116211 289.75700195 77.19873047 290.14697266 C72.88250934 293.16349292 71.48160811 295.6971478 70.46875 300.875 C70.12019685 303.2463732 69.79888295 305.62185594 69.5 308 C69.11035237 310.61343772 68.71434297 313.22503814 68.30859375 315.8359375 C68.20675278 316.50652191 68.1049118 317.17710632 67.99998474 317.86801147 C65.27577401 335.44951422 60.75180762 352.85965989 55.06640625 369.703125 C53.89741325 372.73964546 53.89741325 372.73964546 54 375 C56.64 375.33 59.28 375.66 62 376 C62.4846875 375.26394531 62.969375 374.52789062 63.46875 373.76953125 C69.19144072 365.43861418 74.20010253 360.72744134 84 358 C94.76273013 357.03180461 104.34667373 357.58773615 113.3125 364.25 C117.56726108 368.60370901 120.33628828 373.56360654 123 379 C138.04050405 376.98053352 153.67083975 371.36714953 163.5 359.24609375 C172.0558954 346.43453163 173.06729128 330.96600721 170.1640625 316.09375 C164.47425406 291.43537446 150.79680798 270.13458267 136 250 C135.17918945 248.87489014 135.17918945 248.87489014 134.34179688 247.72705078 C133.80103516 246.99341309 133.26027344 246.25977539 132.703125 245.50390625 C132.20973633 244.83302979 131.71634766 244.16215332 131.20800781 243.47094727 C130.80936523 242.98553467 130.41072266 242.50012207 130 242 C128.79447133 241.8824006 128.79447133 241.8824006 127.62402344 243.37011719 Z M-241.375 260.625 C-243.57907893 265.20270239 -243.7971639 269.00552411 -243 274 C-240.67031069 278.83858548 -237.83858548 281.67031069 -233 284 C-228.00552411 284.7971639 -224.20270239 284.57907893 -219.625 282.375 C-216.04092287 279.13226355 -213.40464759 276.53524104 -212.6171875 271.6015625 C-212.36116081 265.91777006 -213.06373068 262.35061345 -217 258 C-221.35061345 254.06373068 -224.91777006 253.36116081 -230.6015625 253.6171875 C-235.53524104 254.40464759 -238.13226355 257.04092287 -241.375 260.625 Z M-125 309 C-122.60123052 329.80312154 -116.34653304 350.11966924 -110 370 C-101.75889327 368.73014004 -94.02154657 366.15926989 -86.17797852 363.42407227 C-84.07279136 362.69108327 -81.9635531 361.97084341 -79.85351562 361.25195312 C-72.03169625 358.56205151 -64.45266488 355.61715579 -57 352 C-60.41278239 348.41674107 -63.9169818 346.30810566 -68.3125 344.125 C-86.79553186 334.60974368 -104.09366011 323.15676047 -121.1184082 311.26831055 C-122.97076442 309.9608276 -122.97076442 309.9608276 -125 309 Z M47.5 312.3125 C29.56310971 325.43705387 10.18840729 336.71810496 -9.34204102 347.28564453 C-12.76717823 349.01977919 -12.76717823 349.01977919 -15 352 C-3.40853399 357.28629915 8.38381161 361.60196003 20.5 365.5 C21.19497589 365.72500183 21.88995178 365.95000366 22.60598755 366.18182373 C24.60002609 366.82522903 26.59624142 367.46120906 28.59375 368.09375 C29.75583984 368.46177734 30.91792969 368.82980469 32.11523438 369.20898438 C34.98365892 370.13222157 34.98365892 370.13222157 38 370 C42.37940937 356.58241307 46.39920069 343.16559836 49.4375 329.375 C49.80705811 327.69796997 49.80705811 327.69796997 50.18408203 325.98706055 C51.39227706 320.33550718 52.39459085 314.74790756 53 309 C50.97702583 309 49.01826503 311.17151468 47.5 312.3125 Z M-45.6875 364.75 C-64.08984069 373.56602118 -83.47258167 380.14890998 -103 386 C-96.76760568 407.53008946 -79.92793629 433.6388547 -60.25195312 445.01025391 C-48.69661459 451.27596344 -37.98720326 454.08275847 -24.890625 451.3515625 C1.11232048 442.55865897 16.34599326 417.79276024 27.95288086 394.52563477 C30.16924261 390.44207346 30.16924261 390.44207346 31 386 C30.04561035 385.69408936 29.0912207 385.38817871 28.10791016 385.07299805 C9.72473511 379.15966212 -8.31696226 372.99277702 -25.9921875 365.1796875 C-26.87962646 364.79619141 -27.76706543 364.41269531 -28.68139648 364.01757812 C-30.52464232 363.20862281 -32.34347035 362.34408015 -34.15234375 361.4609375 C-38.65566469 360.73200489 -41.72324482 362.73050394 -45.6875 364.75 Z M78.625 380.625 C76.42092107 385.20270239 76.2028361 389.00552411 77 394 C79.32968931 398.83858548 82.16141452 401.67031069 87 404 C91.99447589 404.7971639 95.79729761 404.57907893 100.375 402.375 C103.95907713 399.13226355 106.59535241 396.53524104 107.3828125 391.6015625 C107.63883919 385.91777006 106.93626932 382.35061345 103 378 C98.64938655 374.06373068 95.08222994 373.36116081 89.3984375 373.6171875 C84.46475896 374.40464759 81.86773645 377.04092287 78.625 380.625 Z " fill="#000000" transform="translate(292,27)"/>
<path d="M0 0 C11.39729158 9.66470745 20.09518314 23.54125337 22.625 38.41796875 C24.23937128 58.92760343 21.29098323 77.34926282 7.69335938 93.38452148 C-2.61035178 104.82681458 -17.41932536 113.39367446 -32.96582031 114.62280273 C-53.1864446 115.34707409 -70.47751763 111.97080234 -85.875 98.10546875 C-97.40937764 87.19349725 -105.05326421 71.89142881 -105.7109375 55.96484375 C-105.87889452 45.10702571 -105.80390386 35.49554016 -101.375 25.41796875 C-100.83166016 24.10699219 -100.83166016 24.10699219 -100.27734375 22.76953125 C-92.57504006 5.79835363 -78.3307337 -4.88153347 -61.515625 -11.75 C-40.72526515 -18.14934487 -16.86893895 -13.4143956 0 0 Z M-71.75 13.79296875 C-73.31152461 15.31451833 -74.85523651 16.85470577 -76.375 18.41796875 C-77.25478516 19.26681641 -77.25478516 19.26681641 -78.15234375 20.1328125 C-87.25530609 29.6063789 -88.85521896 42.28468589 -88.65234375 54.7890625 C-88.12859906 67.58563048 -81.6420429 77.90859511 -72.5703125 86.56640625 C-61.12508934 96.21949482 -49.07392926 98.49702501 -34.50488281 97.625 C-22.81317383 96.48852943 -12.88810494 89.72308907 -4.96875 81.35546875 C4.87390124 69.38989273 7.09020632 56.49162429 5.625 41.41796875 C3.38313894 29.54144288 -3.9298078 18.87806971 -13.375 11.41796875 C-31.96129951 0.26618905 -54.6426982 -1.23994466 -71.75 13.79296875 Z " fill="#000000" transform="translate(297.375,205.58203125)"/>
</svg>
