<?xml version="1.0" encoding="UTF-8"?>
<svg version="1.1" xmlns="http://www.w3.org/2000/svg" width="512" height="512">
<path d="M0 0 C1.21786705 0.81933738 2.42743381 1.65126617 3.625 2.5 C4.49125 3.098125 5.3575 3.69625 6.25 4.3125 C14.53035554 11.93914326 20.39894669 22.60793547 20.9609375 33.953125 C21.13463296 43.12576397 21.02125399 51.21625732 16.625 59.5 C15.89603516 60.89798828 15.89603516 60.89798828 15.15234375 62.32421875 C10.48226022 70.41682213 4.30391391 75.38072406 -3.375 80.5 C-3.7914535 82.92099355 -3.7914535 82.92099355 -3.66796875 85.7265625 C-3.65830078 86.7578125 -3.64863281 87.7890625 -3.63867188 88.8515625 C-3.6009668 90.47191406 -3.6009668 90.47191406 -3.5625 92.125 C-3.54219727 93.75695312 -3.54219727 93.75695312 -3.52148438 95.421875 C-3.48604754 98.11507409 -3.43664331 100.80729374 -3.375 103.5 C-2.49199219 103.88929688 -1.60898437 104.27859375 -0.69921875 104.6796875 C15.05269982 111.90620817 25.37850005 122.80714516 32.58203125 138.56640625 C38.13936908 154.19771977 37.72774146 172.49112215 30.625 187.5 C29.03412637 190.20984766 27.41571041 192.81155438 25.56640625 195.3515625 C24.34289189 197.53053972 24.34289189 197.53053972 25.33203125 200.07421875 C26.67118994 202.68224564 26.67118994 202.68224564 28.75 205.6875 C30.625 208.5 30.625 208.5 30.625 210.5 C31.43582031 210.45359375 32.24664062 210.4071875 33.08203125 210.359375 C44.89690599 209.97425685 54.46897882 212.88895575 63.625 220.5 C72.23126909 228.78648849 78.35704909 237.68541369 78.9609375 249.953125 C79.23564977 264.54306359 76.72795467 276.08434741 66.296875 286.91796875 C55.14043554 297.40707518 44.3404477 300.12907289 29.3046875 299.8125 C17.36402407 299.24049217 7.83662368 293.15963073 -0.1875 284.625 C-7.72943786 275.86111053 -10.76966696 266.79218952 -10.75 255.25 C-10.75056396 254.41460693 -10.75112793 253.57921387 -10.75170898 252.71850586 C-10.63231973 245.98638733 -9.17185151 240.62162278 -6.375 234.5 C-5.38971 231.90870795 -5.26710742 230.81486416 -6.17895508 228.15380859 C-9.03423092 223.24580798 -9.03423092 223.24580798 -13.94677734 220.82128906 C-17.02728342 220.71987753 -19.99155074 220.863562 -23.0625 221.125 C-39.05246389 222.15012654 -53.29130448 217.84632044 -65.6875 207.375 C-73.10254154 200.22915138 -78.32704135 191.94523686 -82.375 182.5 C-92.275 182.17 -102.175 181.84 -112.375 181.5 C-112.313125 188.863125 -112.313125 188.863125 -112.25 196.375 C-112.25241699 197.90237793 -112.25483398 199.42975586 -112.25732422 201.00341797 C-112.07728642 209.67354007 -110.72544148 215.48437011 -105.375 222.5 C-104.50137055 223.80125141 -103.63258217 225.10577097 -102.76953125 226.4140625 C-101.91191731 227.65316735 -101.0511682 228.8901074 -100.1875 230.125 C-99.21864974 231.52206589 -98.24990251 232.91920324 -97.28125 234.31640625 C-96.55228516 235.36465576 -96.55228516 235.36465576 -95.80859375 236.43408203 C-94.02708616 239.00137038 -92.26011691 241.57843237 -90.49389648 244.15625 C-86.24433073 250.35707403 -81.96203598 256.53448949 -77.66308594 262.70117188 C-69.1515422 274.91179092 -60.68954869 287.15415498 -52.375 299.5 C-51.88821777 300.2213916 -51.40143555 300.9427832 -50.89990234 301.68603516 C-42.90576928 313.59237439 -37.24492733 324.57494752 -39.87109375 339.27734375 C-41.04074618 343.98899448 -42.56531406 347.95068291 -44.9465332 352.18334961 C-45.4002681 352.99219101 -45.85400299 353.80103241 -46.32148743 354.63438416 C-46.66914658 355.25003738 -47.01680573 355.86569061 -47.375 356.5 C-46.72085302 356.49631283 -46.06670605 356.49262566 -45.39273643 356.48882675 C-29.46802072 356.40044813 -13.54339043 356.33427709 2.38150978 356.29275131 C10.08271727 356.27213542 17.78376094 356.24403362 25.48486328 356.19824219 C32.19799357 356.15834439 38.91100521 356.1325601 45.62425077 356.12364602 C49.17816379 356.11843618 52.73173741 356.10621203 56.28554153 356.07707977 C60.2550411 356.0448045 64.22421012 356.04404249 68.19384766 356.04589844 C69.36917053 356.03151733 70.54449341 356.01713623 71.75543213 356.00231934 C79.22172541 356.04014861 82.9191793 356.82058657 88.26953125 362.1328125 C93.28812911 368.54453284 92.87663046 373.69220169 92.92016602 381.56591797 C92.93732692 383.72819182 92.98120542 385.88891507 93.02539062 388.05078125 C93.03552276 389.43488462 93.04403723 390.81900097 93.05078125 392.203125 C93.07265503 394.08499512 93.07265503 394.08499512 93.0949707 396.00488281 C92.38570339 401.27962089 89.65381455 405.06121583 85.5 408.3125 C81.09601868 411.66335535 78.14569695 411.64449105 72.77438736 411.63422108 C71.94995089 411.63657331 71.12551442 411.63892554 70.27609503 411.64134905 C67.48354992 411.64806337 64.69105107 411.6475801 61.89849854 411.64717102 C59.88814528 411.65046813 57.87779268 411.65419337 55.86744094 411.6583125 C50.31957431 411.66835797 44.77171849 411.67205337 39.22384405 411.67470181 C33.24960715 411.67859731 27.27537887 411.68817613 21.30114746 411.69691467 C7.54475106 411.71576464 -6.21164599 411.72593815 -19.96805162 411.73437535 C-26.76324456 411.73857955 -33.5584366 411.74380184 -40.35362879 411.74905988 C-63.60584606 411.7669512 -86.85806358 411.78194816 -110.11028671 411.78938007 C-111.57050356 411.78985483 -113.0307204 411.79033072 -114.49093725 411.79080774 C-115.21508695 411.79104411 -115.93923666 411.79128049 -116.6853303 411.79152403 C-120.35434781 411.79272525 -124.02336531 411.79394069 -127.69238281 411.79516602 C-128.42051572 411.79540617 -129.14864863 411.79564632 -129.89884617 411.79589374 C-153.51244844 411.80378859 -177.12600051 411.82722365 -200.73958085 411.85972196 C-225.69429824 411.89400343 -250.64898625 411.91372964 -275.60372758 411.91702431 C-278.34208315 411.91744187 -281.0804387 411.91792143 -283.81879425 411.91844749 C-284.49307415 411.91857069 -285.16735404 411.91869388 -285.86206666 411.9188208 C-296.72310874 411.92115492 -307.58409261 411.93682661 -318.44511393 411.95728934 C-329.35805415 411.97752401 -340.27092096 411.98270185 -351.18387625 411.97351871 C-357.09848339 411.96895919 -363.01290116 411.9709559 -368.9274826 411.99028015 C-374.338462 412.00780686 -379.74911239 412.00699985 -385.16009477 411.99138286 C-387.12110177 411.98899076 -389.08213094 411.99341251 -391.0431039 412.00521151 C-393.70281403 412.02022773 -396.3613429 412.01072959 -399.0210228 411.99498463 C-399.7876096 412.00520683 -400.55419639 412.01542904 -401.34401309 412.02596101 C-407.29517191 411.9487365 -410.85048851 410.0065221 -415.01953125 405.8671875 C-420.03812911 399.45546716 -419.62663046 394.30779831 -419.67016602 386.43408203 C-419.68732692 384.27180818 -419.73120542 382.11108493 -419.77539062 379.94921875 C-419.78552276 378.56511538 -419.79403723 377.18099903 -419.80078125 375.796875 C-419.81536377 374.54229492 -419.82994629 373.28771484 -419.8449707 371.99511719 C-419.13570339 366.72037911 -416.40381455 362.93878417 -412.25 359.6875 C-408.16405834 356.57863135 -406.27557848 356.36352133 -401.18115234 356.29467773 C-399.87995453 356.27473251 -398.57875671 356.25478729 -397.23812866 356.23423767 C-395.8123995 356.21725327 -394.38666907 356.20037447 -392.9609375 356.18359375 C-391.50647387 356.16302479 -390.05201623 356.14202834 -388.5975647 356.12062073 C-384.76713912 356.06539396 -380.93665955 356.0159874 -377.10614014 355.96777344 C-373.1983153 355.9175628 -369.290569 355.86187446 -365.3828125 355.80664062 C-357.71360815 355.69905167 -350.04433855 355.59760838 -342.375 355.5 C-342.86050827 354.88557037 -343.34601654 354.27114075 -343.84623718 353.63809204 C-344.48052139 352.83020233 -345.1148056 352.02231262 -345.76831055 351.18994141 C-346.39819382 350.38988678 -347.02807709 349.58983215 -347.67704773 348.76553345 C-349.56348361 346.24851123 -350.95159061 343.76606718 -352.1875 340.875 C-352.56519531 340.01648438 -352.94289063 339.15796875 -353.33203125 338.2734375 C-355.85997161 331.55119909 -356.69264097 325.92177547 -356.7109375 318.76953125 C-356.7175943 317.85668869 -356.7242511 316.94384613 -356.73110962 316.00334167 C-356.74118669 314.08468631 -356.74592818 312.16599625 -356.74560547 310.24731445 C-356.75000257 307.31078105 -356.78643902 304.37572352 -356.82421875 301.43945312 C-356.83008316 299.57031762 -356.83405507 297.70117501 -356.8359375 295.83203125 C-356.85030853 294.95593704 -356.86467957 294.07984283 -356.87948608 293.17720032 C-356.83412605 287.1473219 -356.83412605 287.1473219 -354.56494141 283.94799805 C-351.34163631 281.81673578 -349.14886353 281.96087664 -345.375 282.5 C-342.37631129 284.70864313 -341.47429163 285.89953554 -340.86083984 289.609375 C-340.85262207 290.81078125 -340.8444043 292.0121875 -340.8359375 293.25 C-340.82414459 293.90395752 -340.81235168 294.55791504 -340.80020142 295.23168945 C-340.76501529 297.32136661 -340.75579602 299.41005165 -340.75 301.5 C-340.62350175 317.27135588 -340.43587056 332.59480427 -329.17578125 344.90234375 C-321.6034683 351.62051294 -313.19807328 354.89302182 -303.125 354.875 C-302.00653687 354.87693359 -302.00653687 354.87693359 -300.86547852 354.87890625 C-294.76507669 354.76251918 -289.75720377 353.46219569 -284.375 350.5 C-284.705 349.736875 -285.035 348.97375 -285.375 348.1875 C-286.375 345.5 -286.375 345.5 -286.375 342.5 C-286.85066406 342.78875 -287.32632813 343.0775 -287.81640625 343.375 C-295.09680179 347.23642526 -302.27770335 347.50030502 -310.375 346.5 C-319.9446691 343.47146659 -325.68518633 337.12204206 -330.375 328.5 C-331.31757762 325.67226715 -331.50658336 323.91988749 -331.52217102 320.99012756 C-331.52932632 320.06622726 -331.53648163 319.14232697 -331.54385376 318.19042969 C-331.54654266 317.17891846 -331.54923157 316.16740723 -331.55200195 315.12524414 C-331.55857315 314.05833847 -331.56514435 312.9914328 -331.57191467 311.89219666 C-331.59164989 308.35651584 -331.60330881 304.82087744 -331.61328125 301.28515625 C-331.61939454 299.4763992 -331.61939454 299.4763992 -331.62563133 297.63110161 C-331.64648976 291.25284877 -331.66079434 284.87461746 -331.67016602 278.49633789 C-331.68124962 271.89732254 -331.71567299 265.29864262 -331.75533772 258.69974613 C-331.78143043 253.63406225 -331.78985116 248.56845934 -331.79344749 243.50271416 C-331.7983299 241.06937829 -331.80999053 238.63604643 -331.82848549 236.20277596 C-331.85272741 232.80295983 -331.85193933 229.40402573 -331.8449707 226.00415039 C-331.85778076 224.99466339 -331.87059082 223.98517639 -331.88378906 222.94509888 C-331.83323043 216.1975569 -331.83323043 216.1975569 -329.65116882 212.87583923 C-327.02449762 211.28813745 -325.54230501 210.99386965 -322.48632812 210.98242188 C-321.51852417 210.96981323 -320.55072021 210.95720459 -319.55358887 210.94421387 C-318.51496704 210.95231079 -317.47634521 210.96040771 -316.40625 210.96875 C-315.33379028 210.9649231 -314.26133057 210.96109619 -313.15637207 210.95715332 C-310.89020854 210.95443284 -308.62401369 210.96180347 -306.35791016 210.97851562 C-302.88763472 210.99992206 -299.41942973 210.97871725 -295.94921875 210.953125 C-293.74739126 210.95576825 -291.54556506 210.96089317 -289.34375 210.96875 C-288.30512817 210.96065308 -287.26650635 210.95255615 -286.19641113 210.94421387 C-284.7447052 210.96312683 -284.7447052 210.96312683 -283.26367188 210.98242188 C-282.4141394 210.98560425 -281.56460693 210.98878662 -280.68933105 210.99206543 C-277.40617882 211.71263067 -276.30582091 212.75133624 -274.375 215.5 C-273.97209363 218.26073548 -273.81041184 220.62901403 -273.82910156 223.38964844 C-273.81876389 224.18027176 -273.80842621 224.97089508 -273.79777527 225.78547668 C-273.76832359 228.3936501 -273.76684764 231.00104829 -273.765625 233.609375 C-273.7506449 235.41971316 -273.73391812 237.23003764 -273.71551514 239.04034424 C-273.67181008 243.80129622 -273.65183557 248.56206385 -273.63677979 253.32318115 C-273.61722006 258.18301306 -273.57524878 263.04264553 -273.53515625 267.90234375 C-273.45981999 277.43483437 -273.40954921 286.96728042 -273.375 296.5 C-266.60453608 288.04530908 -264.20068895 281.69334329 -264.375 270.74511719 C-264.36407822 269.42663284 -264.35315643 268.1081485 -264.34190369 266.74971008 C-264.31316544 263.17347022 -264.33282352 259.59901922 -264.3619194 256.02284527 C-264.38396556 252.27117443 -264.36047274 248.51977841 -264.34204102 244.76812744 C-264.31402614 237.68155866 -264.3263044 230.59566995 -264.35346508 223.50912118 C-264.3878492 213.92070538 -264.3591684 204.33248451 -264.33423042 194.74407387 C-264.29665008 179.66236361 -264.34261761 164.58209828 -264.375 149.5 C-289.785 149.5 -315.195 149.5 -341.375 149.5 C-341.32859375 157.68296875 -341.2821875 165.8659375 -341.234375 174.296875 C-341.21134471 180.13213168 -341.1908386 185.96735432 -341.17398453 191.80262756 C-341.15180243 199.36591611 -341.12362318 206.92902858 -341.07324219 214.4921875 C-341.02912156 221.11870162 -341.0058771 227.74507506 -340.99549103 234.37174225 C-340.98808734 236.90277356 -340.97363011 239.43379418 -340.95207977 241.96474457 C-340.92313848 245.50374583 -340.91904026 249.04195456 -340.92089844 252.58105469 C-340.90651733 253.63265778 -340.89213623 254.68426086 -340.87731934 255.76773071 C-340.91757193 262.82984913 -340.91757193 262.82984913 -343.18463135 266.15118408 C-346.42565772 268.14698874 -348.6511261 268.03198199 -352.375 267.5 C-354.56558228 266.15769958 -354.56558228 266.15769958 -356.375 263.5 C-356.96438263 259.82869572 -356.87617332 256.18740587 -356.82568359 252.47680664 C-356.82638351 251.35283981 -356.82708344 250.22887299 -356.82780457 249.07084656 C-356.82708698 246.62960621 -356.81735703 244.18835581 -356.79972458 241.74717903 C-356.77326426 237.88486942 -356.7731329 234.02337957 -356.78042603 230.16099548 C-356.79412643 220.56836879 -356.77377772 210.97590841 -356.73260498 201.38336182 C-356.69787905 193.27922819 -356.68613991 185.17596706 -356.70930862 177.07174492 C-356.71039236 174.51084724 -356.69989757 171.94991786 -356.67768478 169.38911629 C-356.64673687 165.80971682 -356.65215803 162.23205632 -356.66552734 158.65258789 C-356.64702225 157.59216278 -356.62851715 156.53173767 -356.60945129 155.43917847 C-356.53083597 150.29212436 -356.53083597 150.29212436 -358.67473221 145.80850029 C-360.45437494 144.2853766 -360.45437494 144.2853766 -363.375 142.5 C-367.65677266 137.09144506 -367.99326262 132.49605809 -367.7578125 125.66015625 C-367.03822728 119.71990684 -364.88632958 115.60250655 -360.4375 111.625 C-354.5188339 107.51817046 -349.85977493 107.20237162 -342.84643555 107.20947266 C-341.41621063 107.19939682 -341.41621063 107.19939682 -339.95709229 107.18911743 C-336.80858125 107.17013763 -333.66028342 107.16621313 -330.51171875 107.1640625 C-328.31842461 107.15763425 -326.12513133 107.15090587 -323.93183899 107.14389038 C-319.3345033 107.13191743 -314.73724276 107.12820955 -310.13989258 107.12939453 C-304.25872287 107.12959765 -298.37803678 107.10230295 -292.49698162 107.06785011 C-287.96641339 107.04557455 -283.43596139 107.04155721 -278.90534401 107.04261398 C-276.73768257 107.04025874 -274.57001788 107.03143956 -272.40241051 107.01594925 C-269.36518208 106.99627781 -266.32899447 107.00213241 -263.29174805 107.01416016 C-262.40264236 107.00292114 -261.51353668 106.99168213 -260.5974884 106.98010254 C-254.13518017 107.04488973 -248.69856799 108.42726995 -243.84781933 112.91192055 C-238.59881826 118.8531977 -237.81718005 124.50023362 -237.921875 132.1953125 C-238.62154793 137.29809954 -240.87902201 140.79554626 -244.375 144.5 C-245.06020596 144.93630139 -245.74541191 145.37260279 -246.45138168 145.82212543 C-248.55444135 147.32537523 -248.55444135 147.32537523 -248.86719131 149.63390636 C-248.86350414 150.46444184 -248.85981697 151.29497732 -248.85601807 152.15068054 C-248.86151672 153.10560394 -248.86701538 154.06052734 -248.87268066 155.04438782 C-248.85829956 156.09023544 -248.84391846 157.13608307 -248.82910156 158.21362305 C-248.82968567 159.3162146 -248.83026978 160.41880615 -248.83087158 161.55480957 C-248.82807987 165.2074304 -248.79693518 168.85924009 -248.765625 172.51171875 C-248.75816651 175.04091445 -248.75247173 177.57011592 -248.74847412 180.09931946 C-248.73475038 186.08113958 -248.7032099 192.06261032 -248.66307616 198.04429036 C-248.61837575 204.85434624 -248.59637584 211.66441603 -248.57629442 218.47458208 C-248.53447739 232.48321655 -248.46411463 246.49159229 -248.375 260.5 C-247.94509168 259.86927141 -247.51518335 259.23854282 -247.07224751 258.58870125 C-245.10400439 255.70115996 -243.13562145 252.81371402 -241.16723633 249.92626953 C-240.49098457 248.93411942 -239.81473282 247.9419693 -239.11798859 246.91975403 C-235.65166255 241.8351761 -232.18189479 236.7530809 -228.69921875 231.6796875 C-228.07982422 230.77605469 -227.46042969 229.87242187 -226.82226562 228.94140625 C-225.60005377 227.15895744 -224.37595966 225.37779841 -223.15039062 223.59765625 C-222.24643555 222.27701172 -222.24643555 222.27701172 -221.32421875 220.9296875 C-220.80174561 220.16897949 -220.27927246 219.40827148 -219.7409668 218.62451172 C-217.02223906 214.39602757 -216.12560011 211.65553866 -216.13449097 206.55218506 C-216.13174164 205.33504822 -216.12899231 204.11791138 -216.12615967 202.8638916 C-216.13323743 201.51830956 -216.14050704 200.17272851 -216.14794922 198.82714844 C-216.14851347 197.40785734 -216.14819651 195.98856566 -216.14706421 194.5692749 C-216.14649022 190.71834376 -216.15825196 186.86753714 -216.17221212 183.01663494 C-216.1847118 178.99142271 -216.18588938 174.96620765 -216.18826294 170.940979 C-216.19447995 163.31956851 -216.21089376 155.69821538 -216.23096192 148.07683015 C-216.25331404 139.39976423 -216.26431262 130.72269558 -216.27435279 122.04560804 C-216.29525979 104.19703951 -216.33044007 86.34852437 -216.375 68.5 C-217.20542564 68.10609825 -217.20542564 68.10609825 -218.05262756 67.70423889 C-218.77655197 67.35332687 -219.50047638 67.00241486 -220.24633789 66.64086914 C-220.96495499 66.29576797 -221.68357208 65.95066681 -222.42396545 65.59510803 C-225.0188073 64.13863349 -226.29665842 62.47535375 -227.8125 59.9375 C-228.28558594 59.17308594 -228.75867188 58.40867187 -229.24609375 57.62109375 C-232.0141936 52.42013106 -232.0369362 47.2543317 -231.375 41.5 C-229.23819457 34.96984893 -226.12096524 30.2524671 -220.375 26.5 C-215.08119705 24.22740957 -210.22324056 24.20382918 -204.56518555 24.20947266 C-203.5936554 24.20275543 -202.62212524 24.19603821 -201.62115479 24.18911743 C-198.41795702 24.17016145 -195.21496907 24.16621438 -192.01171875 24.1640625 C-189.77740901 24.15763277 -187.5431001 24.15090428 -185.30879211 24.14389038 C-180.62747242 24.13192351 -175.94622649 24.12820894 -171.26489258 24.12939453 C-165.27960038 24.12959765 -159.29478336 24.10229971 -153.30960369 24.06785011 C-148.69492947 24.04556305 -144.08036927 24.04155756 -139.46564674 24.04261398 C-137.25973689 24.0402606 -135.05382378 24.03145195 -132.84796715 24.01594925 C-129.75597669 23.99625384 -126.66500653 24.00214177 -123.57299805 24.01416016 C-122.67035721 24.00292114 -121.76771637 23.99168213 -120.83772278 23.98010254 C-114.19575767 24.0453835 -107.98018229 25.39534338 -102.81766796 29.84111977 C-97.56988401 35.70108282 -95.72115596 41.94969042 -95.96484375 49.65234375 C-96.77624672 55.28579868 -99.00921777 60.24810663 -103.16015625 64.19921875 C-105.78325628 66.14287461 -108.27870435 67.46790145 -111.375 68.5 C-111.37910889 69.23114014 -111.38321777 69.96228027 -111.38745117 70.71557617 C-111.42042209 74.04036307 -111.49107147 77.36332616 -111.5625 80.6875 C-111.57120117 82.41323242 -111.57120117 82.41323242 -111.58007812 84.17382812 C-111.8287726 93.7071165 -111.8287726 93.7071165 -114.73828125 96.76171875 C-117.375 98.5 -117.375 98.5 -120.375 99.125 C-123.375 98.5 -123.375 98.5 -128.375 93.5 C-128.375 85.58 -128.375 77.66 -128.375 69.5 C-151.805 69.5 -175.235 69.5 -199.375 69.5 C-199.32859375 79.83957031 -199.2821875 90.17914063 -199.234375 100.83203125 C-199.21393219 107.38997797 -199.19451021 113.94790153 -199.1796875 120.50585938 C-199.15598103 130.91048089 -199.12815794 141.31497255 -199.07324219 151.71948242 C-199.03326106 159.29807201 -199.0075404 166.87655593 -198.99864602 174.45524806 C-198.99345026 178.4648187 -198.98131624 182.47408717 -198.95207977 186.48356056 C-198.9247319 190.26502055 -198.91659361 194.0460567 -198.92256927 197.8276062 C-198.92096094 199.86162247 -198.8995403 201.89559361 -198.87731934 203.92948914 C-198.92546104 214.74364934 -201.22702378 223.3822436 -207.8125 232 C-208.70008822 233.18848549 -209.58538052 234.37868799 -210.46875 235.5703125 C-210.93796875 236.1984082 -211.4071875 236.82650391 -211.890625 237.47363281 C-214.62629118 241.20817711 -217.21111382 245.04631287 -219.8125 248.875 C-220.92956597 250.51310371 -222.04675281 252.15112501 -223.1640625 253.7890625 C-223.70708008 254.58602539 -224.25009766 255.38298828 -224.80957031 256.20410156 C-231.56602653 266.1132897 -238.39458876 275.97157621 -245.25 285.8125 C-250.39060627 293.19757912 -255.52579848 300.58625166 -260.625 308 C-261.1494873 308.75837158 -261.67397461 309.51674316 -262.21435547 310.2980957 C-268.10106102 318.88102437 -272.76177158 326.09936445 -270.96875 336.9609375 C-269.19657616 343.14244864 -266.00516138 347.99893601 -260.6787796 351.66864109 C-252.94643829 355.64250626 -244.70430129 355.05452322 -236.24804688 355.00170898 C-234.51749737 355.00549668 -232.7869509 355.01100042 -231.05641174 355.01808167 C-226.37660758 355.03199485 -221.69717279 355.02089564 -217.0173893 355.00437045 C-212.10888028 354.99047467 -207.20039173 354.99698518 -202.29187012 355.00050354 C-194.05047689 355.00320209 -185.80922959 354.98976065 -177.56787109 354.96655273 C-168.05373363 354.93994527 -158.53984008 354.93819726 -149.02567816 354.9499411 C-139.85530841 354.96073829 -130.68502649 354.95451657 -121.5146637 354.94038582 C-117.62014172 354.93464285 -113.72568438 354.93469538 -109.8311615 354.93945122 C-105.24113044 354.94424045 -100.65136483 354.93403903 -96.0613842 354.91249657 C-94.38165621 354.90695497 -92.70190258 354.90643913 -91.02217293 354.91144943 C-81.16282822 354.93715947 -72.60850963 354.95609127 -64.0625 349.3125 C-58.92120814 343.93207828 -57.05123247 338.60202154 -56.16015625 331.28515625 C-56.73586891 323.82182662 -60.0441358 317.86888439 -64.375 311.9375 C-65.37139139 310.53146087 -66.36747704 309.12520505 -67.36328125 307.71875 C-67.86811035 307.01363281 -68.37293945 306.30851562 -68.89306641 305.58203125 C-71.16005474 302.39704335 -73.35843615 299.1661803 -75.5625 295.9375 C-80.05213748 289.39487375 -84.58730787 282.88434978 -89.125 276.375 C-95.10635109 267.79099507 -101.0439088 259.1787997 -106.9140625 250.51831055 C-109.93898575 246.05711311 -112.98659555 241.61651558 -116.09765625 237.21484375 C-116.69167236 236.36760742 -117.28568848 235.52037109 -117.89770508 234.64746094 C-119.00705816 233.06755399 -120.12471664 231.49342829 -121.25268555 229.92675781 C-121.75195557 229.21229492 -122.25122559 228.49783203 -122.765625 227.76171875 C-123.19907227 227.15287842 -123.63251953 226.54403809 -124.07910156 225.91674805 C-127.78398129 219.00744051 -128.81925471 212.3925203 -128.77905273 204.63745117 C-128.78934761 203.22597305 -128.78934761 203.22597305 -128.79985046 201.78598022 C-128.81801385 198.70481896 -128.81429845 195.62417154 -128.80859375 192.54296875 C-128.81315815 190.39064876 -128.8184645 188.23833022 -128.82447815 186.08601379 C-128.83338681 181.58991547 -128.83100882 177.09399503 -128.82104492 172.59790039 C-128.80951432 166.83300552 -128.82984086 161.06871946 -128.85896206 155.30390453 C-128.87728489 150.86613567 -128.87704017 146.42851411 -128.87132454 141.99071693 C-128.87117108 139.86441502 -128.87723575 137.73810327 -128.88961601 135.61183739 C-128.90446279 132.64602358 -128.89389804 129.68135369 -128.87670898 126.71557617 C-128.88637695 125.83707504 -128.89604492 124.95857391 -128.90600586 124.05345154 C-128.83394133 118.12755543 -128.83394133 118.12755543 -126.53114319 114.97871399 C-123.75166612 113.07250866 -121.73243999 112.63989333 -118.375 112.5 C-115.01443304 113.62018899 -114.41143934 114.44534099 -112.375 117.5 C-112.14794922 119.9519043 -112.14794922 119.9519043 -112.1796875 122.82421875 C-112.18468262 123.75065186 -112.18967773 124.67708496 -112.19482422 125.6315918 C-112.21303223 126.8050415 -112.23124023 127.97849121 -112.25 129.1875 C-112.29125 132.920625 -112.3325 136.65375 -112.375 140.5 C-97.525 140.005 -97.525 140.005 -82.375 139.5 C-81.446875 137.4375 -80.51875 135.375 -79.5625 133.25 C-72.55397681 118.76526523 -61.12136582 109.62010503 -46.375 103.5 C-44.56221633 89.87085119 -44.56221633 89.87085119 -48.578125 77.5078125 C-51.41071131 75.57522665 -51.41071131 75.57522665 -54.48046875 74.02734375 C-62.43235348 69.83140997 -66.30635314 60.55202792 -69.375 52.5 C-72.8109247 40.5351514 -71.02011143 26.98428869 -65.13671875 16.23828125 C-63.95616379 14.26094306 -62.70616984 12.37828495 -61.375 10.5 C-60.776875 9.63375 -60.17875 8.7675 -59.5625 7.875 C-44.1156278 -8.89588982 -19.21616125 -11.47286522 0 0 Z M-47.375 18.5 C-53.81501005 27.81907337 -55.48050184 35.11333108 -54.375 46.5 C-53.16181172 50.1832396 -51.49606749 53.26583587 -49.375 56.5 C-48.818125 57.4075 -48.26125 58.315 -47.6875 59.25 C-40.57863967 66.16672897 -33.03368322 68.81175735 -23.28564453 68.89160156 C-16.95191697 68.76678405 -12.56773854 66.96519323 -7.375 63.5 C-6.4675 62.943125 -5.56 62.38625 -4.625 61.8125 C2.74424996 54.23854866 4.99137675 46.46332089 4.90625 36.15234375 C4.30778936 28.38066743 1.27397315 21.90336562 -4.375 16.5 C-17.90795463 7.14795818 -35.16970581 5.73991971 -47.375 18.5 Z M-215.375 44.5 C-216.125 47 -216.125 47 -215.375 49.5 C-212.54969349 52.54437406 -210.34519537 53.75022455 -206.2767334 54.00793457 C-204.63452632 54.03161623 -202.99191158 54.03333755 -201.34960938 54.01757812 C-199.99993828 54.02809204 -199.99993828 54.02809204 -198.6230011 54.03881836 C-195.65460164 54.05639511 -192.68715883 54.04477664 -189.71875 54.03125 C-187.65278948 54.033945 -185.5868302 54.03782749 -183.52087402 54.04284668 C-179.19331778 54.0487413 -174.86609202 54.04017976 -170.53857422 54.02148438 C-164.99334151 53.99869505 -159.4488832 54.0118183 -153.90367889 54.03577423 C-149.63826673 54.05023305 -145.37303795 54.04562578 -141.10762024 54.03526306 C-139.06309416 54.03259602 -137.01855139 54.03586473 -134.9740448 54.04518127 C-132.11571187 54.05534807 -129.25863042 54.03984377 -126.40039062 54.01757812 C-125.55660355 54.02567505 -124.71281647 54.03377197 -123.84346008 54.04211426 C-119.87696981 53.98491496 -117.80151946 53.75136458 -114.31091309 51.69421387 C-111.9752886 49.53464788 -111.9752886 49.53464788 -112.375 45.875 C-113.05757524 42.24926111 -113.05757524 42.24926111 -116.375 40.5 C-119.40428313 40.29441054 -122.3423888 40.20632008 -125.37280273 40.20947266 C-126.29340485 40.20275543 -127.21400696 40.19603821 -128.1625061 40.18911743 C-131.2112566 40.17009098 -134.25978755 40.16621101 -137.30859375 40.1640625 C-139.42464794 40.15763825 -141.54070124 40.15091018 -143.65675354 40.14389038 C-148.09451355 40.1319063 -152.53219565 40.12821077 -156.9699707 40.12939453 C-162.66102779 40.12959788 -168.35158642 40.10228356 -174.04252529 40.06785011 C-178.41337893 40.04563198 -182.78411161 40.04155541 -187.15501595 40.04261398 C-189.25341575 40.04025082 -191.35181854 40.03138725 -193.45016289 40.01594925 C-196.38306658 39.99639049 -199.31488216 40.00208736 -202.24780273 40.01416016 C-203.11702866 40.00292114 -203.98625458 39.99168213 -204.88182068 39.98010254 C-209.72247777 40.03083054 -212.43194585 40.22843089 -215.375 44.5 Z M-29.375 84.5 C-29.44910115 90.28406969 -29.50357885 96.06786371 -29.53979492 101.85229492 C-29.55489082 103.82044283 -29.57536948 105.78855706 -29.60131836 107.7565918 C-29.63766649 110.58390612 -29.65471814 113.4107761 -29.66796875 116.23828125 C-29.68345261 117.11962234 -29.69893646 118.00096344 -29.71488953 118.90901184 C-29.71511612 119.72963608 -29.71534271 120.55026031 -29.71557617 121.39575195 C-29.72223801 122.11745071 -29.72889984 122.83914948 -29.73576355 123.5827179 C-29.26546637 126.08211778 -28.38965908 126.98939399 -26.375 128.5 C-23.7477086 128.42466753 -23.7477086 128.42466753 -21.375 127.5 C-19.65697618 124.06395235 -20.2553382 120.11561104 -20.27734375 116.3359375 C-20.2787587 115.42872955 -20.28017365 114.52152161 -20.28163147 113.58682251 C-20.28723904 110.68284845 -20.29979282 107.77895085 -20.3125 104.875 C-20.31751402 102.90885528 -20.3220771 100.94270935 -20.32617188 98.9765625 C-20.33721094 94.1510121 -20.35448065 89.32551903 -20.375 84.5 C-23.345 84.5 -26.315 84.5 -29.375 84.5 Z M-58.125 130.171875 C-67.28767046 140.19354582 -69.98833057 151.79596873 -69.6796875 164.94921875 C-69.07515403 177.02739782 -63.47676554 186.29230103 -55.125 194.7890625 C-45.15056248 203.54950598 -33.43088437 206.5738661 -20.421875 205.91015625 C-8.83267541 204.93533838 0.78935785 199.7152843 8.7265625 191.26171875 C18.16361699 179.63607077 20.98081358 167.27177967 19.625 152.5 C17.34773019 140.55456073 10.46702271 130.56237194 0.625 123.5 C-2.15353916 122.06298277 -2.15353916 122.06298277 -4.375 121.5 C-4.47296875 122.14066406 -4.5709375 122.78132812 -4.671875 123.44140625 C-6.84149383 135.99152895 -6.84149383 135.99152895 -12.54296875 140.0390625 C-18.0827982 143.11388257 -23.07790439 144.78512155 -29.375 143.5 C-34.2060904 142.05356575 -38.03629572 140.31353074 -41.08203125 136.1875 C-43.6201278 131.38925408 -45.02252374 126.90463598 -45.375 121.5 C-50.10420573 121.5 -54.85172052 127.04472406 -58.125 130.171875 Z M-351.375 125.5 C-352.20833333 128.5 -352.20833333 128.5 -351.375 131.5 C-347.21365165 134.94446945 -343.06925597 134.92803331 -337.90039062 134.88818359 C-337.05913132 134.89344055 -336.21787201 134.89869751 -335.35112 134.90411377 C-332.57763965 134.917289 -329.80473592 134.90858451 -327.03125 134.8984375 C-325.09981171 134.90045895 -323.16837416 134.90337098 -321.23693848 134.90713501 C-317.19190188 134.91155501 -313.14706423 134.9051377 -309.10205078 134.89111328 C-303.92012954 134.87402164 -298.73867447 134.88386455 -293.55677032 134.90183067 C-289.56932063 134.91267724 -285.58198124 134.90921815 -281.5945282 134.9014473 C-279.68397466 134.89944771 -277.77341106 134.90189609 -275.86286926 134.90888596 C-273.19151322 134.91651474 -270.52090947 134.90487632 -267.84960938 134.88818359 C-266.6680854 134.89729263 -266.6680854 134.89729263 -265.46269226 134.90658569 C-260.95999834 134.85452677 -257.8933072 134.41220553 -254.375 131.5 C-253.54166667 128.5 -253.54166667 128.5 -254.375 125.5 C-258.53634835 122.05553055 -262.68074403 122.07196669 -267.84960938 122.11181641 C-268.69086868 122.10655945 -269.53212799 122.10130249 -270.39888 122.09588623 C-273.17236035 122.082711 -275.94526408 122.09141549 -278.71875 122.1015625 C-280.65018829 122.09954105 -282.58162584 122.09662902 -284.51306152 122.09286499 C-288.55809812 122.08844499 -292.60293577 122.0948623 -296.64794922 122.10888672 C-301.82987046 122.12597836 -307.01132553 122.11613545 -312.19322968 122.09816933 C-316.18067937 122.08732276 -320.16801876 122.09078185 -324.1554718 122.0985527 C-326.06602534 122.10055229 -327.97658894 122.09810391 -329.88713074 122.09111404 C-332.55848678 122.08348526 -335.22909053 122.09512368 -337.90039062 122.11181641 C-338.68807327 122.10574371 -339.47575592 122.09967102 -340.28730774 122.09341431 C-344.79000166 122.14547323 -347.8566928 122.58779447 -351.375 125.5 Z M-112.375 156.5 C-112.375 159.47 -112.375 162.44 -112.375 165.5 C-103.465 165.5 -94.555 165.5 -85.375 165.5 C-85.375 162.53 -85.375 159.56 -85.375 156.5 C-94.285 156.5 -103.195 156.5 -112.375 156.5 Z M4.625 214.5 C6.05950351 218.45131891 7.94231791 221.78489023 10.21484375 225.31640625 C11.26768555 226.95706055 11.26768555 226.95706055 12.34179688 228.63085938 C12.706521 229.19442139 13.07124512 229.7579834 13.44702148 230.33862305 C14.55969744 232.05816889 15.66611001 233.78161289 16.77148438 235.50585938 C20.91136069 242.21067961 20.91136069 242.21067961 25.625 248.5 C28.16758463 249.00014953 28.16758463 249.00014953 30.625 248.5 C31.285 247.84 31.945 247.18 32.625 246.5 C32.49723118 240.78447488 29.67313013 236.9871068 26.5625 232.4375 C25.55960793 230.93856259 24.55832208 229.43854935 23.55859375 227.9375 C23.06214355 227.195 22.56569336 226.4525 22.05419922 225.6875 C20.72409421 223.65167135 19.45919481 221.59365475 18.22265625 219.5 C17.86502197 218.89551025 17.5073877 218.29102051 17.13891602 217.66821289 C16.17992723 216.03125852 15.23029796 214.38883143 14.28125 212.74609375 C13.7346875 212.00488281 13.188125 211.26367188 12.625 210.5 C8.71661134 210.5 7.50905893 212.00567876 4.625 214.5 Z M-316.375 226.5 C-316.42022152 238.24402845 -316.45689937 249.98799888 -316.47862434 261.73209476 C-316.4890523 267.1856059 -316.50319356 272.63905428 -316.52587891 278.0925293 C-316.54764237 283.35745802 -316.55957606 288.62232644 -316.56475449 293.88729668 C-316.56844394 295.89389431 -316.57564851 297.90048872 -316.58646011 299.90706062 C-316.60102149 302.72204798 -316.60297599 305.53678756 -316.60205078 308.35180664 C-316.60924133 309.17755692 -316.61643188 310.00330719 -316.62384033 310.8540802 C-316.60162255 317.11949398 -316.13684885 322.47387382 -311.875 327.375 C-307.99979913 330.66892074 -305.57331723 330.78627184 -300.62890625 330.71484375 C-297.50148646 330.41673614 -295.75793135 329.53250027 -293.375 327.5 C-289.03579984 321.6110855 -289.2312014 315.59244731 -289.26147461 308.57885742 C-289.26132858 307.69055237 -289.26118256 306.80224731 -289.2610321 305.88702393 C-289.26172707 302.95981376 -289.2695 300.03266775 -289.27734375 297.10546875 C-289.27920941 295.07237279 -289.28063261 293.03927638 -289.28163147 291.00617981 C-289.28544501 285.66161859 -289.29526538 280.31708464 -289.30633545 274.97253418 C-289.31657457 269.51619842 -289.32113445 264.05985823 -289.32617188 258.60351562 C-289.33688868 247.90232985 -289.35447608 237.20117146 -289.375 226.5 C-298.285 226.5 -307.195 226.5 -316.375 226.5 Z M42.625 227.5 C43.73193197 230.30990423 44.87608395 232.99251082 46.25 235.6875 C48.44846101 240.87361316 48.65185801 246.42995783 46.86328125 251.77734375 C44.62499188 256.5281793 42.08169371 260.23845458 37.3125 262.6875 C29.46966707 265.05858903 23.80563366 264.5476573 16.5625 261 C12.95793933 257.93228879 10.62427322 254.49005975 8.04296875 250.546875 C7.57503906 249.87140625 7.10710937 249.1959375 6.625 248.5 C6.295 248.5 5.965 248.5 5.625 248.5 C5.08397291 258.08820224 5.40046523 265.88351023 11.3203125 273.75390625 C16.80379764 279.78129984 22.70606932 282.91916686 30.80078125 283.875 C40.36219093 284.23453597 47.84542296 282.38395223 55 275.875 C61.58280771 268.63924173 63.30658941 261.19173812 62.93359375 251.5390625 C62.05115856 242.84875136 57.96774753 237.41292764 51.625 231.5 C47.50691128 228.4934775 47.50691128 228.4934775 42.625 227.5 Z M-403.375 372.5 C-404.65826122 376.34978366 -404.5200798 379.99073341 -404.5 384 C-404.50386719 384.77214844 -404.50773437 385.54429687 -404.51171875 386.33984375 C-404.50599051 389.64503737 -404.42707501 392.34377498 -403.375 395.5 C-399.73365483 396.71378172 -396.40197366 396.6376459 -392.61160278 396.62584114 C-391.80875091 396.62729458 -391.00589904 396.62874802 -390.17871833 396.63024551 C-387.4656438 396.63391951 -384.75262497 396.63041261 -382.03955078 396.62698364 C-380.08394402 396.62813491 -378.12833748 396.62972247 -376.1727314 396.63171089 C-370.78094948 396.63590347 -365.38918515 396.63381383 -359.99740314 396.63072467 C-354.18957205 396.62847051 -348.38174406 396.63195026 -342.57391357 396.63470459 C-331.18929033 396.6391611 -319.80467365 396.63818634 -308.42005014 396.63529195 C-299.17100374 396.63303745 -289.92195919 396.6327256 -280.6729126 396.63381577 C-278.70153971 396.63404561 -278.70153971 396.63404561 -276.69034111 396.63428011 C-274.69004162 396.63451967 -272.68974213 396.63475925 -270.68944264 396.635007 C-245.67811066 396.63806793 -220.66678228 396.63528947 -195.65545085 396.6299101 C-173.42068927 396.62516428 -151.18593341 396.6255889 -128.95117188 396.63037109 C-103.98640543 396.63572246 -79.02164217 396.63785088 -54.05687523 396.63475883 C-51.39694595 396.63444027 -48.73701668 396.6341259 -46.0770874 396.63381577 C-44.11376565 396.63358435 -44.11376565 396.63358435 -42.11078084 396.63334826 C-32.86830705 396.6324833 -23.62583529 396.63394554 -14.38336182 396.63629532 C-3.12639978 396.63909423 8.13055527 396.63835311 19.3875165 396.63301457 C25.13561926 396.6303788 30.88371037 396.62937042 36.63181305 396.63266373 C41.88705954 396.63562922 47.14228351 396.6340296 52.39752793 396.62868617 C54.30528499 396.62756308 56.21304392 396.62815081 58.12079978 396.63056196 C60.70109503 396.63357459 63.28131173 396.63051236 65.86160278 396.62584114 C66.98918452 396.62935289 66.98918452 396.62935289 68.13954568 396.63293558 C71.24481642 396.62159337 73.65488968 396.49003677 76.625 395.5 C77.90826122 391.65021634 77.7700798 388.00926659 77.75 384 C77.75386719 383.22785156 77.75773437 382.45570313 77.76171875 381.66015625 C77.75599051 378.35496263 77.67707501 375.65622502 76.625 372.5 C72.98365483 371.28621828 69.65197366 371.3623541 65.86160278 371.37415886 C65.05875091 371.37270542 64.25589904 371.37125198 63.42871833 371.36975449 C60.7156438 371.36608049 58.00262497 371.36958739 55.28955078 371.37301636 C53.33394402 371.37186509 51.37833748 371.37027753 49.4227314 371.36828911 C44.03094948 371.36409653 38.63918515 371.36618617 33.24740314 371.36927533 C27.43957205 371.37152949 21.63174406 371.36804974 15.82391357 371.36529541 C4.43929033 371.3608389 -6.94532635 371.36181366 -18.32994986 371.36470805 C-27.57899626 371.36696255 -36.82804081 371.3672744 -46.0770874 371.36618423 C-47.39133599 371.366031 -48.70558458 371.36587777 -50.05965889 371.36571989 C-52.05995838 371.36548033 -54.06025787 371.36524075 -56.06055736 371.364993 C-81.07188934 371.36193207 -106.08321772 371.36471053 -131.09454915 371.3700899 C-153.32931073 371.37483572 -175.56406659 371.3744111 -197.79882812 371.36962891 C-222.76359457 371.36427754 -247.72835783 371.36214912 -272.69312477 371.36524117 C-275.35305405 371.36555973 -278.01298332 371.3658741 -280.6729126 371.36618423 C-282.63623435 371.36641565 -282.63623435 371.36641565 -284.63921916 371.36665174 C-293.88169295 371.3675167 -303.12416471 371.36605446 -312.36663818 371.36370468 C-323.62360022 371.36090577 -334.88055527 371.36164689 -346.1375165 371.36698543 C-351.88561926 371.3696212 -357.63371037 371.37062958 -363.38181305 371.36733627 C-368.63705954 371.36437078 -373.89228351 371.3659704 -379.14752793 371.37131383 C-381.05528499 371.37243692 -382.96304392 371.37184919 -384.87079978 371.36943804 C-387.45109503 371.36642541 -390.03131173 371.36948764 -392.61160278 371.37415886 C-393.36332394 371.37181769 -394.11504509 371.36947653 -394.88954568 371.36706442 C-397.99481642 371.37840663 -400.40488968 371.50996323 -403.375 372.5 Z " fill="#000000" transform="translate(419.375,93.5)"/>
<path d="M0 0 C0.64472763 -0.00525696 1.28945526 -0.01051392 1.95372009 -0.01593018 C4.06770643 -0.02904656 6.18092897 -0.02042269 8.29492188 -0.01025391 C9.77413069 -0.01227707 11.25333853 -0.01519052 12.73254395 -0.01895142 C15.82586201 -0.02336342 18.91891938 -0.01698027 22.01220703 -0.00292969 C25.96655277 0.01416183 29.92028755 0.00431456 33.8746109 -0.01364708 C36.92706867 -0.02451553 39.97938287 -0.02102462 43.03184509 -0.0132637 C44.48941623 -0.01127014 45.94700063 -0.01369119 47.40455627 -0.02070236 C49.44583394 -0.0283678 51.48613812 -0.01664351 53.52734375 0 C54.68617065 0.00238678 55.84499756 0.00477356 57.03894043 0.00723267 C65.2470984 0.97689648 69.41887897 6.27760243 74.26367188 12.38818359 C76.80532565 15.84246469 79.20330591 19.37892245 81.57617188 22.95068359 C82.89624547 24.91178193 84.21655926 26.8727186 85.53710938 28.83349609 C86.49375488 30.26097168 86.49375488 30.26097168 87.46972656 31.71728516 C89.85608239 35.27018836 92.27308478 38.80122071 94.70117188 42.32568359 C95.12197021 42.93806885 95.54276855 43.5504541 95.97631836 44.18139648 C98.74227207 48.20037778 101.5289194 52.20460064 104.32226562 56.20458984 C105.03519775 57.22625244 105.74812988 58.24791504 106.48266602 59.30053711 C107.88497867 61.3088089 109.28902072 63.3158746 110.69506836 65.3215332 C121.0748768 80.18461499 121.0748768 80.18461499 121.76367188 84.57568359 C121.18220911 87.84641165 120.30215188 89.76728073 118.26367188 92.38818359 C114.68982752 94.7997928 111.40168041 94.64209917 107.17262268 94.64888 C106.45811115 94.65270555 105.74359961 94.6565311 105.00743622 94.66047257 C102.61303696 94.67079203 100.21887796 94.66681248 97.82446289 94.6628418 C96.10786721 94.66718885 94.39127347 94.67237198 92.67468262 94.67832947 C88.01148751 94.69173125 83.3483734 94.69229684 78.68516278 94.68976617 C74.79340267 94.68869728 70.90165901 94.6935777 67.00990242 94.69837159 C57.82942442 94.7094708 48.64898733 94.70990182 39.46850586 94.70385742 C29.994739 94.69781589 20.5211206 94.71013226 11.04737908 94.73142749 C2.91564313 94.74903466 -5.21604553 94.75504626 -13.34779984 94.75178975 C-18.2054584 94.74997538 -23.06301107 94.75262841 -27.92065239 94.76650429 C-32.48841691 94.77906367 -37.05594974 94.77715648 -41.62371063 94.7640934 C-43.30028676 94.76172396 -44.97687911 94.76447543 -46.65343666 94.77271652 C-48.94199283 94.78315488 -51.22976738 94.77510739 -53.51829529 94.7624054 C-55.4393542 94.76265701 -55.4393542 94.76265701 -57.39922237 94.7629137 C-60.98963209 94.3597396 -62.86323448 93.53183216 -65.73632812 91.38818359 C-68.08134444 88.14982773 -68.0021468 85.30296778 -67.73632812 81.38818359 C-66.62695312 78.99365234 -66.62695312 78.99365234 -64.98632812 76.57568359 C-64.344375 75.62048828 -63.70242187 74.66529297 -63.04101562 73.68115234 C-62.27521871 72.58179781 -61.50681359 71.48425725 -60.73632812 70.38818359 C-60.30739258 69.77539551 -59.87845703 69.16260742 -59.43652344 68.53125 C-56.95813054 64.99782998 -54.46331487 61.47634756 -51.96289062 57.95849609 C-48.75204915 53.42839649 -45.6126376 48.85187688 -42.48632812 44.26318359 C-40.23785015 40.97047509 -37.98767053 37.67893421 -35.73632812 34.38818359 C-35.06956055 33.41349121 -34.40279297 32.43879883 -33.71582031 31.43457031 C-31.60328697 28.35269377 -29.48313907 25.27617822 -27.36132812 22.20068359 C-26.70745117 21.24468262 -26.05357422 20.28868164 -25.37988281 19.30371094 C-12.04261581 0.02480359 -12.04261581 0.02480359 0 0 Z M-7.42700195 21.49682617 C-8.17759888 22.62834106 -8.17759888 22.62834106 -8.94335938 23.78271484 C-9.5219873 24.64453369 -10.10061523 25.50635254 -10.69677734 26.39428711 C-11.61354248 27.78345337 -11.61354248 27.78345337 -12.54882812 29.20068359 C-13.87975064 31.1858024 -15.21182044 33.17015238 -16.54492188 35.15380859 C-17.23183105 36.17925781 -17.91874023 37.20470703 -18.62646484 38.26123047 C-22.06790555 43.36166701 -25.58897408 48.40593851 -29.11132812 53.45068359 C-29.78075439 54.41159912 -30.45018066 55.37251465 -31.13989258 56.36254883 C-34.00419885 60.47400176 -36.87226832 64.58279432 -39.74414062 68.68896484 C-40.57491328 69.88034077 -41.40564662 71.07174411 -42.23632812 72.26318359 C-42.92726562 73.25060547 -43.61820313 74.23802734 -44.33007812 75.25537109 C-45.82807124 77.10154607 -45.82807124 77.10154607 -45.73632812 78.38818359 C2.11367187 78.38818359 49.96367187 78.38818359 99.26367188 78.38818359 C94.01654358 70.0758204 94.01654358 70.0758204 88.53710938 61.95068359 C87.90409912 61.04527832 87.27108887 60.13987305 86.61889648 59.20703125 C85.96542236 58.27681152 85.31194824 57.3465918 84.63867188 56.38818359 C78.92541551 48.22334582 73.25445187 40.03355426 67.68896484 31.76708984 C62.07974741 22.38577824 62.07974741 22.38577824 54.26367188 15.38818359 C52.53404267 15.27726201 50.80022936 15.22899895 49.06713867 15.21118164 C47.98228683 15.19834641 46.897435 15.18551117 45.77970886 15.17228699 C44.60265884 15.16490005 43.42560883 15.15751312 42.21289062 15.14990234 C41.00679642 15.1418306 39.80070221 15.13375885 38.55805969 15.1254425 C36.00169314 15.1115926 33.44530802 15.10087452 30.88891602 15.09301758 C26.97767133 15.07580024 23.06727065 15.03191983 19.15625 14.98779297 C16.67513644 14.97766679 14.19401568 14.96915046 11.71289062 14.96240234 C10.5419133 14.94489426 9.37093597 14.92738617 8.16447449 14.90934753 C0.76262237 14.92913594 -2.67391268 15.56867713 -7.42700195 21.49682617 Z " fill="#000000" transform="translate(228.736328125,339.61181640625)"/>
<path d="M0 0 C1.21786705 0.81933738 2.42743381 1.65126617 3.625 2.5 C4.49125 3.098125 5.3575 3.69625 6.25 4.3125 C14.53035554 11.93914326 20.39894669 22.60793547 20.9609375 33.953125 C21.20452855 46.96304032 19.26669662 56.71754133 11.625 67.5 C10.7278125 68.799375 10.7278125 68.799375 9.8125 70.125 C2.18585674 78.40535554 -8.48293547 84.27394669 -19.828125 84.8359375 C-32.83804032 85.07952855 -42.59254133 83.14169662 -53.375 75.5 C-54.24125 74.901875 -55.1075 74.30375 -56 73.6875 C-64.28035554 66.06085674 -70.14894669 55.39206453 -70.7109375 44.046875 C-70.95452855 31.03695968 -69.01669662 21.28245867 -61.375 10.5 C-60.776875 9.63375 -60.17875 8.7675 -59.5625 7.875 C-44.1156278 -8.89588982 -19.21616125 -11.47286522 0 0 Z M-47.375 18.5 C-53.65054314 27.58108007 -55.2913222 34.44050009 -54.375 45.5 C-52.20010654 54.16411363 -47.90946802 60.09367846 -40.3125 64.8125 C-32.69119737 69.28663914 -24.11977678 69.94207221 -15.51171875 67.78125 C-6.05303561 64.22168487 -0.83331998 58.43116218 3.625 49.5 C6.32623749 41.47765011 5.33417386 32.19586027 1.80859375 24.64453125 C-2.14571013 17.47980243 -8.5148912 12.47318065 -16.30078125 9.8515625 C-27.91182477 7.88358902 -39.03230945 9.77809624 -47.375 18.5 Z " fill="#000000" transform="translate(227.375,13.5)"/>
<path d="M0 0 C6.70152476 4.11229928 10.99859852 11.52933088 13 19 C14.00843961 29.5534378 12.83983703 37.74248781 7.3125 46.75 C0.19356017 53.67653605 -7.25438688 57.27044338 -17.25 57.375 C-25.91695494 57.25580809 -33.78438826 55.38826762 -40 49 C-47.35134236 39.36402994 -49.02741551 31.10345586 -48 19 C-45.70488397 9.84319687 -41.13033483 4.49893446 -33.4140625 -0.66796875 C-23.10934888 -6.35390296 -10.14971751 -5.66725472 0 0 Z M-31 19 C-32.65353883 23.9606165 -32.8933248 28.9900192 -30.75 33.8125 C-27.10750755 38.39856412 -27.10750755 38.39856412 -22 41 C-16.57465605 41.52831065 -12.41068079 41.52854463 -8 38 C-4.82275324 35.17578066 -3.22069943 33.26641337 -2.796875 28.9140625 C-2.6681728 22.62910502 -3.77049815 19.50818958 -8 14.75 C-11.59866554 11.60116765 -15.23240037 11.72221913 -19.78515625 11.78125 C-24.68505763 12.26519088 -27.87362412 15.426999 -31 19 Z " fill="#000000" transform="translate(113,102)"/>
<path d="M0 0 C8.90881067 4.79058687 13.90115974 10.95347922 17.0625 20.4375 C17.8876916 31.71962784 16.99887744 39.7711394 9.8125 48.75 C5.04589559 53.90697287 -1.14720787 57.1602724 -8.1953125 57.67578125 C-19.4452121 57.89168841 -26.79501714 56.15385866 -35.2109375 48.375 C-41.45940564 41.36314435 -42.39523835 33.31918755 -42.2109375 24.23828125 C-41.59317608 15.65139756 -37.30443581 9.11126135 -30.9375 3.4375 C-22.02052869 -2.23395602 -9.97701985 -4.08865612 0 0 Z M-24.8125 20.625 C-26.41797982 24.63869956 -26.61417379 28.17445511 -25.9375 32.4375 C-23.74623223 36.82003554 -21.52075461 39.60419816 -16.9375 41.4375 C-12.20002043 42.14812194 -8.87928801 41.90839401 -4.5625 39.75 C-1.26257867 36.84292645 0.71119724 34.77951838 1.37890625 30.328125 C1.66203072 24.88482865 0.76810114 21.64385805 -2.9375 17.4375 C-6.62656706 14.27544252 -10.01640732 13.91366216 -14.72265625 14.0859375 C-19.24053401 14.80306095 -21.92376724 17.25481178 -24.8125 20.625 Z " fill="#000000" transform="translate(271.9375,265.5625)"/>
<path d="M0 0 C6.03859286 3.64091628 10.46324287 8.5160484 12.5 15.3125 C13.4596976 23.06763215 13.18037575 29.86739241 8.5 36.3125 C4.12672101 41.65761876 -0.75172587 44.84865108 -7.625 45.69921875 C-16.28201199 45.98978975 -21.61358038 44.49229787 -28.25 39.0625 C-33.67979787 32.42608038 -35.17728975 27.09451199 -34.88671875 18.4375 C-34.03615108 11.56422587 -30.84511876 6.68577899 -25.5 2.3125 C-18.20835422 -2.98262372 -8.20786205 -3.80857235 0 0 Z M-16.9375 15.875 C-19.10396028 19.25467804 -19.06288002 21.37233987 -18.5 25.3125 C-17.08333333 27.89583333 -17.08333333 27.89583333 -14.5 29.3125 C-10.55983987 29.87538002 -8.44217804 29.91646028 -5.0625 27.75 C-2.89603972 24.37032196 -2.93711998 22.25266013 -3.5 18.3125 C-4.91666667 15.72916667 -4.91666667 15.72916667 -7.5 14.3125 C-11.44016013 13.74961998 -13.55782196 13.70853972 -16.9375 15.875 Z " fill="#000000" transform="translate(262.5,186.6875)"/>
<path d="M0 0 C4.99824222 2.78311214 8.66790309 6.72537111 10.5625 12.1484375 C11.49292272 18.24957011 11.62883618 24.14154804 8.5625 29.6484375 C4.73717216 34.66386734 0.74912371 37.66247738 -5.5625 38.625 C-11.73206782 38.89634673 -16.77182999 38.56293158 -21.78125 34.7421875 C-26.86543118 29.84986222 -28.74864445 25.78452168 -29.0625 18.6484375 C-28.74864445 11.51235332 -26.86543118 7.44701278 -21.78125 2.5546875 C-15.55070163 -2.19742567 -7.2834414 -2.54453562 0 0 Z M-12.4375 16.1484375 C-12.60416667 18.6484375 -12.60416667 18.6484375 -12.4375 21.1484375 C-11.3779123 22.43166297 -11.3779123 22.43166297 -8.9375 22.2734375 C-6.4970877 22.43166297 -6.4970877 22.43166297 -5.4375 21.1484375 C-5.27083333 18.6484375 -5.27083333 18.6484375 -5.4375 16.1484375 C-6.4970877 14.86521203 -6.4970877 14.86521203 -8.9375 15.0234375 C-11.3779123 14.86521203 -11.3779123 14.86521203 -12.4375 16.1484375 Z " fill="#000000" transform="translate(313.4375,58.8515625)"/>
</svg>
