<?xml version="1.0" encoding="UTF-8"?>
<svg version="1.1" xmlns="http://www.w3.org/2000/svg" width="512" height="512">
<path d="M0 0 C1.39992188 -0.03673828 1.39992188 -0.03673828 2.828125 -0.07421875 C8.7624833 -0.09943557 12.10672387 0.43949515 16.625 4.375 C18.81202362 7.36393229 19.625 8.65444454 19.625 12.375 C20.36621094 12.49875 21.10742188 12.6225 21.87109375 12.75 C36.97857029 15.70862454 49.86591226 22.53505121 61.625 32.375 C62.41132813 32.99890625 63.19765625 33.6228125 64.0078125 34.265625 C82.08484184 49.25633226 92.92400929 72.33916207 95.625 95.375 C95.82485714 99.39340426 95.83043503 103.35760385 95.625 107.375 C97.01138672 107.32279297 97.01138672 107.32279297 98.42578125 107.26953125 C102.62145418 107.40785014 104.41227538 108.73342642 107.625 111.375 C111.6435947 116.94557085 111.10437642 122.17699025 111.0625 128.8125 C111.08248047 129.93205078 111.10246094 131.05160156 111.12304688 132.20507812 C111.11677179 142.77859459 111.11677179 142.77859459 106.625 147.375 C101.7443471 150.74901657 97.45426296 150.75103072 91.75 150.5625 C90.96625 150.54896484 90.1825 150.53542969 89.375 150.52148438 C87.45803218 150.48641789 85.54142249 150.43262072 83.625 150.375 C83.65078125 151.47199219 83.6765625 152.56898438 83.703125 153.69921875 C83.61806122 157.70146942 83.0963978 159.28575275 80.625 162.375 C78.0589794 164.32163632 76.81383026 164.38270736 73.5625 164.25 C70.625 163.375 70.625 163.375 68.75 161.875 C67.625 159.375 67.625 159.375 67.625 150.375 C23.075 150.375 -21.475 150.375 -67.375 150.375 C-66.79445173 193.35591554 -66.79445173 193.35591554 -45.375 227.375 C-44.76011719 228.01308594 -44.14523438 228.65117187 -43.51171875 229.30859375 C-32.09200221 240.28814991 -15.2705255 245.35752115 0.3125 245.8125 C20.10924046 245.07197355 36.69173761 237.1989596 50.3046875 223.03125 C59.89236102 212.05546213 64.16556737 199.16460952 66.8515625 185.01953125 C67.67091972 182.21799166 68.311842 181.10419899 70.625 179.375 C74.28128566 178.26221741 75.94039221 178.05551637 79.4375 179.6875 C81.625 181.375 81.625 181.375 82.625 183.375 C84.05032883 200.19388018 75.8911553 218.44723577 65.3125 231.15234375 C59.29035353 237.89754399 59.29035353 237.89754399 56.53979492 239.87133789 C53.54595005 243.78589599 53.94897177 247.82355982 53.875 252.625 C53.84535156 253.56085938 53.81570313 254.49671875 53.78515625 255.4609375 C53.71460196 257.76571092 53.66183748 260.06948168 53.625 262.375 C54.19810913 262.55768433 54.77121826 262.74036865 55.36169434 262.92858887 C61.46471411 264.87433511 67.56701371 266.82232835 73.66894531 268.77148438 C75.92983836 269.4933858 78.19089941 270.2147613 80.45214844 270.93554688 C96.2176266 275.96140723 111.94092023 281.10043205 127.625 286.375 C127.60858459 285.63630676 127.59216919 284.89761353 127.57525635 284.13653564 C127.53001516 282.10068199 127.48546593 280.06481287 127.44152832 278.02893066 C127.39240223 275.88459915 127.33169925 273.74052558 127.26464844 271.59667969 C127.2546582 270.67274414 127.24466797 269.74880859 127.234375 268.796875 C127.21342773 267.85424805 127.19248047 266.91162109 127.17089844 265.94042969 C127.77744336 262.51377696 128.81660957 261.39691308 131.625 259.375 C136.08168533 258.53610808 140.59829339 258.77275103 145.125 258.8125 C146.341875 258.78865234 147.55875 258.76480469 148.8125 258.74023438 C159.20981 258.75689673 168.09983566 260.99446882 176.0625 267.9375 C182.99856755 275.6844648 185.15537206 284.14279788 184.99072266 294.34185791 C184.47486966 302.04825703 181.98432182 309.43714627 179.8125 316.8046875 C179.31764489 318.53299736 178.82442816 320.26177709 178.33276367 321.99099731 C177.04695134 326.49684527 175.73928134 330.99604811 174.42663574 335.49414062 C173.08602213 340.10289546 171.76661999 344.71771212 170.4453125 349.33203125 C167.85902897 358.35234126 165.24956619 367.36576036 162.625 376.375 C163.4180957 377.00204834 164.21119141 377.62909668 165.02832031 378.27514648 C168.88453065 381.39354298 172.02824938 384.58474815 173.625 389.375 C174.02799967 395.87935201 172.85630968 401.32770535 171.10546875 407.5703125 C170.84623123 408.52138885 170.58699371 409.47246521 170.31990051 410.45236206 C169.77240941 412.45216339 169.21996884 414.45061562 168.6628418 416.44775391 C167.81405832 419.49440651 166.98302161 422.54549373 166.15429688 425.59765625 C165.61823126 427.54716231 165.08115593 429.49639106 164.54296875 431.4453125 C164.29596725 432.35169464 164.04896576 433.25807678 163.79447937 434.19192505 C161.57878855 442.08124766 159.32539353 447.48929638 152.625 452.375 C149.74288698 453.33570434 147.92649956 453.48081883 144.9375 453.4375 C144.12925781 453.42847656 143.32101562 453.41945313 142.48828125 453.41015625 C141.56595703 453.39275391 141.56595703 453.39275391 140.625 453.375 C140.41746094 454.2515625 140.20992188 455.128125 139.99609375 456.03125 C137.89071636 464.69941464 135.57898596 473.29888175 133.125 481.875 C132.84068115 482.88884766 132.5563623 483.90269531 132.26342773 484.94726562 C129.98189415 492.82313776 127.73048634 500.16645701 121.375 505.6875 C120.66859375 506.32300781 119.9621875 506.95851563 119.234375 507.61328125 C112.84508383 511.92700927 106.87759685 512.81778906 99.37820435 512.76940918 C98.48004309 512.77550028 97.58188183 512.78159139 96.65650356 512.78786707 C93.66426363 512.80443925 90.67245194 512.79972951 87.68017578 512.79492188 C85.52775635 512.80226554 83.37534085 512.81085263 81.22293091 512.82058716 C75.38817358 512.84278008 69.55355757 512.84573495 63.71876383 512.84383965 C58.84307825 512.84371985 53.96742252 512.85228783 49.09174526 512.86061716 C37.58669659 512.87984312 26.08172048 512.88273792 14.57666016 512.87597656 C2.71822225 512.86933565 -9.13990462 512.89220429 -20.99827945 512.92929029 C-31.18961371 512.9600032 -41.38084799 512.9713456 -51.5722276 512.96745348 C-57.6546199 512.96538771 -63.73677012 512.9708391 -69.8191185 512.99534607 C-75.5402308 513.01763674 -81.26083789 513.01571556 -86.98195267 512.99541855 C-89.07731266 512.99201271 -91.17270682 512.99707913 -93.26802063 513.01140213 C-105.3404635 513.08820907 -114.56945229 513.12190696 -124.1875 505 C-129.47487513 498.65514984 -132.27858759 493.70010553 -134.26953125 485.72265625 C-134.50661301 484.82252304 -134.74369476 483.92238983 -134.98796082 482.99497986 C-135.73500841 480.14588701 -136.46152002 477.29202535 -137.1875 474.4375 C-137.69330886 472.49378814 -138.20045718 470.55042432 -138.70898438 468.60742188 C-139.9465146 463.86716517 -141.16566782 459.12252524 -142.375 454.375 C-143.39037842 454.20085571 -143.39037842 454.20085571 -144.42626953 454.02319336 C-145.31942871 453.85956299 -146.21258789 453.69593262 -147.1328125 453.52734375 C-148.45756592 453.29132446 -148.45756592 453.29132446 -149.80908203 453.05053711 C-154.05516705 451.93265726 -156.75619033 449.86318686 -159.375 446.375 C-163.39143793 437.89694759 -165.49499543 428.31659119 -167.94921875 419.28637695 C-168.62558949 416.81034202 -169.32038542 414.33993395 -170.015625 411.86914062 C-175.40131455 392.35791062 -175.40131455 392.35791062 -171.875 384.5625 C-169.65644203 381.17919909 -166.73775845 379.50402628 -163.25 377.57421875 C-161.10542113 376.36739568 -161.10542113 376.36739568 -159.375 373.5625 C-157.11608164 371.09180804 -156.58009974 370.95621046 -153.375 370.75 C-150.19903997 370.96842104 -149.51020286 371.25758699 -147 373.4375 C-145.20606209 376.68038776 -144.34112998 379.8087202 -143.375 383.375 C-142.64909668 383.3843457 -141.92319336 383.39369141 -141.17529297 383.40332031 C-137.86618786 383.45721281 -134.55846762 383.54082439 -131.25 383.625 C-130.10789063 383.63917969 -128.96578125 383.65335937 -127.7890625 383.66796875 C-117.12062199 383.97809783 -117.12062199 383.97809783 -112.375 388.375 C-108.46367326 392.5561237 -106.98801336 396.68309102 -105.359375 402.04296875 C-105.09868225 402.87782303 -104.8379895 403.71267731 -104.56939697 404.5728302 C-104.02273712 406.3353118 -103.48180999 408.09958052 -102.94628906 409.86547852 C-102.13120378 412.54212748 -101.28959328 415.20939037 -100.4453125 417.87695312 C-99.91503351 419.59845612 -99.38633656 421.32044738 -98.859375 423.04296875 C-98.60943787 423.82874802 -98.35950073 424.61452728 -98.10198975 425.42411804 C-96.08139359 432.21384567 -94.80522388 439.23544775 -98.0625 445.75 C-100.83895664 448.90165348 -103.60123629 451.48811814 -107.375 453.375 C-108.75048156 453.45808638 -110.12985796 453.48236016 -111.5078125 453.47265625 C-112.31347656 453.46943359 -113.11914062 453.46621094 -113.94921875 453.46289062 C-114.79097656 453.45451172 -115.63273437 453.44613281 -116.5 453.4375 C-117.34949219 453.43298828 -118.19898438 453.42847656 -119.07421875 453.42382812 C-121.17450909 453.41202874 -123.2747633 453.39409306 -125.375 453.375 C-125.21418945 453.93783691 -125.05337891 454.50067383 -124.88769531 455.08056641 C-124.40657244 456.76449644 -123.92572097 458.44850403 -123.44506836 460.13256836 C-122.89577375 462.05321891 -122.34448516 463.97330025 -121.79125977 465.89282227 C-120.56868631 470.14302713 -119.35404676 474.39001837 -118.26171875 478.67578125 C-116.05305303 487.54608442 -116.05305303 487.54608442 -110.375 494.375 C-105.05699908 496.28510444 -100.35459302 496.66107137 -94.79100037 496.62896729 C-93.95212455 496.63208727 -93.11324874 496.63520725 -92.24895245 496.63842177 C-89.45162171 496.64636825 -86.65450991 496.64009125 -83.85717773 496.63378906 C-81.84620029 496.63650039 -79.83522384 496.64006212 -77.82424927 496.64440918 C-72.37193065 496.65351796 -66.91968781 496.64999528 -61.46736789 496.64365101 C-55.75933552 496.63858392 -50.0513096 496.64328437 -44.34327698 496.64642334 C-34.7591943 496.65006061 -25.17514245 496.64526982 -15.59106445 496.63574219 C-4.51144645 496.62485501 6.56809797 496.62838611 17.6477142 496.639395 C27.16295106 496.64847095 36.67816577 496.64975173 46.19340557 496.64451766 C51.87542009 496.64140006 57.55740001 496.64098294 63.23941231 496.64759064 C68.58034715 496.65336802 73.92118708 496.64935992 79.26211166 496.63780212 C81.22207799 496.63515779 83.18205231 496.63591676 85.14201546 496.64032745 C87.81744613 496.64579313 90.49257271 496.63893632 93.16798401 496.62896729 C93.94337652 496.63342873 94.71876904 496.63789017 95.51765829 496.64248681 C102.380661 496.59289184 107.72111581 495.34617591 112.625 490.375 C114.10214095 487.17309433 114.10214095 487.17309433 115.0625 483.4375 C115.25932373 482.75816406 115.45614746 482.07882812 115.65893555 481.37890625 C116.09070501 479.88000877 116.51421085 478.37871323 116.93066406 476.87548828 C117.6933156 474.12897738 118.48166456 471.39059663 119.2734375 468.65234375 C120.7415011 463.56479564 122.18947576 458.47181729 123.625 453.375 C122.55121094 453.42140625 121.47742188 453.4678125 120.37109375 453.515625 C105.93324952 453.95939731 105.93324952 453.95939731 100.625 449.375 C96.90046169 445.06237669 95.65774541 441.00357279 95.625 435.375 C96.17025053 432.05004086 97.11753658 428.89905533 98.125 425.6875 C98.39618652 424.78700928 98.66737305 423.88651855 98.94677734 422.95874023 C99.81980478 420.09096686 100.71958114 417.23269822 101.625 414.375 C102.07601074 412.92770508 102.07601074 412.92770508 102.53613281 411.45117188 C103.4260713 408.60833935 104.3335323 405.77188192 105.25 402.9375 C105.66475586 401.63389526 105.66475586 401.63389526 106.08789062 400.30395508 C107.97508415 394.6217403 109.86481735 389.39539248 114.87036133 385.73144531 C118.10281757 384.13971201 120.2130164 384.02901009 123.80078125 384.08203125 C124.95771484 384.09169922 126.11464844 384.10136719 127.30664062 384.11132812 C128.50482422 384.13646484 129.70300781 384.16160156 130.9375 384.1875 C132.15501953 384.20103516 133.37253906 384.21457031 134.62695312 384.22851562 C137.62675345 384.26380739 140.62564975 384.31311519 143.625 384.375 C143.73198715 383.79053101 143.8389743 383.20606201 143.94920349 382.60388184 C145.24488401 375.80661239 146.96622331 369.18756774 148.84765625 362.53125 C149.30597084 360.89488586 149.30597084 360.89488586 149.77354431 359.22546387 C150.41472463 356.93920038 151.05769927 354.65343942 151.70239258 352.36816406 C152.69210948 348.8586549 153.67557996 345.34743868 154.65820312 341.8359375 C155.28348995 339.60927269 155.90912834 337.38270657 156.53515625 335.15625 C156.82995377 334.10425415 157.12475128 333.0522583 157.42848206 331.96838379 C157.70224167 330.99977417 157.97600128 330.03116455 158.25805664 329.03320312 C158.49851212 328.17956177 158.73896759 327.32592041 158.98670959 326.44641113 C159.625 324.375 159.625 324.375 160.625 322.375 C159.965 322.705 159.305 323.035 158.625 323.375 C156.90191049 323.47005264 155.17511109 323.50054871 153.44940186 323.50084114 C152.34590015 323.50344889 151.24239845 323.50605664 150.10545731 323.50874341 C148.2719327 323.50539732 148.2719327 323.50539732 146.40136719 323.50198364 C145.11066692 323.50354363 143.81996666 323.50510362 142.49015427 323.50671089 C138.89562812 323.51090347 135.30112836 323.50881383 131.7066021 323.50572467 C127.83471366 323.50347051 123.9628299 323.50695026 120.09094238 323.50970459 C112.5011918 323.5141611 104.91145108 323.51318635 97.3217001 323.51029195 C91.1556687 323.50803745 84.98964008 323.5077256 78.8236084 323.50881577 C77.94744267 323.508969 77.07127695 323.50912223 76.16856074 323.50928011 C74.38888327 323.50959982 72.6092058 323.50992403 70.82952833 323.5102527 C54.12484862 323.51310714 37.4201744 323.50982103 20.71549559 323.50445233 C6.3689214 323.49998433 -7.97764471 323.50076027 -22.32421875 323.50537109 C-38.96739714 323.51071748 -55.61057072 323.51283245 -72.25374985 323.50975883 C-74.02703603 323.50944027 -75.80032221 323.5091259 -77.5736084 323.50881577 C-78.88248957 323.50858435 -78.88248957 323.50858435 -80.21781278 323.50834826 C-86.37946262 323.5074833 -92.54110942 323.50894554 -98.70275879 323.51129532 C-106.2074023 323.51409423 -113.71203536 323.51335312 -121.21667767 323.50801457 C-125.04874943 323.5053788 -128.88080372 323.50437042 -132.71287537 323.50766373 C-136.85905465 323.51117321 -141.00518946 323.50699487 -145.15136719 323.50198364 C-146.37371693 323.50421436 -147.59606667 323.50644509 -148.85545731 323.50874341 C-149.95895901 323.50613566 -151.06246071 323.50352791 -152.19940186 323.50084114 C-153.15749126 323.50067879 -154.11558067 323.50051644 -155.10270309 323.50034916 C-157.375 323.375 -157.375 323.375 -159.375 322.375 C-159.19324219 323.04031738 -159.01148438 323.70563477 -158.82421875 324.39111328 C-158.00001321 327.42535203 -157.18741711 330.46258467 -156.375 333.5 C-156.08882812 334.54671875 -155.80265625 335.5934375 -155.5078125 336.671875 C-155.23710937 337.69023437 -154.96640625 338.70859375 -154.6875 339.7578125 C-154.43613281 340.68996582 -154.18476563 341.62211914 -153.92578125 342.58251953 C-153.05620534 346.99130024 -152.77237154 350.21996212 -154.875 354.25 C-157.90454319 356.82511171 -159.52645207 356.96389555 -163.375 357.0390625 C-166.61038893 355.96481227 -167.49630034 354.23494949 -169.375 351.375 C-170.78401059 347.5801842 -171.80239945 343.69854265 -172.828125 339.78515625 C-173.13320984 338.64904404 -173.43829468 337.51293182 -173.75262451 336.34239197 C-174.39414847 333.9375422 -175.02919234 331.53095573 -175.65820312 329.12280273 C-176.61489088 325.47603465 -177.60286512 321.83877541 -178.59375 318.20117188 C-186.48173523 288.6828918 -186.48173523 288.6828918 -179.97265625 275.06640625 C-175.72586371 267.91227407 -170.07372688 263.17422969 -162.2734375 260.2265625 C-156.98001643 259.07028415 -151.84470779 258.83100054 -146.4375 258.75 C-145.43001709 258.72679687 -144.42253418 258.70359375 -143.38452148 258.6796875 C-138.96100523 258.72716047 -136.11377351 258.95139977 -132.234375 261.17578125 C-129.40860288 266.03777152 -129.59290985 270.65628546 -129.5625 276.1875 C-129.53736328 277.26193359 -129.51222656 278.33636719 -129.48632812 279.44335938 C-129.42756705 282.08760771 -129.39120624 284.73020488 -129.375 287.375 C-128.34439453 287.03927979 -128.34439453 287.03927979 -127.29296875 286.69677734 C-126.39191406 286.4127002 -125.49085938 286.12862305 -124.5625 285.8359375 C-123.66917969 285.55024902 -122.77585938 285.26456055 -121.85546875 284.97021484 C-119.375 284.375 -119.375 284.375 -116.375 285 C-114.375 286.375 -114.375 286.375 -112.375 289.375 C-112 292.8125 -112 292.8125 -112.375 296.375 C-116.375 300.375 -116.375 300.375 -128.375 306.375 C-106.595 306.87 -106.595 306.87 -84.375 307.375 C-83.715 305.725 -83.055 304.075 -82.375 302.375 C-81.04638672 300.33862305 -81.04638672 300.33862305 -79.5546875 298.38671875 C-79.01972656 297.68095703 -78.48476562 296.97519531 -77.93359375 296.24804688 C-77.37800781 295.52681641 -76.82242188 294.80558594 -76.25 294.0625 C-75.68667969 293.32193359 -75.12335938 292.58136719 -74.54296875 291.81835938 C-73.15865711 289.99998391 -71.76925774 288.18575326 -70.375 286.375 C-72.08392588 286.83111901 -73.79211229 287.29000891 -75.5 287.75 C-76.50933594 288.02070313 -77.51867187 288.29140625 -78.55859375 288.5703125 C-81.46919682 289.35353665 -81.46919682 289.35353665 -84.5625 290.625 C-88.65645727 291.71672194 -91.23443517 291.39317168 -95.375 290.375 C-97.4375 288.25 -97.4375 288.25 -98.375 285.375 C-98.26969434 279.26727162 -98.26969434 279.26727162 -95.84228516 276.84643555 C-92.38644691 274.7854483 -88.78592676 273.66455335 -84.9609375 272.45703125 C-84.15008698 272.19492355 -83.33923645 271.93281586 -82.5038147 271.6627655 C-80.79537407 271.11212766 -79.08573691 270.56519021 -77.375 270.02172852 C-74.7498766 269.18746078 -72.12863595 268.34180861 -69.5078125 267.49414062 C-67.84656849 266.96027012 -66.18511708 266.42704448 -64.5234375 265.89453125 C-63.73697845 265.64145706 -62.95051941 265.38838287 -62.14022827 265.12763977 C-56.60859416 263.375 -56.60859416 263.375 -54.375 263.375 C-54.53871094 262.55773437 -54.70242187 261.74046875 -54.87109375 260.8984375 C-55.24893961 258.25644549 -55.42575508 255.98838818 -55.41015625 253.3515625 C-55.21297694 245.23617209 -55.21297694 245.23617209 -57.97265625 237.83984375 C-59.98049277 235.90781355 -59.98049277 235.90781355 -62.1875 234.17578125 C-74.54241886 224.00503555 -81.06538101 204.35912894 -82.86376953 189.02685547 C-84.0485728 176.23490155 -83.53308539 163.20545366 -83.375 150.375 C-84.52097656 150.42140625 -85.66695313 150.4678125 -86.84765625 150.515625 C-88.37757791 150.55316909 -89.90752801 150.58956641 -91.4375 150.625 C-92.18966797 150.65851563 -92.94183594 150.69203125 -93.71679688 150.7265625 C-99.45274174 150.82588622 -102.72148181 149.79106579 -107.375 146.375 C-111.41923114 140.83770548 -110.85423982 135.55136374 -110.8125 128.9375 C-110.83248047 127.81794922 -110.85246094 126.69839844 -110.87304688 125.54492188 C-110.86928262 119.2021535 -110.71742779 115.14927144 -106.375 110.375 C-102.59375915 107.38980985 -100.09145354 107.25806314 -95.375 107.375 C-95.40980469 106.694375 -95.44460937 106.01375 -95.48046875 105.3125 C-96.17686684 80.37481619 -85.69404687 57.81998413 -69.375 39.375 C-57.00606598 26.3974643 -40.00068164 16.25401102 -22.375 12.375 C-21.385 12.375 -20.395 12.375 -19.375 12.375 C-19.2925 11.653125 -19.21 10.93125 -19.125 10.1875 C-18.06097314 6.19739929 -16.08941701 3.42277518 -12.53662109 1.25146484 C-8.52042824 -0.37696664 -4.27899033 0.00586163 0 0 Z M-4.375 26.375 C-4.375 38.915 -4.375 51.455 -4.375 64.375 C-1.405 64.375 1.565 64.375 4.625 64.375 C4.625 51.835 4.625 39.295 4.625 26.375 C1.655 26.375 -1.315 26.375 -4.375 26.375 Z M-50.375 44.375 C-51.15230469 44.98988281 -51.92960937 45.60476562 -52.73046875 46.23828125 C-66.28441664 57.50602107 -74.70961331 73.27963649 -78.375 90.375 C-78.601875 91.365 -78.82875 92.355 -79.0625 93.375 C-79.54611549 98.01770875 -79.375 102.7071709 -79.375 107.375 C-65.185 107.375 -50.995 107.375 -36.375 107.375 C-36.20485225 97.48844307 -36.20485225 97.48844307 -36.07714844 87.60131836 C-35.7602905 74.75439657 -35.7602905 74.75439657 -31.375 69.375 C-27.5745992 66.94921226 -24.86928874 66.27385775 -20.375 65.375 C-20.375 53.495 -20.375 41.615 -20.375 29.375 C-30.8356111 29.375 -42.69464378 38.04207469 -50.375 44.375 Z M20.625 29.375 C20.625 41.255 20.625 53.135 20.625 65.375 C23.595 66.365 26.565 67.355 29.625 68.375 C32.78500656 71.0083388 34.3271256 72.48137681 35.625 76.375 C35.77679014 78.7305448 35.87399289 81.08975123 35.94140625 83.44921875 C35.97951416 84.70049561 36.01762207 85.95177246 36.05688477 87.2409668 C36.09998779 88.83207275 36.14309082 90.42317871 36.1875 92.0625 C36.331875 97.115625 36.47625 102.16875 36.625 107.375 C50.815 107.375 65.005 107.375 79.625 107.375 C79.67794067 97.57067859 79.67794067 97.57067859 78.125 88.1875 C77.86323975 87.11193848 77.86323975 87.11193848 77.59619141 86.01464844 C71.93621893 64.56781497 57.86570185 47.45362613 38.98828125 36.20703125 C30.25634453 31.26803524 30.25634453 31.26803524 20.625 29.375 Z M-20.375 81.375 C-20.375 89.625 -20.375 97.875 -20.375 106.375 C-6.845 106.375 6.685 106.375 20.625 106.375 C20.625 98.125 20.625 89.875 20.625 81.375 C7.095 81.375 -6.435 81.375 -20.375 81.375 Z M-94.375 123.375 C-94.375 127.005 -94.375 130.635 -94.375 134.375 C-32.005 134.375 30.365 134.375 94.625 134.375 C94.625 130.745 94.625 127.115 94.625 123.375 C32.255 123.375 -30.115 123.375 -94.375 123.375 Z M-39.375 252.375 C-39.16962484 262.19566694 -36.61096258 271.33460398 -29.375 278.375 C-20.03743124 285.01615853 -11.7541286 286.72620058 -0.5 286.6875 C0.42941406 286.70361328 1.35882813 286.71972656 2.31640625 286.73632812 C12.50535075 286.74343339 21.12305731 284.50587886 28.625 277.375 C35.28738348 270.21407082 37.83721709 263.10161646 37.625 253.375 C35.93697266 253.98988281 35.93697266 253.98988281 34.21484375 254.6171875 C24.33708684 258.12076696 15.13099737 260.59115904 4.625 261.375 C3.83222656 261.43429687 3.03945313 261.49359375 2.22265625 261.5546875 C-9.33386596 261.94205696 -20.64255405 259.46429692 -31.375 255.375 C-32.20644531 255.06949219 -33.03789062 254.76398438 -33.89453125 254.44921875 C-35.72672506 253.7721734 -37.55190948 253.07618866 -39.375 252.375 Z M-161.375 278.375 C-165.30164284 282.36549069 -167.52532079 285.49140642 -167.6875 291.125 C-167.63122052 296.0072451 -166.67087855 298.63373246 -163.375 302.375 C-157.4287372 307.7411396 -155.00888441 307.375 -146.375 307.375 C-146.375 296.815 -146.375 286.255 -146.375 275.375 C-154.8316621 275.01118899 -154.8316621 275.01118899 -161.375 278.375 Z M143.625 275.375 C143.625 285.935 143.625 296.495 143.625 307.375 C154.37766536 308.20238675 154.37766536 308.20238675 162.625 304.375 C167.55096385 299.31407823 168.98648028 295.87403937 168.90625 288.9140625 C168.35781999 283.9629582 165.62454217 281.27702586 162.0625 278.0625 C155.83205761 273.7491168 152.57603437 275.375 143.625 275.375 Z M69.625 285.375 C72.44056417 290.57810908 75.60703055 295.14638365 79.3125 299.75 C79.81072266 300.37777344 80.30894531 301.00554687 80.82226562 301.65234375 C83.11727629 304.60644822 83.11727629 304.60644822 85.625 307.375 C88.72751201 307.46374135 91.8076812 307.49018455 94.91015625 307.47265625 C95.84097519 307.4712413 96.77179413 307.46982635 97.7308197 307.46836853 C100.71641191 307.46275172 103.70193029 307.4501964 106.6875 307.4375 C108.70637913 307.43248716 110.72525943 307.42792388 112.74414062 307.42382812 C117.70445572 307.41277683 122.66471532 307.39550095 127.625 307.375 C127.34568411 305.41218471 127.34568411 305.41218471 126.625 303.375 C124.31568155 302.1977004 122.23792588 301.34254331 119.80078125 300.5234375 C119.09166092 300.27201996 118.38254059 300.02060242 117.65193176 299.76156616 C115.31665848 298.94354655 112.9731639 298.15520655 110.625 297.375 C109.83140076 297.11046021 109.03780151 296.84592041 108.22015381 296.57336426 C103.27611482 294.93700342 98.31684477 293.35279874 93.34741211 291.79541016 C90.76791472 290.98600994 88.19152554 290.16719779 85.61523438 289.34765625 C83.96632045 288.82757107 82.3172383 288.30801883 80.66796875 287.7890625 C79.90244186 287.54539948 79.13691498 287.30173645 78.34819031 287.0506897 C75.3334897 286.11137814 72.80256139 285.375 69.625 285.375 Z M-54.375 292.375 C-56.10580162 294.47563102 -57.78203809 296.59129589 -59.4375 298.75 C-59.90994141 299.35328125 -60.38238281 299.9565625 -60.86914062 300.578125 C-63.49526695 303.62545551 -63.49526695 303.62545551 -64.375 307.375 C-60.415 307.375 -56.455 307.375 -52.375 307.375 C-52.705 302.425 -53.035 297.475 -53.375 292.375 C-53.705 292.375 -54.035 292.375 -54.375 292.375 Z M31.5625 294.1875 C21.61411415 300.95815105 11.06076374 301.55487621 -0.6875 301.5625 C-1.66912109 301.57474609 -2.65074219 301.58699219 -3.66210938 301.59960938 C-15.74585796 301.62360093 -27.19024707 299.16483529 -37.375 292.375 C-37.40230408 293.93740032 -37.42153226 295.4999427 -37.4375 297.0625 C-37.44910156 297.93261719 -37.46070313 298.80273438 -37.47265625 299.69921875 C-37.43152358 302.78667679 -37.43152358 302.78667679 -36.375 307.375 C-12.285 307.375 11.805 307.375 36.625 307.375 C37.5480348 303.68286078 37.72846196 300.89350046 37.6875 297.125 C37.67847656 296.04734375 37.66945313 294.9696875 37.66015625 293.859375 C37.64855469 293.03953125 37.63695312 292.2196875 37.625 291.375 C34.86476118 291.375 33.78634263 292.57550825 31.5625 294.1875 Z M53.625 292.375 C53.13 299.8 53.13 299.8 52.625 307.375 C56.585 307.375 60.545 307.375 64.625 307.375 C62.83361985 303.7922397 60.91291703 300.8498916 58.5625 297.625 C57.84964844 296.64015625 57.13679687 295.6553125 56.40234375 294.640625 C55.81582031 293.89296875 55.22929687 293.1453125 54.625 292.375 C54.295 292.375 53.965 292.375 53.625 292.375 Z M156.625 393.375 C157.625 395.375 157.625 395.375 157.625 395.375 Z M-156.375 397.375 C-154.98485176 405.19645544 -152.99104556 412.81492637 -150.86108398 420.46459961 C-150.305152 422.46392597 -149.75677018 424.46522502 -149.20898438 426.46679688 C-148.08315832 432.32667593 -148.08315832 432.32667593 -145.375 437.375 C-142.92669574 437.46343793 -140.50679401 437.49028752 -138.05859375 437.47265625 C-137.32753922 437.4712413 -136.59648468 437.46982635 -135.84327698 437.46836853 C-133.49964368 437.46275408 -131.15610461 437.45019922 -128.8125 437.4375 C-127.22721492 437.43248686 -125.64192834 437.42792363 -124.05664062 437.42382812 C-120.1627239 437.41277997 -116.26887795 437.39550572 -112.375 437.375 C-113.93198734 429.7684681 -116.08319802 422.4151419 -118.375 415 C-118.90867187 413.23849609 -118.90867187 413.23849609 -119.453125 411.44140625 C-119.79859375 410.31863281 -120.1440625 409.19585937 -120.5 408.0390625 C-120.81195313 407.02279785 -121.12390625 406.0065332 -121.4453125 404.95947266 C-122.32448173 402.19043171 -122.32448173 402.19043171 -124.375 399.375 C-127.33039405 398.87966233 -127.33039405 398.87966233 -130.80859375 398.8984375 C-132.09701172 398.8675 -133.38542969 398.8365625 -134.71289062 398.8046875 C-136.07941677 398.78570115 -137.44595376 398.7674804 -138.8125 398.75 C-141.47806093 398.70188632 -144.14322198 398.64454637 -146.80859375 398.5859375 C-147.99509521 398.56837402 -149.18159668 398.55081055 -150.40405273 398.53271484 C-153.375 398.375 -153.375 398.375 -156.375 397.375 Z M155.625 395.375 C155.295 396.365 154.965 397.355 154.625 398.375 C139.28 398.87 139.28 398.87 123.625 399.375 C122.3875 403.04625 121.15 406.7175 119.875 410.5 C119.49375977 411.6255127 119.11251953 412.75102539 118.71972656 413.91064453 C116.11205567 421.69228678 113.88592513 429.46176205 111.625 437.375 C122.845 437.375 134.065 437.375 145.625 437.375 C147.97404299 429.37921906 150.31461874 421.38193106 152.625 413.375 C152.99141602 412.1075293 152.99141602 412.1075293 153.36523438 410.81445312 C153.96218617 408.73318876 154.5467875 406.64903485 155.125 404.5625 C155.4446875 403.42167969 155.764375 402.28085937 156.09375 401.10546875 C156.87226344 398.29747542 156.87226344 398.29747542 155.625 395.375 Z " fill="#000000" transform="translate(255.375,-0.375)"/>
<path d="M0 0 C3 4 3 4 9 26 C26.82 26.33 44.64 26.66 63 27 C63 20.07 63 13.14 63 6 C66 1 66 1 69 -1 C73.87997262 -0.7385729 75.46603949 -0.53396051 79 3 C79 10.92 79 18.84 79 27 C97.81 27 116.62 27 136 27 C136.33 24.69 136.66 22.38 137 20 C137.58393206 17.44858514 138.20990871 14.90647151 138.875 12.375 C139.20242188 11.10398437 139.52984375 9.83296875 139.8671875 8.5234375 C140.92469588 5.23422179 141.90828172 2.7415725 144 0 C146.65364008 -1.25464991 149.10180415 -1.37214188 152 -1 C155 1 155 1 157 4 C157.41996012 9.36105339 156.47685311 13.85333337 155 18.9375 C154.80921875 19.62134766 154.6184375 20.30519531 154.421875 21.00976562 C153.95595063 22.67544526 153.47911589 24.33806675 153 26 C153.95261719 26.01417969 154.90523437 26.02835937 155.88671875 26.04296875 C167.41741899 26.48144348 167.41741899 26.48144348 170.375 29.1875 C172.30281734 32.52410693 172.64524143 34.20920657 172 38 C170.22015595 41.1359157 169.47691793 41.84102736 166 43 C164.59175107 43.08021999 163.18002769 43.10765977 161.76953125 43.09765625 C160.96708984 43.09443359 160.16464844 43.09121094 159.33789062 43.08789062 C158.50451172 43.07951172 157.67113281 43.07113281 156.8125 43.0625 C155.96751953 43.05798828 155.12253906 43.05347656 154.25195312 43.04882812 C152.16793845 43.03705403 150.08396023 43.0191189 148 43 C147.73445312 44.14597656 147.46890625 45.29195313 147.1953125 46.47265625 C146.83863258 48.00262536 146.48185663 49.53257209 146.125 51.0625 C145.95097656 51.81466797 145.77695312 52.56683594 145.59765625 53.34179688 C144.52335236 57.93743017 143.33465943 62.47297949 142 67 C142.95261719 66.94199219 143.90523437 66.88398438 144.88671875 66.82421875 C156.42018736 66.40934578 156.42018736 66.40934578 159.4375 69.0625 C161.48562148 72.91296839 161.22685696 74.85935777 160 79 C158.42114034 81.05938216 157.30857577 81.84571211 155 83 C153.62451844 83.08308638 152.24514204 83.10736016 150.8671875 83.09765625 C150.06152344 83.09443359 149.25585938 83.09121094 148.42578125 83.08789062 C147.16314453 83.07532227 147.16314453 83.07532227 145.875 83.0625 C145.02550781 83.05798828 144.17601562 83.05347656 143.30078125 83.04882812 C141.20049091 83.03702874 139.1002367 83.01909306 137 83 C136.90203125 83.64324219 136.8040625 84.28648437 136.703125 84.94921875 C135.44853532 92.53083396 133.38984279 99.70285865 131 107 C131.96421875 106.95359375 132.9284375 106.9071875 133.921875 106.859375 C135.18515625 106.82328125 136.4484375 106.7871875 137.75 106.75 C139.00296875 106.70359375 140.2559375 106.6571875 141.546875 106.609375 C145 107 145 107 147.42578125 108.796875 C149.7024252 111.98304668 149.47778994 114.17768049 149 118 C147.73169377 120.40978183 146.97335209 121.66073064 144.375 122.56640625 C141.01889008 123.17911711 137.65021938 123.36645711 134.25 123.5625 C133.55261719 123.60568359 132.85523438 123.64886719 132.13671875 123.69335938 C130.42468078 123.79889596 128.71236439 123.8998991 127 124 C126.81207886 124.82407349 126.81207886 124.82407349 126.62036133 125.66479492 C126.03631981 128.1771005 125.42473106 130.68192156 124.8125 133.1875 C124.61591797 134.05181641 124.41933594 134.91613281 124.21679688 135.80664062 C122.88320198 141.16153704 121.56067117 144.52284233 117 148 C113.65159302 148.54667869 111.78714046 148.34038506 108.6875 147 C105.88384523 143.6771499 106 141.34946333 106 137 C107.32 132.38 108.64 127.76 110 123 C99.77 123 89.54 123 79 123 C79.19730881 129.7319818 79.19730881 129.7319818 79.45043945 136.46191406 C79.55258601 143.35515942 79.55258601 143.35515942 76.70703125 146.67578125 C73.02524173 148.47682981 70.90277181 148.08410328 67 147 C64.41544715 145.10466125 64.03724494 144.11173483 63 141 C62.91978001 139.59175107 62.89234023 138.18002769 62.90234375 136.76953125 C62.90484131 136.04612549 62.90733887 135.32271973 62.90991211 134.57739258 C62.91901611 133.66497803 62.92812012 132.75256348 62.9375 131.8125 C62.958125 128.904375 62.97875 125.99625 63 123 C53.76 123.33 44.52 123.66 35 124 C35.99 127.96 36.98 131.92 38 136 C38.59243542 140.66542892 38.63464835 142.12269198 35.875 145.9375 C33 148 33 148 29.9375 148.5625 C26.20867599 147.84846987 25.35962969 146.9622856 23 144 C21.82672946 141.23253674 21.03254354 138.39885626 20.25 135.5 C20.02957031 134.74074219 19.80914062 133.98148438 19.58203125 133.19921875 C18.5574876 129.56558877 18 126.83917626 18 123 C17.11957031 123.02320313 16.23914063 123.04640625 15.33203125 123.0703125 C14.17058594 123.08835937 13.00914062 123.10640625 11.8125 123.125 C10.66394531 123.14820313 9.51539063 123.17140625 8.33203125 123.1953125 C3.93181909 122.93738682 1.13095049 122.13095049 -2 119 C-3.25093792 115.53586421 -3.08984387 114.22247052 -1.6875 110.75 C0 108 0 108 2 107 C3.87379605 106.92966231 5.75001102 106.9156978 7.625 106.9375 C9.12933594 106.95103516 9.12933594 106.95103516 10.6640625 106.96484375 C11.43492187 106.97644531 12.20578125 106.98804688 13 107 C12.81824219 106.34402832 12.63648438 105.68805664 12.44921875 105.01220703 C11.63017573 102.05052648 10.81504102 99.08778425 10 96.125 C9.71382812 95.09246094 9.42765625 94.05992187 9.1328125 92.99609375 C8.86210937 92.00996094 8.59140625 91.02382813 8.3125 90.0078125 C8.06113281 89.09660645 7.80976563 88.18540039 7.55078125 87.24658203 C7 85 7 85 7 83 C5.46279297 83.05220703 5.46279297 83.05220703 3.89453125 83.10546875 C2.53387064 83.13362035 1.1731922 83.16091904 -0.1875 83.1875 C-0.86103516 83.21263672 -1.53457031 83.23777344 -2.22851562 83.26367188 C-6.69751197 83.32907182 -9.45618488 82.75630065 -13 80 C-14.54586876 76.90826248 -14.29359521 74.40570448 -14 71 C-11.8209797 68.08418866 -10.58258059 67.11772354 -6.984375 66.390625 C-5.91703125 66.34421875 -4.8496875 66.2978125 -3.75 66.25 C-2.13351563 66.16492188 -2.13351563 66.16492188 -0.484375 66.078125 C0.33546875 66.05234375 1.1553125 66.0265625 2 66 C1.84853516 65.44538086 1.69707031 64.89076172 1.54101562 64.31933594 C0.85547596 61.79760466 0.17766852 59.27385734 -0.5 56.75 C-0.73847656 55.87730469 -0.97695312 55.00460937 -1.22265625 54.10546875 C-1.44824219 53.26113281 -1.67382812 52.41679687 -1.90625 51.546875 C-2.22045898 50.38430176 -2.22045898 50.38430176 -2.54101562 49.19824219 C-3 47 -3 47 -3 43 C-4.16917969 43.05800781 -5.33835938 43.11601562 -6.54296875 43.17578125 C-8.0911058 43.22269449 -9.63928617 43.26819298 -11.1875 43.3125 C-12.34088867 43.3753418 -12.34088867 43.3753418 -13.51757812 43.43945312 C-17.80529056 43.53146412 -19.48472522 43.39297221 -23.01171875 40.703125 C-25 38 -25 38 -25.625 34.4375 C-25 31 -25 31 -23.25 28.5625 C-18.28218657 26.17412816 -13.41833171 26.68889961 -8 27 C-8.37253906 25.77023437 -8.74507812 24.54046875 -9.12890625 23.2734375 C-9.60743243 21.64081877 -10.0852603 20.00799525 -10.5625 18.375 C-10.80935547 17.56675781 -11.05621094 16.75851562 -11.31054688 15.92578125 C-12.65275802 11.2753032 -13.42820074 7.77980749 -12 3 C-8.69167681 -1.96248478 -5.44333401 -1.26363111 0 0 Z M13 43 C15.81164914 55.04903701 15.81164914 55.04903701 19 67 C33.52 67 48.04 67 63 67 C63 59.08 63 51.16 63 43 C46.5 43 30 43 13 43 Z M79 43 C79 50.92 79 58.84 79 67 C94.18 67 109.36 67 125 67 C129.13270423 55.15864083 129.13270423 55.15864083 131 43 C113.84 43 96.68 43 79 43 Z M24 83 C25.85752088 94.44935723 25.85752088 94.44935723 30 107 C40.89 107 51.78 107 63 107 C63 99.08 63 91.16 63 83 C50.13 83 37.26 83 24 83 Z M79 83 C79 90.92 79 98.84 79 107 C90.88 107 102.76 107 115 107 C116.98 99.08 118.96 91.16 121 83 C107.14 83 93.28 83 79 83 Z " fill="#000000" transform="translate(178,336)"/>
<path d="M0 0 C2.38863179 1.62765175 4.56953993 3.38109876 6.75390625 5.2734375 C10.85209099 8.42369429 14.70096663 9.46289642 19.88671875 9.31640625 C25.1162128 8.53343209 29.2883881 5.75690306 33.125 2.25 C36 0 36 0 39.0625 -0.625 C43.0924485 0.23243585 44.56929333 1.71139686 47 5 C47.75 7.8125 47.75 7.8125 47 11 C42.67262833 18.29512995 35.74442041 22.05120224 28 25 C18.33450752 26.98112579 8.02494388 26.62570917 -0.62890625 21.41796875 C-10.53819171 13.92478584 -10.53819171 13.92478584 -11.5625 7.4375 C-11 4 -11 4 -8.875 1.5625 C-5.31452885 -0.37253867 -3.99405209 -0.84489563 0 0 Z " fill="#000000" transform="translate(238,202)"/>
<path d="M0 0 C2.375 1.625 2.375 1.625 4 4 C4.61195145 7.6717087 4.48706506 9.28813568 2.375 12.375 C-0.71186432 14.48706506 -2.3282913 14.61195145 -6 14 C-8.375 12.375 -8.375 12.375 -10 10 C-10.61195145 6.3282913 -10.48706506 4.71186432 -8.375 1.625 C-5.28813568 -0.48706506 -3.6717087 -0.61195145 0 0 Z " fill="#000000" transform="translate(286,162)"/>
<path d="M0 0 C2.375 1.625 2.375 1.625 4 4 C4.61195145 7.6717087 4.48706506 9.28813568 2.375 12.375 C-0.71186432 14.48706506 -2.3282913 14.61195145 -6 14 C-8.375 12.375 -8.375 12.375 -10 10 C-10.61195145 6.3282913 -10.48706506 4.71186432 -8.375 1.625 C-5.28813568 -0.48706506 -3.6717087 -0.61195145 0 0 Z " fill="#000000" transform="translate(226,162)"/>
</svg>
