<?xml version="1.0" encoding="UTF-8"?>
<svg version="1.1" xmlns="http://www.w3.org/2000/svg" width="512" height="512">
<path d="M0 0 C1.15847946 -0.00101212 1.15847946 -0.00101212 2.34036255 -0.00204468 C13.39698448 0.01314631 24.36528415 0.40716956 35.375 1.4375 C36.57584229 1.53836914 37.77668457 1.63923828 39.01391602 1.74316406 C48.03776884 2.71701306 48.03776884 2.71701306 51.18359375 5.609375 C53.90065398 9.70009374 53.70503582 11.41452432 52.9375 16.25 C50.02816061 19.47763564 48.53006387 20.21758939 44.15234375 20.45703125 C42.72471222 20.34741662 41.29866085 20.21526433 39.875 20.0625 C39.18728516 20.00513672 38.49957031 19.94777344 37.79101562 19.88867188 C34.62937071 19.62014861 31.47302398 19.30502403 28.31665039 18.98071289 C19.37973549 18.13413844 10.46789969 18.048863 1.5 18.0625 C0.70314789 18.06343658 -0.09370422 18.06437317 -0.91470337 18.06533813 C-47.26493721 17.90708093 -47.26493721 17.90708093 -88.0625 36.25 C-88.87700989 38.84762837 -88.87700989 38.84762837 -89.0625 41.25 C-70.3598412 53.53549371 -48.05000883 57.38149628 -26.0625 59.25 C-24.79921875 59.36085937 -23.5359375 59.47171875 -22.234375 59.5859375 C10.89353038 62.06717738 62.06620084 64.175422 89.9375 42.25 C90.86178724 39.64061148 90.86178724 39.64061148 90.9375 37.25 C84.59350169 32.18593118 77.71218286 29.40345697 70.14697266 26.69897461 C69.3894873 26.4231958 68.63200195 26.14741699 67.8515625 25.86328125 C67.1704541 25.62391846 66.4893457 25.38455566 65.78759766 25.13793945 C63.66731322 24.12032604 62.43626343 23.05628086 60.9375 21.25 C59.84304454 17.65393206 59.61783526 15.95326243 61.1875 12.5 C62.9375 10.25 62.9375 10.25 65.9375 8.25 C79.29512293 8.25 93.70490867 15.04399908 103.0625 24.3671875 C108.10402097 29.9169263 109.08658311 33.67327884 109.09812927 41.14297485 C109.10321709 41.95589851 109.10830491 42.76882216 109.11354691 43.60637987 C109.12928694 46.33996117 109.13780059 49.073516 109.14624023 51.80712891 C109.15577751 53.76338876 109.16566861 55.71964691 109.17588806 57.67590332 C109.20728992 64.10943598 109.22754278 70.54298163 109.24609375 76.9765625 C109.24939107 78.07106704 109.25268839 79.16557158 109.25608563 80.29324293 C109.2868688 90.61560686 109.31357674 100.93797368 109.33050442 111.26037025 C109.35240951 124.46329297 109.39437536 137.66580892 109.46394199 150.86856902 C109.51119536 160.15191825 109.53543986 169.43515779 109.5427013 178.71862352 C109.54765579 184.26292567 109.56271783 189.80676949 109.6024456 195.3509407 C109.63934822 200.56970567 109.64770951 205.78775124 109.63443947 211.00662231 C109.63449336 212.91859186 109.64476547 214.83059359 109.6661911 216.74244308 C109.85128552 234.19658305 109.85128552 234.19658305 104.44827366 240.74617577 C81.68151712 263.40820724 37.57197073 265.24786534 7.4375 265.625 C6.2736377 265.65102295 5.10977539 265.6770459 3.91064453 265.70385742 C-4.20007181 265.72117015 -4.20007181 265.72117015 -8.30859375 263.4765625 C-10.68765454 260.45637397 -10.72401872 258.86130455 -10.49609375 255.15234375 C-9.83907726 252.26975787 -8.39712725 250.96663768 -6.0625 249.25 C-3.64751269 248.04250634 -2.04652515 248.09385932 0.65234375 248.0390625 C1.63493164 248.01295898 2.61751953 247.98685547 3.62988281 247.95996094 C4.70077148 247.93192383 5.77166016 247.90388672 6.875 247.875 C50.67205662 246.73279481 50.67205662 246.73279481 89.9375 229.25 C91.96100324 226.21474514 92.25874018 225.05573798 92.5625 221.5625 C92.63726562 220.75425781 92.71203125 219.94601562 92.7890625 219.11328125 C92.86253906 218.19095703 92.86253906 218.19095703 92.9375 217.25 C92.13570312 217.62511719 91.33390625 218.00023437 90.5078125 218.38671875 C65.01753993 229.86023146 36.70872615 233.31245895 8.9375 233.5625 C7.83277344 233.59150391 6.72804688 233.62050781 5.58984375 233.65039062 C4.52894531 233.65876953 3.46804688 233.66714844 2.375 233.67578125 C0.94994141 233.69765503 0.94994141 233.69765503 -0.50390625 233.7199707 C-3.81024942 233.11265099 -4.98283887 231.83043705 -7.0625 229.25 C-7.99116509 225.50609033 -7.56624653 222.18552926 -5.75 218.8125 C-2.89988815 216.17350755 -0.10525203 216.11744131 3.6015625 216.0390625 C4.54596191 216.01295898 5.49036133 215.98685547 6.46337891 215.95996094 C7.48608887 215.93192383 8.50879883 215.90388672 9.5625 215.875 C52.82304048 214.86088457 52.82304048 214.86088457 90.83984375 196.97265625 C92.93568171 193.6834586 92.99682327 190.06363855 92.9375 186.25 C91.75220703 186.81267578 91.75220703 186.81267578 90.54296875 187.38671875 C63.91438435 199.4684879 34.23896932 202.28968821 5.3125 202.625 C4.04889648 202.65102295 2.78529297 202.6770459 1.48339844 202.70385742 C0.30036133 202.70619385 -0.88267578 202.70853027 -2.1015625 202.7109375 C-3.68251709 202.72326416 -3.68251709 202.72326416 -5.29541016 202.73583984 C-8.75721979 202.12802255 -9.90313578 200.9646829 -12.0625 198.25 C-13.40800036 194.84139909 -13.16766178 193.53227635 -11.875 190.0625 C-9.94828742 187.07277359 -9.27978312 186.46324091 -6.0625 185.25 C-3.45068359 184.97875977 -3.45068359 184.97875977 -0.4609375 184.94140625 C1.21440063 184.90708496 1.21440063 184.90708496 2.92358398 184.87207031 C4.12442627 184.85241211 5.32526855 184.83275391 6.5625 184.8125 C50.51985522 183.8082058 50.51985522 183.8082058 89.9375 166.25 C91.99675681 163.16111478 92.1765374 162.54064073 92.0625 159.0625 C92.02125 157.804375 91.98 156.54625 91.9375 155.25 C90.9475 155.806875 89.9575 156.36375 88.9375 156.9375 C71.9936348 165.33524755 51.61340441 168.56802726 32.9375 170.25 C31.96498291 170.33830078 30.99246582 170.42660156 29.99047852 170.51757812 C20.94526161 171.25431036 11.95581041 171.40469712 2.88500977 171.38037109 C0.47861596 171.37495184 -1.92759575 171.38038422 -4.33398438 171.38671875 C-5.88802124 171.38605877 -7.44205799 171.38477928 -8.99609375 171.3828125 C-9.70350204 171.38483673 -10.41091034 171.38686096 -11.13975525 171.38894653 C-22.36753399 171.33651668 -22.36753399 171.33651668 -26.5 168.6875 C-28.72790643 165.21196597 -28.86266627 162.26732963 -28.0625 158.25 C-26.5 155.8125 -26.5 155.8125 -24.0625 154.25 C-19.10131641 153.31542297 -14.27192939 153.13787098 -9.2421875 153.22265625 C-7.73283427 153.23731208 -6.22347512 153.2513683 -4.71411133 153.26489258 C-3.93403717 153.27324127 -3.15396301 153.28158997 -2.35025024 153.29019165 C26.70598127 153.5588463 65.78482843 153.86026904 89.9375 135.25 C91.99675681 132.16111478 92.1765374 131.54064073 92.0625 128.0625 C92.02125 126.804375 91.98 125.54625 91.9375 124.25 C91.04224609 124.70439453 91.04224609 124.70439453 90.12890625 125.16796875 C42.21844657 148.3045206 -27.80576436 146.2573349 -77.44921875 129.94921875 C-88.33193784 126.10679051 -99.58952686 120.87421267 -105.61929321 110.59643555 C-107.2755296 106.75603764 -107.44292389 104.04286852 -107.45068359 99.87109375 C-107.45594055 99.15809113 -107.46119751 98.4450885 -107.46661377 97.71047974 C-107.47974564 95.36925923 -107.47110039 93.02872662 -107.4609375 90.6875 C-107.4629602 89.05134959 -107.46587328 87.41520007 -107.46963501 85.77905273 C-107.47404912 82.35619492 -107.46765688 78.93357256 -107.45361328 75.51074219 C-107.4365218 71.13267777 -107.4463679 66.75516516 -107.46433067 62.37712097 C-107.4751933 59.00040562 -107.47171084 55.62382018 -107.4639473 52.24710083 C-107.46195213 50.6332289 -107.46438046 49.01934502 -107.47138596 47.40548706 C-107.47904153 45.14631092 -107.46733998 42.88801702 -107.45068359 40.62890625 C-107.44829681 39.3457251 -107.44591003 38.06254395 -107.44345093 36.74047852 C-106.7183608 30.09681042 -103.29682466 25.74334903 -98.60546875 21.265625 C-73.08028111 1.03367904 -30.88282288 0.0244559 0 0 Z M-91.0625 61.25 C-91.17183628 62.64403756 -91.24869553 64.04063776 -91.3125 65.4375 C-91.35890625 66.21480469 -91.4053125 66.99210937 -91.453125 67.79296875 C-90.90763655 71.22409112 -89.45358252 72.76945521 -87.0625 75.25 C-50.83337102 100.15752617 11.93389059 95.62069127 52.78198242 88.05908203 C59.39774286 86.72100942 65.8291057 84.95113866 72.25 82.875 C73.09127441 82.60727783 73.93254883 82.33955566 74.79931641 82.0637207 C81.73215474 79.68407079 88.78133769 76.48424347 92.9375 70.25 C93.17857326 67.96351152 93.17857326 67.96351152 93.0625 65.5625 C93.04445313 64.75425781 93.02640625 63.94601563 93.0078125 63.11328125 C92.98460937 62.49839844 92.96140625 61.88351563 92.9375 61.25 C91.80957031 61.69730469 90.68164062 62.14460938 89.51953125 62.60546875 C35.47849918 83.56810782 -34.19085105 84.01910623 -88.0625 62.25 C-89.0525 61.92 -90.0425 61.59 -91.0625 61.25 Z M-91.0625 92.25 C-91.17183628 93.64403756 -91.24869553 95.04063776 -91.3125 96.4375 C-91.35890625 97.21480469 -91.4053125 97.99210937 -91.453125 98.79296875 C-90.9024056 102.25699378 -89.50200555 103.75816182 -87.0625 106.25 C-49.04292138 131.10490458 13.6519006 127.06596907 56.1328125 118.27636719 C68.6430319 115.54420486 82.00014003 112.53762033 91.703125 103.62890625 C93.60847349 99.9568897 93.17158742 96.30751528 92.9375 92.25 C91.88175781 92.69730469 90.82601562 93.14460938 89.73828125 93.60546875 C70.68723229 101.46939962 51.37582996 105.11226656 30.9375 107.25 C29.70644531 107.38277344 28.47539062 107.51554687 27.20703125 107.65234375 C23.45002699 107.97386932 19.70548677 108.15035459 15.9375 108.25 C14.93493164 108.27723145 13.93236328 108.30446289 12.89941406 108.33251953 C-22.4583799 109.13450088 -58.2890582 106.56769049 -91.0625 92.25 Z " fill="#000000" transform="translate(403.0625,157.75)"/>
<path d="M0 0 C23.61901734 5.99465503 45.28512152 1.43276992 68.56811523 -3.86035156 C75.5585042 -5.42107529 82.37643718 -6.49777491 89.52636719 -6.93017578 C90.45505615 -6.98923096 91.38374512 -7.04828613 92.34057617 -7.10913086 C99.02348551 -7.4663625 102.26218836 -5.74412305 107.33886719 -1.36767578 C111.13420159 3.22667639 109.99750539 10.54831428 109.52636719 16.06982422 C105.10642189 38.542018 91.43371277 59.90142819 80.11328125 79.51855469 C79.65791992 80.31664551 79.20255859 81.11473633 78.73339844 81.93701172 C78.11235229 83.01378174 78.11235229 83.01378174 77.47875977 84.11230469 C76.34009717 86.18129396 76.34009717 86.18129396 76.15136719 89.19482422 C78.38837708 93.87220855 82.35193031 96.1465154 86.52636719 99.06982422 C103.00708298 111.09378306 117.84727872 124.00106405 130.52636719 140.06982422 C131.71552734 141.53355469 131.71552734 141.53355469 132.92871094 143.02685547 C155.39593657 171.24398719 155.39593657 171.24398719 155.58886719 182.81982422 C154.27325247 186.84405748 153.30135821 188.14216923 149.52636719 190.06982422 C144.56090426 190.46390858 144.56090426 190.46390858 141.52636719 189.06982422 C138.92376832 186.42179345 137.29182732 183.3161363 135.52636719 180.06982422 C134.26001019 177.79632188 132.99076602 175.52488295 131.71386719 173.25732422 C131.37798584 172.65855469 131.04210449 172.05978516 130.69604492 171.44287109 C127.16176584 165.24477582 122.95538598 159.65791032 118.52636719 154.06982422 C117.87539062 153.21388672 117.22441406 152.35794922 116.55371094 151.47607422 C104.99524779 136.68836799 91.21026604 124.10804479 75.78808594 113.49169922 C75.1605542 113.055271 74.53302246 112.61884277 73.88647461 112.16918945 C72.69333464 111.34374769 71.49222473 110.52964222 70.28149414 109.73022461 C64.29606838 105.62002702 60.12786833 100.20378385 58.52636719 93.06982422 C58.43887762 90.39964247 58.49621484 87.74241845 58.52636719 85.06982422 C57.46854034 85.08314789 57.46854034 85.08314789 56.38934326 85.09674072 C49.73897011 85.17693345 43.08873213 85.23781203 36.43798447 85.27707291 C33.01883038 85.29793622 29.60007625 85.32622927 26.18115234 85.37158203 C22.24939788 85.4234104 18.31780461 85.44278 14.38574219 85.46044922 C12.54650177 85.49141693 12.54650177 85.49141693 10.67010498 85.52301025 C9.52922424 85.52331238 8.38834351 85.5236145 7.21289062 85.52392578 C6.20917419 85.53280823 5.20545776 85.54169067 4.17132568 85.55084229 C0.78623828 84.93522272 -0.36630058 83.7364434 -2.47363281 81.06982422 C-3.62059219 77.47601818 -3.78995582 75.8023617 -2.28613281 72.31982422 C-0.33579032 69.8987094 0.66245091 69.16877598 3.52636719 68.06982422 C6.39910889 67.82931519 6.39910889 67.82931519 9.76367188 67.84277344 C11.65517975 67.84300003 11.65517975 67.84300003 13.5848999 67.8432312 C14.95601561 67.85344366 16.3271297 67.86387564 17.69824219 67.87451172 C19.10499877 67.87824365 20.51175795 67.88108977 21.91851807 67.88308716 C25.61422958 67.89070946 29.30978294 67.91034577 33.00543213 67.93249512 C36.77931581 67.95298386 40.55322513 67.96209534 44.32714844 67.97216797 C51.72695998 67.9935931 59.12664139 68.02771196 66.52636719 68.06982422 C66.82779633 67.29921158 67.12922546 66.52859894 67.43978882 65.7346344 C68.6034697 62.88073196 69.99481515 60.28461049 71.50292969 57.59716797 C79.9795994 42.30296733 87.94353056 27.03081273 92.52636719 10.06982422 C84.69370686 11.19840108 77.00025438 12.80205042 69.27636719 14.50732422 C60.05368046 16.53901229 50.83768583 18.48468307 41.52636719 20.06982422 C40.36621094 20.26898438 40.36621094 20.26898438 39.18261719 20.47216797 C20.3962009 23.10949179 2.4046753 19.70536264 -15.68701172 14.91796875 C-25.47513487 12.41323172 -35.45062431 11.22422408 -45.47363281 10.06982422 C-40.80916504 31.45811548 -29.6869605 50.69110622 -17.80175781 68.87817383 C-12.8476282 76.5921767 -10.27208151 82.81246114 -10.47363281 92.06982422 C-9.77063553 92.06094177 -9.06763824 92.05205933 -8.34333801 92.04290771 C-1.70799283 91.96265427 4.92721628 91.9018056 11.56293774 91.86257553 C14.97421717 91.84172846 18.38509453 91.81346525 21.79614258 91.76806641 C25.72049088 91.71616462 29.64467815 91.696855 33.56933594 91.67919922 C34.79033493 91.65855408 36.01133392 91.63790894 37.26933289 91.61663818 C38.41013809 91.61633606 39.5509433 91.61603394 40.72631836 91.61572266 C41.72781418 91.60684021 42.72931 91.59795776 43.76115417 91.58880615 C47.32568915 92.20886895 48.98512205 93.53520044 51.52636719 96.06982422 C52.46241932 99.56441884 52.90062109 101.9158747 51.77636719 105.38232422 C50.52636719 107.06982422 50.52636719 107.06982422 47.52636719 109.06982422 C44.62684631 109.29446411 44.62684631 109.29446411 41.04223633 109.26171875 C40.06099792 109.25751167 40.06099792 109.25751167 39.05993652 109.2532196 C37.63908148 109.24672314 36.21824061 109.23613858 34.79744148 109.22195816 C32.53798817 109.20243334 30.27916676 109.20029825 28.01963806 109.2038269 C21.59507635 109.21349681 15.17111977 109.21437374 8.74682617 109.14892578 C4.81358165 109.11013227 0.88196764 109.11100003 -3.05136299 109.13650131 C-4.54030642 109.13889417 -6.0293516 109.1270769 -7.51804924 109.09991837 C-18.30905593 108.91128931 -25.04792212 111.15211262 -33.47363281 118.06982422 C-34.35796494 118.74409454 -35.24229706 119.41836487 -36.15342712 120.11306763 C-77.34501767 151.5234264 -102.79791904 201.47722997 -114.47363281 251.06982422 C-114.65152344 251.7970166 -114.82941406 252.52420898 -115.01269531 253.2734375 C-117.47313229 263.67903554 -117.77517441 274.10315273 -117.84863281 284.75732422 C-117.86265137 286.03986084 -117.87666992 287.32239746 -117.89111328 288.64379883 C-117.83103921 300.67170634 -115.92311606 312.30304283 -111.78613281 323.63232422 C-111.533396 324.33357422 -111.28065918 325.03482422 -111.02026367 325.75732422 C-106.9574146 336.5622802 -100.97723967 346.30228359 -93.47363281 355.06982422 C-92.796875 355.87935547 -92.12011719 356.68888672 -91.42285156 357.52294922 C-69.08897856 383.38739895 -35.64046589 396.44576223 -2.47363281 401.06982422 C-1.82410645 401.16263672 -1.17458008 401.25544922 -0.50537109 401.35107422 C8.01856886 402.44607418 16.63610517 402.38044001 25.21777344 402.49951172 C26.46945313 402.53044922 27.72113281 402.56138672 29.01074219 402.59326172 C30.1422168 402.61308105 31.27369141 402.63290039 32.43945312 402.65332031 C35.85546431 403.11422786 37.7714986 404.03082203 40.52636719 406.06982422 C42.09337161 409.20383306 42.3780128 412.70137517 41.52636719 416.06982422 C37.80489427 419.71904378 35.37232374 420.57989789 30.20605469 420.60107422 C28.34025757 420.61352173 28.34025757 420.61352173 26.43676758 420.6262207 C25.09160206 420.60987582 23.74646511 420.5910143 22.40136719 420.56982422 C21.71541473 420.56395294 21.02946228 420.55808167 20.32272339 420.55203247 C-19.88518053 420.15080945 -60.70447045 408.86235816 -91.47363281 382.06982422 C-92.90255859 380.85746094 -92.90255859 380.85746094 -94.36035156 379.62060547 C-117.12437278 359.88591912 -131.7447882 331.92785584 -135.47363281 302.06982422 C-136.25908506 284.45189222 -136.61657059 266.29211928 -132.47363281 249.06982422 C-132.24256836 248.09174805 -132.01150391 247.11367188 -131.7734375 246.10595703 C-120.22683967 198.27835117 -97.09851619 155.86405491 -63.47363281 120.06982422 C-62.89226562 119.43431641 -62.31089844 118.79880859 -61.71191406 118.14404297 C-53.36172126 109.33111907 -43.08021402 102.18592996 -32.80175781 95.82373047 C-30.32723294 93.95953304 -29.31331691 93.03563151 -28.47363281 90.06982422 C-28.56613551 84.21692638 -31.64086262 80.2571049 -34.78613281 75.56982422 C-64.81707712 29.33696088 -64.81707712 29.33696088 -62.47363281 4.06982422 C-61.30910346 -0.30084606 -58.85890506 -3.01582224 -55.03613281 -5.36767578 C-39.47303152 -11.95643399 -15.49114395 -3.94576713 0 0 Z " fill="#000000" transform="translate(135.4736328125,25.93017578125)"/>
<path d="M0 0 C1.09046631 0.00563965 2.18093262 0.0112793 3.30444336 0.01708984 C31.54312319 0.43896791 56.24925707 12.24859277 76.5 31.625 C96.47707067 52.3269281 106.1435913 79.60048196 106.12304688 108.08276367 C105.62163314 132.28246006 96.76861695 156.1234216 80.75 174.3125 C80.07453125 175.13105469 79.3990625 175.94960938 78.703125 176.79296875 C60.77023853 197.90010702 34.84823566 208.57797752 7.75 211.3125 C-18.16180445 213.21931625 -46.13385326 205.43061538 -65.99609375 188.32421875 C-66.73988281 187.66035156 -67.48367187 186.99648438 -68.25 186.3125 C-69.06597656 185.63832031 -69.88195312 184.96414063 -70.72265625 184.26953125 C-90.49305551 167.49372106 -103.03348428 142.08492788 -105.25 116.3125 C-107.33268793 85.99782011 -98.97132894 58.58061058 -79.25 35.3125 C-75.55207454 31.26934631 -72.97735338 28.62918145 -67.5 27.625 C-63.69522496 28.42985626 -62.43785743 29.11486221 -60.25 32.3125 C-59.15556738 35.7417222 -58.80122689 37.43383421 -60.45703125 40.67578125 C-62.40052001 43.53385295 -64.56318995 45.99382217 -66.875 48.5625 C-82.99779806 67.3808609 -88.58839797 90.98339906 -87.25 115.3125 C-85.30609692 135.50279772 -75.4307209 154.08411281 -61.25 168.3125 C-60.51394531 169.07175781 -59.77789062 169.83101562 -59.01953125 170.61328125 C-42.46300624 186.67061455 -19.80693334 193.71029913 2.89453125 193.61523438 C23.32632804 193.15165579 42.12951511 185.27481442 57.75 172.3125 C58.62205078 171.65894531 58.62205078 171.65894531 59.51171875 170.9921875 C75.41411175 158.61130344 85.25953725 136.91034707 87.75 117.3125 C89.24183081 88.60278542 82.37296408 65.18862844 63.0390625 43.3828125 C49.42531497 29.00209328 27.30783695 18.62519789 7.4609375 18.0390625 C-11.19079383 17.61401511 -26.49815681 20.15709158 -42.953125 29.0546875 C-46.89258434 30.55765659 -49.19479666 30.31763587 -53.25 29.3125 C-55.48918419 27.5067063 -56.09945187 26.22896172 -56.5625 23.41015625 C-56.87815395 18.11308837 -56.87815395 18.11308837 -54.65625 15.28125 C-51.75819134 12.9101111 -48.70204294 11.33967572 -45.3125 9.8125 C-44.31996216 9.35967651 -44.31996216 9.35967651 -43.30737305 8.89770508 C-29.35514168 2.68318136 -15.24413584 -0.08352951 0 0 Z " fill="#000000" transform="translate(283.25,281.6875)"/>
<path d="M0 0 C2.96858157 2.20740681 3.82865791 3.48597373 5 7 C5.07051114 9.73865287 5.09357765 12.45027588 5.0625 15.1875 C5.05798828 15.93708984 5.05347656 16.68667969 5.04882812 17.45898438 C5.03706354 19.30602383 5.01912865 21.15302213 5 23 C5.6290625 23.02578125 6.258125 23.0515625 6.90625 23.078125 C15.95452001 23.67770916 22.24414288 26.32076187 28.45703125 33.03125 C33.35742527 39.28390465 34.74089582 45.48350962 34.44921875 53.37890625 C34 56 34 56 31.875 58.75 C28.50783651 60.21398412 26.62984134 60.60497356 23 60 C20.3125 58.6875 20.3125 58.6875 18 56 C17.17622988 53.23028313 16.56300397 50.50288889 16.06640625 47.65625 C14.91612759 44.79108705 13.74191441 43.3052202 11.06665039 41.72802734 C6.37859131 40.07654569 1.34369013 40.4749399 -3.5625 40.5625 C-4.68591797 40.55541016 -5.80933594 40.54832031 -6.96679688 40.54101562 C-12.63001468 40.58476003 -16.26942216 40.61970062 -21 44 C-23.5290797 47.03489564 -24 48.51887435 -24 52.5 C-22.82099095 56.62653166 -21.27023484 58.28809794 -18 61 C-15.2161089 62.39194555 -12.88935513 62.14540204 -9.77734375 62.17578125 C-7.88532227 62.21155273 -7.88532227 62.21155273 -5.95507812 62.24804688 C-3.30368791 62.29429017 -0.65387251 62.32205554 1.99804688 62.34179688 C12.01038356 62.56022939 19.97182187 64.18354554 27.42578125 71.203125 C33.65879876 78.31773556 34.9831926 85.93123831 34.4765625 95.15234375 C33.43238322 103.58280764 29.70519826 109.34368375 23.10546875 114.59375 C17.06149916 118.63053859 12.13136783 119.12628464 5 119 C5.05220703 120.75376953 5.05220703 120.75376953 5.10546875 122.54296875 C5.13361716 124.09113141 5.16091619 125.63930968 5.1875 127.1875 C5.21263672 127.95642578 5.23777344 128.72535156 5.26367188 129.51757812 C5.32400004 134.20306534 5.01158774 137.17307997 2 141 C-0.54229606 142.92863839 -1.78345018 143.00902291 -5 142.875 C-8.65036692 141.81030965 -9.78260966 141.09866086 -12 138 C-12.49282955 134.73689389 -12.37636884 131.54045014 -12.25 128.25 C-12.23195313 127.36183594 -12.21390625 126.47367187 -12.1953125 125.55859375 C-12.14827374 123.37129152 -12.08257009 121.18620184 -12 119 C-12.59530518 119.01957764 -13.19061035 119.03915527 -13.80395508 119.05932617 C-21.78370884 119.21254912 -28.51086222 117.27054319 -34.58203125 111.7265625 C-39.96213034 105.17558785 -43.009478 97.79224463 -42.4453125 89.29296875 C-42 87 -42 87 -40.5 84.3125 C-37.03251135 82.49206846 -33.83670845 82.1682136 -30 83 C-27.1602468 84.56109398 -26.18273426 85.46326932 -25.12890625 88.55859375 C-24.75189218 90.47486526 -24.37688545 92.39153282 -24.00390625 94.30859375 C-22.68604101 97.84170327 -21.13681578 98.93980434 -18 101 C-14.90315328 101.60944808 -14.90315328 101.60944808 -11.5625 101.53125 C-10.33789062 101.53640625 -9.11328125 101.5415625 -7.8515625 101.546875 C-6.58054687 101.53140625 -5.30953125 101.5159375 -4 101.5 C-2.09347656 101.52320313 -2.09347656 101.52320313 -0.1484375 101.546875 C1.68847656 101.53914063 1.68847656 101.53914063 3.5625 101.53125 C4.67753906 101.52673828 5.79257812 101.52222656 6.94140625 101.51757812 C10.65332255 100.88944414 12.32155895 99.59368025 15 97 C16.60086627 93.79826746 16.49917089 90.47422941 16 87 C14.20636089 84.1899654 12.98119065 82.49059532 10 81 C8.08571091 80.88145794 6.16769123 80.82092658 4.25 80.7890625 C3.08339844 80.76070313 1.91679687 80.73234375 0.71484375 80.703125 C-1.7303288 80.65170181 -4.1756594 80.60724463 -6.62109375 80.5703125 C-16.57236104 80.30872387 -26.58340336 79.30779571 -34 72 C-39.98062861 64.77628461 -42.81891077 57.49936498 -42 48 C-40.44515045 39.51900248 -36.84596805 32.40681311 -29.671875 27.36328125 C-23.88450361 24.1875067 -18.53346973 23.24461919 -12 23 C-12.02094727 22.44538086 -12.04189453 21.89076172 -12.06347656 21.31933594 C-12.14683548 18.79640977 -12.19871868 16.27377351 -12.25 13.75 C-12.28351563 12.87730469 -12.31703125 12.00460937 -12.3515625 11.10546875 C-12.45001094 4.65709563 -12.45001094 4.65709563 -10.234375 1.421875 C-6.78618751 -0.77242613 -3.95356149 -0.8199378 0 0 Z " fill="#000000" transform="translate(286,316)"/>
</svg>
