<?xml version="1.0" encoding="UTF-8"?>
<svg version="1.1" xmlns="http://www.w3.org/2000/svg" width="512" height="512">
<path d="M0 0 C1.52672321 -0.005708 3.05344215 -0.01267392 4.58015442 -0.02079773 C8.71484024 -0.03870432 12.84931352 -0.03756458 16.98402643 -0.03185534 C20.44522996 -0.02875751 23.90639302 -0.03486308 27.36759079 -0.04089409 C35.54213272 -0.05493173 43.71657015 -0.05338653 51.89111328 -0.04199219 C60.29750434 -0.03053284 68.70357555 -0.04455147 77.10992444 -0.07138866 C84.34759889 -0.0936217 91.58517353 -0.10016537 98.82287967 -0.09431225 C103.13640362 -0.09095702 107.44972299 -0.09326055 111.76321793 -0.11056328 C115.82635377 -0.12615027 119.8890208 -0.12194832 123.9521389 -0.10325813 C125.4334613 -0.09960337 126.91481933 -0.10258849 128.39610863 -0.11314392 C144.74819944 -0.22065811 158.30783141 4.00290057 170.59326172 15.01342773 C172.27602546 16.6774941 173.70430313 18.42314548 174.99951172 20.40405273 C178.25152092 19.32004967 178.57937903 18.88996487 180.49951172 16.27905273 C187.60698273 7.71138347 199.12005051 2.23201297 209.99951172 0.40405273 C212.16269189 0.30653248 214.3284688 0.26073516 216.49382019 0.25015259 C217.8072641 0.24155212 219.12070801 0.23295166 220.47395325 0.22409058 C221.92282065 0.21965592 223.37168847 0.21535751 224.82055664 0.21118164 C226.3518492 0.20327483 227.88313992 0.19500552 229.41442871 0.18640137 C234.43626137 0.16024924 239.45810207 0.144881 244.47998047 0.13061523 C246.21234962 0.12525284 247.94471873 0.11987533 249.67708778 0.11448288 C256.88565824 0.09286457 264.09422652 0.07412952 271.30282116 0.06286049 C281.61531188 0.04662998 291.92742538 0.0134621 302.23977393 -0.04354036 C309.50111742 -0.08230284 316.76236028 -0.10177962 324.02380449 -0.10706007 C328.35580067 -0.11070476 332.68739387 -0.1226317 337.01927757 -0.15516281 C341.09799558 -0.18535513 345.1760691 -0.19151597 349.25487518 -0.17977905 C350.74554415 -0.17955925 352.23624402 -0.18778664 353.72680855 -0.20543289 C363.30324961 -0.31256562 371.54049539 0.39150853 378.89758587 7.14689064 C382.90271064 11.39328733 385.99951172 16.44615565 385.99951172 22.40405273 C386.68464844 22.38310547 387.36978516 22.3621582 388.07568359 22.34057617 C391.21680694 22.25679874 394.35769436 22.2051986 397.49951172 22.15405273 C398.57716797 22.12053711 399.65482422 22.08702148 400.76513672 22.05249023 C408.58494951 21.95712666 414.0339384 22.98202325 420.02294922 28.15014648 C420.46896484 28.70831055 420.91498047 29.26647461 421.37451172 29.84155273 C422.06673828 30.67493164 422.06673828 30.67493164 422.77294922 31.52514648 C426.42676274 37.12223026 426.28728921 42.29141008 426.26693726 48.77740479 C426.27146837 49.83296688 426.27599948 50.88852897 426.2806679 51.9760778 C426.29334452 55.51884551 426.2916894 59.06146014 426.29003906 62.60424805 C426.29602231 65.1420766 426.30282738 67.67990333 426.31039429 70.21772766 C426.32624507 76.39970731 426.33250364 82.58163074 426.33361904 88.76362881 C426.33456986 93.79013539 426.33868183 98.81662941 426.34502029 103.84313202 C426.36263237 118.10042655 426.37185936 132.35769098 426.37035935 146.61499646 C426.37027943 147.38343679 426.37019952 148.15187712 426.37011719 148.94360352 C426.37003543 149.71298444 426.36995366 150.48236536 426.36986943 151.27506086 C426.36905681 163.73941114 426.38818839 176.20364048 426.41639392 188.66795579 C426.44513983 201.47233667 426.45893324 214.27665861 426.45720637 227.08107257 C426.456543 234.26728849 426.46201193 241.45337769 426.48356247 248.63956451 C426.50370551 255.39966295 426.50308314 262.15944964 426.48852921 268.91957664 C426.48643741 271.39914274 426.49116397 273.87872549 426.50325012 276.35826302 C426.51869541 279.7467451 426.50939798 283.13430378 426.49398804 286.52276611 C426.50427516 287.50089555 426.51456229 288.47902499 426.52516115 289.48679471 C426.45279208 296.70227009 425.0614482 303.215017 419.92919922 308.56030273 C419.25115234 309.00374023 418.57310547 309.44717773 417.87451172 309.90405273 C417.19130859 310.36811523 416.50810547 310.83217773 415.80419922 311.31030273 C411.96845931 313.63499359 408.79716734 313.54920237 404.40715694 313.54386044 C403.61063324 313.54681186 402.81410955 313.54976328 401.99344876 313.55280414 C399.29582913 313.5615398 396.59825216 313.56307982 393.90061951 313.56468201 C391.95840081 313.56940994 390.01618311 313.57456044 388.07396656 313.58009964 C382.7143202 313.59404393 377.35468066 313.60160012 371.99502075 313.60807264 C367.40343081 313.61443258 362.81185213 313.62450425 358.2202692 313.6346333 C343.0888969 313.6679986 327.95751776 313.68948682 312.8261207 313.70783314 C308.88742744 313.71262601 304.94873445 313.7176096 301.01004148 313.72263837 C276.56606097 313.75360842 252.12207889 313.78030644 227.67808437 313.79705715 C222.01300997 313.80099447 216.34793563 313.80500629 210.68286133 313.80908203 C209.97903818 313.8095837 209.27521503 313.81008537 208.55006391 313.81060224 C185.73343063 313.8270182 162.91690462 313.86547069 140.1003241 313.91636914 C115.9830553 313.9700711 91.86585108 314.00177524 67.74852234 314.00925404 C54.59974598 314.01392061 41.45114712 314.02871717 28.30242729 314.06899834 C17.10485026 314.10325987 5.90748272 314.11725333 -5.29014374 314.1045742 C-11.00471945 314.09873822 -16.71885186 314.10267783 -22.43336105 314.13274384 C-27.66514545 314.16004567 -32.89617033 314.15965298 -38.12797116 314.13723338 C-40.02039858 314.1340029 -41.9128763 314.14092269 -43.80521984 314.15903061 C-60.87249464 314.3124439 -60.87249464 314.3124439 -67.45513672 309.0510574 C-71.74311502 304.48101624 -74.12030804 299.30331316 -74.13470936 293.01235676 C-74.1391672 292.10911775 -74.14362505 291.20587874 -74.14821798 290.27526885 C-74.14803361 289.28170873 -74.14784925 288.2881486 -74.1476593 287.26448059 C-74.15133599 286.20992178 -74.15501268 285.15536297 -74.15880078 284.06884784 C-74.16985766 280.51757338 -74.17368486 276.96632817 -74.17749023 273.41503906 C-74.18375335 270.87588406 -74.19040002 268.33672998 -74.19740295 265.7975769 C-74.21664459 258.16505777 -74.2272333 250.53254377 -74.23613074 242.90000656 C-74.24051434 239.30526663 -74.24588098 235.71052818 -74.25111961 232.11578941 C-74.26813182 220.16517473 -74.28262573 208.21456097 -74.28986835 196.26393604 C-74.29177823 193.16277376 -74.29369857 190.06161148 -74.2956543 186.96044922 C-74.29613804 186.18967498 -74.29662178 185.41890074 -74.29712018 184.62476971 C-74.30541953 172.14022321 -74.33075485 159.65577256 -74.36323497 147.1712679 C-74.39631327 134.3522717 -74.41431782 121.53332418 -74.4175126 108.71428508 C-74.41967702 101.5174434 -74.42841565 94.32074148 -74.45397377 87.12394142 C-74.47796328 80.35321488 -74.48150163 73.58278324 -74.47121239 66.8120079 C-74.47071607 64.32718126 -74.47706446 61.84234238 -74.49076843 59.35755348 C-74.50843556 55.9642475 -74.5014057 52.57184943 -74.48823547 49.17854309 C-74.49920472 48.19613657 -74.51017397 47.21373006 -74.52147561 46.20155364 C-74.45527035 39.13207843 -72.92391361 33.79182526 -68.25439453 28.38061523 C-67.69623047 27.93459961 -67.13806641 27.48858398 -66.56298828 27.02905273 C-66.00740234 26.56756836 -65.45181641 26.10608398 -64.87939453 25.63061523 C-60.74606317 22.93234902 -57.16288538 22.15632656 -52.26220703 22.20874023 C-50.6621582 22.2184082 -50.6621582 22.2184082 -49.02978516 22.22827148 C-47.92699219 22.2450293 -46.82419922 22.26178711 -45.68798828 22.27905273 C-44.56585938 22.28807617 -43.44373047 22.29709961 -42.28759766 22.30639648 C-39.52500919 22.32990788 -36.76285896 22.36277119 -34.00048828 22.40405273 C-33.88060547 21.4978418 -33.76072266 20.59163086 -33.63720703 19.65795898 C-32.24252624 12.53054117 -27.82651943 7.48227454 -22.00048828 3.40405273 C-15.07973112 -0.63998017 -7.81392308 -0.02635451 0 0 Z M-17.00048828 22.40405273 C-17.70974648 25.60085668 -17.67137135 28.71181577 -17.62867737 31.97584534 C-17.63577176 32.94509711 -17.64286614 33.91434888 -17.65017551 34.91297191 C-17.66779048 38.1637377 -17.64963224 41.41331342 -17.6315918 44.6640625 C-17.63672921 46.99326116 -17.64400914 49.32245595 -17.65327454 51.65164185 C-17.67181803 57.98007082 -17.65883137 64.30807949 -17.63918424 70.63649106 C-17.62448058 76.58266445 -17.63040353 82.52879288 -17.63524114 88.47497713 C-17.64380786 100.25633627 -17.62713351 112.03752901 -17.59741211 123.81884766 C-17.56856812 135.25251249 -17.56149425 146.68593766 -17.5769043 158.11962891 C-17.59366144 170.56986956 -17.5977062 183.01999644 -17.58019394 195.47024006 C-17.57108357 202.06103629 -17.5670048 208.65172662 -17.57623482 215.2425251 C-17.58388124 221.43713414 -17.57182488 227.63139688 -17.54438591 233.82594681 C-17.53748408 236.1028039 -17.53742323 238.37969322 -17.54460144 240.65654945 C-17.55325408 243.75783741 -17.53741057 246.85804632 -17.51515198 249.95924377 C-17.52339274 250.86633656 -17.53163351 251.77342934 -17.540124 252.70800978 C-17.50704292 257.68521177 -17.50704292 257.68521177 -15.0933218 261.93185329 C-11.75302237 264.28158006 -9.87942473 264.53247699 -5.82276917 264.54881287 C-4.72524826 264.55571136 -3.62772736 264.56260986 -2.49694824 264.56971741 C-0.68221008 264.57363747 -0.68221008 264.57363747 1.16918945 264.57763672 C3.11897678 264.5879023 5.06876409 264.59816997 7.01855099 264.60851586 C9.11923594 264.61875778 11.21991846 264.62660423 13.32061577 264.63384819 C17.7050814 264.64930509 22.08947491 264.67325867 26.47389221 264.69874573 C38.9435672 264.76992193 51.41328476 264.82953488 63.88305664 264.88085938 C70.76659561 264.90926694 77.65006404 264.94471131 84.53352886 264.98751312 C88.88252365 265.014135 93.23143865 265.03213318 97.58049858 265.04355037 C100.94214804 265.0549134 104.30368743 265.07901155 107.6652832 265.10107422 C109.45269424 265.10195793 109.45269424 265.10195793 111.2762146 265.1028595 C131.64090034 265.27910913 145.27702593 273.34239184 161.20703125 285.18652344 C163.07047999 286.45225742 164.97850738 287.41504609 166.99951172 288.40405273 C167.09082368 257.36274071 167.16158215 226.32146431 167.20377304 195.28004981 C167.20877568 191.61272504 167.21395298 187.94540054 167.21923828 184.27807617 C167.22081214 183.1829599 167.22081214 183.1829599 167.2224178 182.06572007 C167.23980819 170.25485715 167.27133831 158.44407236 167.3081229 146.63325574 C167.34557042 134.50817926 167.36775561 122.38314362 167.3758657 110.2580117 C167.3813456 102.78018964 167.39863362 95.30258844 167.43117759 87.82483439 C167.45488339 82.0843502 167.45732195 76.34400655 167.45194244 70.6034832 C167.45304115 68.25333613 167.46097459 65.90318055 167.47633362 63.55308342 C167.49631379 60.33766655 167.49142101 57.12318509 167.48052979 53.90774536 C167.49800683 52.52151448 167.49800683 52.52151448 167.51583695 51.10727894 C167.42120959 40.73057385 163.59627985 33.0552627 156.51123047 25.60717773 C149.80905904 19.72844572 142.55987231 17.29419162 133.78163147 17.25015259 C132.5044072 17.24155212 131.22718292 17.23295166 129.91125488 17.22409058 C128.49804728 17.21965579 127.08483925 17.21535739 125.67163086 17.21118164 C124.18163361 17.20327713 122.69163826 17.19500796 121.2016449 17.18640137 C116.31267106 17.16023211 111.42368886 17.14488359 106.53466797 17.13061523 C104.8507887 17.12525436 103.16690948 17.11987685 101.48303032 17.11448288 C94.48037107 17.0928659 87.47771409 17.07412769 80.47502995 17.06286049 C70.4406952 17.04660803 60.4067468 17.01338561 50.3725577 16.95645964 C43.31513239 16.91778524 36.25781055 16.89823106 29.20028204 16.89293993 C24.98523936 16.88928438 20.77060923 16.87724115 16.55568123 16.84483719 C12.59189494 16.81479844 8.62877179 16.80842929 4.66489601 16.82022095 C3.21082845 16.82044201 1.75673046 16.81211003 0.30276871 16.79456711 C-1.68323315 16.77190985 -3.66953523 16.78314425 -5.65562439 16.79605103 C-7.32226843 16.79108581 -7.32226843 16.79108581 -9.02258205 16.78602028 C-13.18577543 17.65004635 -14.56501347 18.92568304 -17.00048828 22.40405273 Z M190.99951172 30.40405273 C184.27336231 39.27248861 183.6891031 50.026799 183.75900269 60.80021667 C183.75729384 61.78558436 183.75558499 62.77095205 183.75382435 63.78617936 C183.75055638 67.05495767 183.76148844 70.32352608 183.77246094 73.59228516 C183.77302563 75.94855749 183.77270735 78.30483017 183.77157593 80.66110229 C183.7710037 87.03424568 183.78273704 93.40731331 183.79672384 99.78043914 C183.8079821 105.77311598 183.80997269 111.76579303 183.81202759 117.75847844 C183.81639486 129.62090088 183.8296776 141.48329568 183.84863281 153.34570312 C183.86701673 164.86262881 183.88116091 176.37954696 183.88964844 187.89648438 C183.89017388 188.60748636 183.89069933 189.31848834 183.8912407 190.05103584 C183.89385095 193.61825185 183.89637832 197.1854679 183.89886451 200.752684 C183.91956685 230.30315807 183.95491554 259.85360491 183.99951172 289.40405273 C185.75639439 288.29502916 187.51210976 287.18415625 189.26733398 286.07250977 C190.24517349 285.4540921 191.223013 284.83567444 192.23048401 284.19851685 C195.01806691 282.39202807 197.68497862 280.48546455 200.3347168 278.48608398 C213.67445367 268.437073 226.64322881 265.10347912 243.16674805 265.11694336 C245.15000677 265.10645537 247.13326549 265.09596681 249.1165241 265.08545685 C251.23098284 265.07613323 253.34540238 265.07162771 255.45987892 265.06852722 C259.8766191 265.06177472 264.29320908 265.03997883 268.70988464 265.01599121 C278.87452558 264.9630428 289.03921256 264.92946506 299.20393372 264.8962326 C308.53860846 264.86553329 317.87321792 264.83072738 327.20780772 264.77992201 C331.59807068 264.75659253 335.98822753 264.74283792 340.37854636 264.73642731 C342.44916611 264.73192047 344.51970709 264.72291215 346.59030151 264.71186829 C349.11398991 264.69843124 351.63772991 264.69209824 354.16145325 264.69413757 C355.82881531 264.68172783 355.82881531 264.68172783 357.52986145 264.66906738 C358.49527265 264.66613426 359.46068384 264.66320114 360.45534992 264.66017914 C363.15692897 264.38820519 364.73804438 263.88908737 366.99951172 262.40405273 C369.03160974 259.3559057 369.25025111 258.76957062 369.25957394 255.34755898 C369.26663953 254.51910457 369.27370512 253.69065017 369.28098482 252.83709109 C369.27856973 251.92708547 369.27615465 251.01707984 369.27366638 250.07949829 C369.27890306 249.11266094 369.28413974 248.14582358 369.28953511 247.14968812 C369.30459078 243.89540506 369.30524148 240.64127845 369.3059082 237.38696289 C369.31352591 235.05968458 369.32195273 232.73240879 369.33113098 230.40513611 C369.35312043 224.07253055 369.36188079 217.73997328 369.36695743 211.40733385 C369.37059557 207.45387603 369.37683276 203.50043097 369.38395882 199.546978 C369.40341907 188.60259827 369.41992936 177.65822913 369.42283535 166.71383095 C369.42302292 166.01337025 369.42321049 165.31290956 369.42340374 164.59122279 C369.42377 163.17119972 369.42413369 161.75117665 369.42449486 160.33115359 C369.42467767 159.62624546 369.42486048 158.92133734 369.42504883 158.19506836 C369.42522938 157.48930072 369.42540993 156.78353307 369.42559595 156.05637853 C369.4291385 144.61734405 369.45616567 133.17849771 369.49354672 121.73952849 C369.53161154 109.99744041 369.55099269 98.25544574 369.55129486 86.51329458 C369.55208937 79.91957712 369.56090802 73.32610233 369.58929253 66.73244095 C369.61538604 60.53210642 369.61772689 54.33221727 369.60163689 48.1318531 C369.59981549 45.85378489 369.60657492 43.57569158 369.6224556 41.29767799 C369.64278863 38.19211053 369.63243883 35.08812016 369.61424255 31.98257446 C369.63404251 30.62425819 369.63404251 30.62425819 369.65424246 29.23850119 C369.59661576 24.94471358 369.37926238 22.94644216 366.85749435 19.34465694 C363.47620668 17.04872239 361.71783958 16.77800727 357.65705872 16.77586365 C355.73737778 16.75688271 355.73737778 16.75688271 353.77891541 16.73751831 C352.36782432 16.74883401 350.95673726 16.76066147 349.5456543 16.77294922 C348.05376332 16.76780879 346.56187842 16.76052658 345.07000732 16.75126648 C341.02201169 16.73275149 336.97467478 16.74569444 332.92670655 16.76535678 C328.68328239 16.78175922 324.43989945 16.77292746 320.19645691 16.76783752 C313.06519071 16.76331587 305.93418671 16.77918463 298.80297852 16.80712891 C290.57604291 16.83911983 282.34958179 16.8391892 274.12261277 16.82191414 C266.1941613 16.80600336 258.26588259 16.81281574 250.33743858 16.82985115 C246.97123258 16.83669695 243.60516609 16.83571452 240.23896217 16.8283062 C236.26528068 16.82059823 232.29213318 16.83291505 228.31854248 16.86015511 C226.86661551 16.86699541 225.41463825 16.86718409 223.96271324 16.85993958 C209.81313516 16.79751929 200.63998037 19.80467424 190.99951172 30.40405273 Z M-57.00048828 41.40405273 C-57.3048671 43.34065019 -57.3048671 43.34065019 -57.25775719 45.59296322 C-57.26420608 46.4763943 -57.27065497 47.35982538 -57.27729928 48.2700271 C-57.27420208 49.24656498 -57.27110488 50.22310285 -57.26791382 51.22923279 C-57.27244493 52.26196369 -57.27697604 53.29469459 -57.28164446 54.35872036 C-57.29437097 57.84189338 -57.2926628 61.32491168 -57.29101562 64.80810547 C-57.29699569 67.29611413 -57.30380002 69.78412092 -57.31137085 72.27212524 C-57.32724742 78.34221469 -57.33348149 84.41224259 -57.33459561 90.48234706 C-57.33554487 95.41458348 -57.33964905 100.34680704 -57.34599686 105.27903938 C-57.36361559 119.25242731 -57.37283468 133.22578447 -57.37133591 147.19918358 C-57.371256 147.95297448 -57.37117608 148.70676538 -57.37109375 149.48339844 C-57.37101199 150.23810604 -57.37093023 150.99281364 -57.37084599 151.77039117 C-57.37003279 164.00619152 -57.38917719 176.24186884 -57.41737048 188.47763359 C-57.44606822 201.03102795 -57.45991252 213.58436225 -57.45818293 226.13779026 C-57.45751797 233.18972119 -57.46305635 240.24152315 -57.48453903 247.29342461 C-57.50460499 253.92293246 -57.50410905 260.55221374 -57.48950577 267.18175125 C-57.48740516 269.62029606 -57.4921923 272.05885756 -57.50422668 274.49737358 C-57.5195481 277.81587204 -57.51045769 281.1334128 -57.4949646 284.45188904 C-57.50525173 285.42619619 -57.51553885 286.40050335 -57.52613771 287.40433496 C-57.56406776 292.27595033 -57.56406776 292.27595033 -55.47894096 296.50351524 C-51.93654916 297.79063145 -48.56880215 297.80677583 -44.85076904 297.76481628 C-44.02247377 297.76737956 -43.19417849 297.76994283 -42.34078336 297.77258378 C-39.5614644 297.77753066 -36.782687 297.7610139 -34.00341797 297.74462891 C-32.01270562 297.74378283 -30.02199233 297.7442574 -28.03128052 297.74595642 C-22.62251726 297.74681855 -17.21395284 297.72915742 -11.80523586 297.70823455 C-6.15444886 297.68950412 -0.5036575 297.68772018 5.14715576 297.68415833 C15.84977192 297.67482718 26.55229635 297.65019888 37.25487208 297.62010986 C49.43851699 297.58659916 61.62216623 297.57008821 73.80584574 297.55502355 C98.87045196 297.52365029 123.9349767 297.47086897 148.99951172 297.40405273 C138.92759087 289.31808556 128.87000906 281.30097986 115.44720459 281.26602173 C113.75243233 281.25784172 113.75243233 281.25784172 112.02342224 281.24949646 C110.788022 281.24845413 109.55262177 281.2474118 108.27978516 281.24633789 C106.27735737 281.2385387 104.27492959 281.23073546 102.27250242 281.22277999 C100.12155761 281.21507175 97.97061702 281.20968592 95.819664 281.20482254 C91.33084729 281.19412279 86.84210542 281.17387201 82.35333252 281.15170288 C69.58943111 281.08984717 56.82553417 281.03580338 44.06152344 281.00268555 C37.01060542 280.98431097 29.95981295 280.95533962 22.90898728 280.91468084 C19.18080659 280.89365845 15.45278379 280.87816036 11.72454071 280.87587357 C7.56179051 280.8733172 3.39947827 280.84780683 -0.76318359 280.82055664 C-1.99048691 280.82356277 -3.21779022 280.82656891 -4.48228455 280.82966614 C-13.35611723 280.74340293 -20.68907586 279.60426761 -27.33845305 273.26519245 C-32.57781654 267.39817633 -33.58941268 260.4397152 -33.51947021 252.8558197 C-33.53072209 251.4783367 -33.53072209 251.4783367 -33.54220128 250.07302576 C-33.56237956 247.01898975 -33.5543951 243.96570315 -33.54638672 240.91162109 C-33.55512707 238.71326976 -33.56561446 236.51492478 -33.57771301 234.31658936 C-33.60553672 228.36478201 -33.60897848 222.41318262 -33.60799313 216.46131968 C-33.61112531 210.23527941 -33.63674996 204.00933237 -33.65997314 197.78334045 C-33.69590987 187.3386358 -33.71803028 176.89397752 -33.72949219 166.44921875 C-33.74133214 155.69462554 -33.76155092 144.94010148 -33.79296875 134.18554688 C-33.79490485 133.52181137 -33.79684095 132.85807587 -33.79883572 132.17422717 C-33.80860076 128.84421457 -33.81853873 125.51420253 -33.82854033 122.18419063 C-33.9109119 94.59084291 -33.9650212 66.9974978 -34.00048828 39.40405273 C-37.4587517 39.34616267 -40.91689122 39.31049453 -44.37548828 39.27905273 C-45.36033203 39.26229492 -46.34517578 39.24553711 -47.35986328 39.22827148 C-48.30087891 39.22182617 -49.24189453 39.21538086 -50.21142578 39.20874023 C-51.0807373 39.1982666 -51.95004883 39.18779297 -52.84570312 39.17700195 C-55.21394767 39.19810165 -55.21394767 39.19810165 -57.00048828 41.40405273 Z M385.99951172 39.40405273 C385.99896695 40.54411711 385.99842218 41.68418148 385.99786091 42.85879326 C385.98345995 70.61017779 385.94042023 98.36140558 385.86742115 126.11269951 C385.86048964 128.78533784 385.85366463 131.45797642 385.84692383 134.13061523 C385.84524477 134.79489922 385.8435657 135.45918321 385.84183576 136.14359702 C385.81684919 146.22033182 385.80644065 156.29701576 385.80395508 166.3737793 C385.80091387 178.07221026 385.78040196 189.77045842 385.73898715 201.46881878 C385.71767008 207.66197391 385.70505011 213.85486924 385.71335793 220.04806137 C385.72090592 225.88073307 385.70504382 231.71287868 385.67145157 237.54545403 C385.66322749 239.68271395 385.66345745 241.82002628 385.67291451 243.95728111 C385.75837992 265.39998395 385.75837992 265.39998395 379.99951172 272.40405273 C374.18164361 277.90170957 368.34924403 280.6528164 360.22688293 280.65560913 C358.5344899 280.6636834 358.5344899 280.6636834 356.8079071 280.67192078 C355.58441055 280.66779678 354.360914 280.66367279 353.1003418 280.65942383 C351.10483038 280.66498152 349.10931898 280.67054353 347.11380804 280.67626786 C344.97582415 280.68059893 342.83788681 280.68014037 340.69989967 280.67844772 C336.23107614 280.67560418 331.76240937 280.69000672 327.29362488 280.70742798 C314.58843342 280.75435136 301.88325282 280.77838041 289.17797852 280.78491211 C282.15520503 280.78867477 275.13260938 280.80680119 268.1099121 280.84000647 C263.67714578 280.86011344 259.24484148 280.86264359 254.81204855 280.85172629 C251.38981642 280.84848327 247.96783525 280.87126085 244.5456543 280.88989258 C242.7255912 280.8776339 242.7255912 280.8776339 240.86875916 280.86512756 C230.88390298 280.96147012 222.51580838 283.27475853 214.18701172 288.90405273 C213.28724609 289.50475586 212.38748047 290.10545898 211.46044922 290.72436523 C210.24228516 291.55581055 210.24228516 291.55581055 208.99951172 292.40405273 C207.77074787 293.19634448 206.54166813 293.98814697 205.31201172 294.77905273 C204.16732422 295.58342773 204.16732422 295.58342773 202.99951172 296.40405273 C202.99951172 296.73405273 202.99951172 297.06405273 202.99951172 297.40405273 C229.26793815 297.47407826 255.53635062 297.52700923 281.80485153 297.55948925 C294.00128038 297.57496992 306.1976513 297.59608238 318.39404297 297.63037109 C329.02219596 297.66023669 339.65030701 297.679619 350.2785008 297.68631822 C355.90805836 297.69023529 361.53749591 297.69946589 367.16701508 297.7212429 C372.46271802 297.74156316 377.75825118 297.74789556 383.05398941 297.74337578 C385.00028785 297.74420298 386.94659181 297.75019508 388.8928566 297.76166916 C391.54537894 297.77654348 394.19725594 297.77302493 396.84979248 297.76481628 C397.62411267 297.77355481 398.39843286 297.78229333 399.1962173 297.79129666 C402.15400401 297.76646946 404.69034652 297.51638687 407.4779644 296.50351524 C410.1075507 292.8751576 409.53996942 288.80684574 409.49398804 284.45188904 C409.49881687 283.41759815 409.5036457 282.38330726 409.50862086 281.31767422 C409.5199363 277.83506482 409.50253852 274.35318245 409.48535156 270.87060547 C409.4874963 268.38082683 409.49137231 265.89104916 409.49685669 263.40127563 C409.50556359 257.3308959 409.49564856 251.26080312 409.47715609 245.19046646 C409.45640748 238.12615016 409.45652794 231.06188116 409.45750125 223.99754012 C409.4585029 211.39642604 409.44016785 198.79541341 409.41113281 186.19433594 C409.38295114 173.95733797 409.36879149 161.7204293 409.37011719 149.48339844 C409.3701971 148.72960753 409.37027701 147.97581663 409.37035935 147.19918358 C409.37044006 146.44671579 409.37052076 145.694248 409.37060392 144.91897815 C409.37198248 131.00044287 409.36021068 117.08194565 409.34229749 103.16342269 C409.33625687 98.23507574 409.33413743 93.30673578 409.33323288 88.37838554 C409.33172869 81.75053849 409.31906862 75.12277375 409.2989006 68.49495316 C409.29303844 66.05599737 409.29060231 63.61703072 409.29175568 61.17806816 C409.29273083 57.86168786 409.28148773 54.54557586 409.26693726 51.22923279 C409.27158306 49.76442597 409.27158306 49.76442597 409.27632272 48.2700271 C409.26987383 47.38659602 409.26342494 46.50316494 409.25678062 45.59296322 C409.25466735 44.44371078 409.25466735 44.44371078 409.25251138 43.27124113 C409.158277 41.15897802 409.158277 41.15897802 406.99951172 39.40405273 C404.76915874 39.12664029 404.76915874 39.12664029 402.21044922 39.20874023 C401.26943359 39.21518555 400.32841797 39.22163086 399.35888672 39.22827148 C398.37404297 39.2450293 397.38919922 39.26178711 396.37451172 39.27905273 C395.38193359 39.28807617 394.38935547 39.29709961 393.36669922 39.30639648 C390.91073038 39.33001157 388.45524004 39.36294474 385.99951172 39.40405273 Z " fill="#000000" transform="translate(80.00048828125,198.595947265625)"/>
<path d="M0 0 C1.2251532 -0.01134979 2.4503064 -0.02269958 3.71258545 -0.03439331 C5.05709905 -0.03175039 6.40161204 -0.02877923 7.74612427 -0.0255127 C9.17244123 -0.03285801 10.59875226 -0.04144559 12.02505493 -0.05117798 C15.88880279 -0.07335489 19.75233713 -0.07632658 23.61613989 -0.07443047 C26.84663276 -0.07431058 30.0770807 -0.08288213 33.30756104 -0.09120798 C40.93196952 -0.11042852 48.55626852 -0.1133309 56.18069458 -0.10656738 C64.03453174 -0.09992829 71.88789905 -0.12278845 79.74164093 -0.15988111 C86.49514937 -0.19061485 93.24850695 -0.20193416 100.0020839 -0.1980443 C104.03104254 -0.19598047 108.05963553 -0.2013988 112.08852768 -0.22593689 C115.8792275 -0.2482625 119.66916553 -0.24627891 123.45986938 -0.22600937 C124.84654461 -0.22260943 126.2332717 -0.22764463 127.61987686 -0.24199295 C135.61787119 -0.31900737 141.6121459 -0.03757868 147.7895813 5.39440918 C153.61721591 11.22204379 155.1214475 18.14408872 155.19616699 26.09126282 C155.18705795 27.5300605 155.18705795 27.5300605 155.17776489 28.9979248 C155.18565033 30.54584969 155.18565033 30.54584969 155.19369507 32.12504578 C155.206838 35.51707345 155.19817696 38.9086272 155.1880188 42.30065918 C155.19004117 44.6690276 155.19295396 47.03739542 155.19671631 49.40576172 C155.20113195 54.36183621 155.19473292 59.31774816 155.18069458 64.27380371 C155.16360339 70.61555166 155.17344861 76.95691866 155.19141197 83.29865265 C155.20227022 88.18693901 155.19879405 93.07513557 155.19102859 97.96342468 C155.18903224 100.30132594 155.19146594 102.63923545 155.19846725 104.97712708 C155.20611514 108.24860121 155.1944302 111.51946471 155.17776489 114.79089355 C155.18383759 115.75009201 155.18991028 116.70929047 155.19616699 117.69755554 C155.1170908 126.10810866 153.18325569 132.62499713 147.40286255 138.92175293 C144.08561806 141.94984294 140.17467816 143.63871474 135.7895813 144.39440918 C133.35254325 144.24304146 130.9187769 144.03608357 128.48880005 143.79675293 C112.82368716 142.222828 112.82368716 142.222828 98.85354614 147.77966309 C93.99490282 153.96257013 90.95096598 160.98837076 88.06643677 168.26062012 C86.46697047 172.18619361 84.49589852 175.70178422 82.2270813 179.26940918 C81.68954224 180.19495605 81.15200317 181.12050293 80.59817505 182.07409668 C77.59352724 185.92887162 74.14465262 188.01089843 69.4770813 189.33190918 C64.8493957 189.41034453 60.85690148 188.66489106 56.7895813 186.39440918 C53.84873188 183.00233219 51.54721931 179.46509975 49.3286438 175.57019043 C48.69184692 174.45837402 48.05505005 173.34655762 47.3989563 172.2010498 C46.73729389 171.03645218 46.07583646 169.87173808 45.4145813 168.70690918 C43.48024792 165.31797252 41.54554706 161.93245572 39.56057739 158.57287598 C37.7895813 155.39440918 37.7895813 155.39440918 36.56936646 152.36633301 C35.2544279 149.36217126 34.28618761 147.53677895 31.7895813 145.39440918 C26.14844668 144.08398072 20.67300634 144.26126961 14.9145813 144.45690918 C12.61181706 144.49826317 10.30993906 144.52514264 8.00683594 144.53709412 C6.57956103 144.54838039 5.15225858 144.57814058 3.72589111 144.63026428 C-3.61790884 144.769005 -10.20940794 142.41425151 -15.548316 137.31541348 C-21.09413494 130.90573614 -21.79554606 122.79150538 -21.71212769 114.67150879 C-21.71753067 113.65062668 -21.72293365 112.62974457 -21.72850037 111.57792664 C-21.74091499 108.23389886 -21.72454568 104.89074427 -21.70651245 101.54675293 C-21.7066676 99.20605932 -21.70815913 96.86536545 -21.71092224 94.52467346 C-21.71230295 89.63177052 -21.69980185 84.73916189 -21.67697144 79.84631348 C-21.64857251 73.58989883 -21.65133304 67.33397217 -21.66406155 61.07752132 C-21.67103187 56.24837613 -21.66321416 51.41934278 -21.65080452 46.59021187 C-21.64630432 44.28384391 -21.64594064 41.97746389 -21.64986992 39.67109489 C-21.65279578 36.44311975 -21.63620942 33.21580633 -21.61447144 29.98791504 C-21.61897308 29.04480469 -21.62347473 28.10169434 -21.62811279 27.13000488 C-21.54685262 19.82968522 -20.47784174 12.14510908 -15.3979187 6.51940918 C-14.93772339 5.9857373 -14.47752808 5.45206543 -14.00338745 4.90222168 C-9.68280623 1.26879172 -5.57143271 0.01958484 0 0 Z M-2.46179199 18.31416321 C-4.94438423 22.68730625 -4.90384254 26.30745531 -4.84152222 31.26184082 C-4.84867752 32.25100998 -4.85583282 33.24017914 -4.86320496 34.25932312 C-4.88009656 37.52487543 -4.86068715 40.78905599 -4.83932495 44.05456543 C-4.84015353 46.3247031 -4.84261252 48.59484071 -4.84663391 50.86497498 C-4.84949216 55.62049436 -4.83478624 60.37554283 -4.80734253 65.13098145 C-4.77324088 71.23008747 -4.77928447 77.3283524 -4.7980051 83.42749882 C-4.80856676 88.11408005 -4.79964507 92.80046513 -4.78462029 97.48702812 C-4.77943323 99.7361232 -4.77992659 101.98523872 -4.78616524 104.23433113 C-4.79160795 107.37546068 -4.77127226 110.51538033 -4.74386597 113.65637207 C-4.75039185 114.58791107 -4.75691772 115.51945007 -4.76364136 116.47921753 C-4.70865155 121.55133923 -4.70865155 121.55133923 -2.41752625 125.97288513 C0.9742321 128.15740308 4.38099019 127.91892924 8.2817688 127.86315918 C9.10532867 127.87020874 9.92888855 127.8772583 10.77740479 127.88452148 C14.29220784 127.9139727 17.80645499 127.89740576 21.32131958 127.88513184 C23.8918033 127.88274424 26.4613959 127.90370814 29.0317688 127.92565918 C29.81945648 127.9143396 30.60714417 127.90302002 31.41870117 127.89135742 C36.66701956 127.93916134 39.6112872 128.94467482 43.7895813 132.39440918 C45.6333313 134.78503418 45.6333313 134.78503418 47.2895813 137.64440918 C47.9495813 138.76718262 48.6095813 139.88995605 49.2895813 141.04675293 C49.66856567 141.7065918 50.04755005 142.36643066 50.4380188 143.04626465 C52.08163251 145.90180596 53.74807192 148.74357683 55.4145813 151.58581543 C58.88685175 157.5139536 62.34258831 163.45154332 65.7895813 169.39440918 C69.18813141 168.26155914 69.33375494 167.94665858 70.91848755 164.95690918 C71.30883179 164.23455078 71.69917603 163.51219238 72.10134888 162.76794434 C72.51409058 161.98467773 72.92683228 161.20141113 73.3520813 160.39440918 C74.24115928 158.75554815 75.13182722 157.11754882 76.0239563 155.48034668 C76.47963989 154.63955566 76.93532349 153.79876465 77.40481567 152.93249512 C79.58736007 148.93218984 81.82638836 144.967349 84.1020813 141.01940918 C84.49790405 140.31300293 84.89372681 139.60659668 85.30154419 138.87878418 C88.01792516 134.19249991 90.82983055 130.87428455 95.7895813 128.39440918 C98.58521647 128.28582086 101.36039495 128.23303397 104.1567688 128.21862793 C105.86381239 128.19543064 107.57084369 128.17131334 109.27786255 128.1463623 C111.97277058 128.11123269 114.66722596 128.08189602 117.36233521 128.06848145 C119.96103872 128.05301014 122.55841558 128.01280864 125.1567688 127.96862793 C125.96105316 127.97053635 126.76533752 127.97244476 127.59399414 127.97441101 C130.83348416 127.90356217 133.23968093 127.74645006 136.00263977 125.97763062 C138.75143486 122.00394357 138.33967531 118.25740763 138.29129028 113.53283691 C138.29669327 112.53245392 138.30209625 111.53207092 138.30766296 110.50137329 C138.32017471 107.19328264 138.30364356 103.88605802 138.28567505 100.57800293 C138.28582997 98.28162083 138.28731775 95.98523847 138.29008484 93.68885803 C138.29146989 88.876154 138.27889164 84.0637476 138.25613403 79.25109863 C138.22773344 73.07463053 138.23048979 66.89865651 138.24322414 60.72215176 C138.25017031 55.98073589 138.24240443 51.23943475 138.22996712 46.49803352 C138.22544341 44.22019961 138.2251238 41.94235341 138.22903252 39.66451836 C138.23193467 36.48494984 138.21548554 33.3060687 138.19363403 30.12658691 C138.19813568 29.18053085 138.20263733 28.23447479 138.20727539 27.25975037 C138.19737076 26.39474915 138.18746613 25.52974792 138.17726135 24.63853455 C138.17483146 23.88693778 138.17240156 23.13534101 138.16989803 22.36096859 C137.68421308 19.84956628 136.75166995 18.98445905 134.7895813 17.39440918 C132.23769788 16.11846747 130.42962164 16.25701176 127.57148743 16.24050903 C126.46529556 16.23190857 125.3591037 16.22330811 124.21939087 16.21444702 C123.00013916 16.21018707 121.78088745 16.20592712 120.52468872 16.20153809 C118.60509087 16.18927185 118.60509087 16.18927185 116.64671326 16.17675781 C112.39618029 16.15053454 108.14563746 16.13523013 103.89505005 16.12097168 C102.43219814 16.11561217 100.9693463 16.11023466 99.50649452 16.10483932 C93.42180199 16.08321036 87.33711211 16.06447333 81.25239086 16.05321693 C72.53010311 16.03697542 63.80826067 16.00379359 55.08614081 15.94681609 C48.95443818 15.9081252 42.82285469 15.88858531 36.69103318 15.88329637 C33.02814075 15.87964172 29.36572324 15.86760966 25.70296288 15.83519363 C21.61592469 15.79954123 17.52984437 15.80348157 13.44265747 15.81091309 C11.62288895 15.78630508 11.62288895 15.78630508 9.76635742 15.76119995 C4.92876711 15.79730219 1.75176873 15.82629133 -2.46179199 18.31416321 Z " fill="#000000" transform="translate(88.21041870117188,-0.3944091796875)"/>
<path d="M0 0 C1.22240387 -0.00997513 2.44480774 -0.01995026 3.70425415 -0.03022766 C5.05603014 -0.03112343 6.40780631 -0.03178702 7.75958252 -0.03224182 C9.18560215 -0.03986485 10.61161767 -0.04829259 12.03762817 -0.0574646 C15.90971374 -0.07940553 19.78172034 -0.08820821 23.65386105 -0.09329104 C26.07480491 -0.09693583 28.49572813 -0.10317661 30.91666412 -0.11029243 C39.36789355 -0.13478787 47.8190616 -0.14783852 56.27032471 -0.15138245 C64.13887071 -0.15501532 72.00702608 -0.18489237 79.87545276 -0.22678703 C86.63739946 -0.26152366 93.39921696 -0.27693149 100.16125226 -0.27762848 C104.19696697 -0.27842031 108.23228393 -0.28711475 112.26790619 -0.31562614 C116.06676011 -0.34186426 119.86488822 -0.34398071 123.66379166 -0.3279705 C125.05370038 -0.32616039 126.44365138 -0.33280734 127.83346939 -0.34878922 C137.55847625 -0.45375076 143.3441357 0.71484746 150.34259033 7.52415466 C154.68199741 14.59578102 155.47120168 21.63967392 155.41827393 29.79173279 C155.42615936 31.30820656 155.42615936 31.30820656 155.4342041 32.85531616 C155.44732671 36.172173 155.4386933 39.48854357 155.42852783 42.80540466 C155.43055078 45.12510774 155.43346407 47.4448102 155.43722534 49.76451111 C155.44163823 54.61625753 155.43525087 59.46783778 155.42120361 64.31956482 C155.40411258 70.52330504 155.41395929 76.72665582 155.43192101 82.93038177 C155.44278673 87.71748259 155.43929967 92.50449182 155.43153763 97.29159546 C155.42954334 99.57843065 155.43196766 101.86527429 155.43897629 104.15209961 C155.44663658 107.35381444 155.43492213 110.55490772 155.41827393 113.75657654 C155.42434662 114.6919072 155.43041931 115.62723785 155.43667603 116.59091187 C155.35694499 124.91184223 153.76231881 132.59818391 147.84942627 138.77781677 C141.87488147 143.6916634 135.6812098 144.57093209 128.14337158 143.96946716 C112.8094203 142.26416646 112.8094203 142.26416646 99.12042236 147.64622498 C94.25165565 153.83736038 91.19611697 160.8564133 88.3069458 168.1403656 C86.7074795 172.0659391 84.73640755 175.58152971 82.46759033 179.14915466 C81.93005127 180.07470154 81.39251221 181.00024841 80.83868408 181.95384216 C77.83403627 185.80861711 74.38516166 187.89064391 69.71759033 189.21165466 C64.87416673 189.29374659 61.30739484 188.55228424 57.03009033 186.27415466 C50.91340976 180.18000708 47.04040896 171.56796329 42.84259033 164.08665466 C41.77360264 162.19399298 40.70306961 160.30221207 39.63230896 158.41055298 C38.66713126 156.70347946 37.7055567 154.99437019 36.74420166 153.28514099 C35.89571655 151.79470276 35.89571655 151.79470276 35.03009033 150.27415466 C34.61485107 149.33096375 34.19961182 148.38777283 33.77178955 147.41600037 C32.12613687 144.91877549 32.12613687 144.91877549 28.69537354 144.66233826 C27.32402733 144.64147446 25.95212958 144.64656873 24.58087158 144.67259216 C23.84942429 144.66458588 23.11797699 144.65657959 22.36436462 144.64833069 C20.02321223 144.62524489 17.68378948 144.63471025 15.34259033 144.64915466 C13.01956455 144.65302033 10.69731531 144.64937557 8.37437439 144.6285553 C6.93074548 144.61660824 5.48689872 144.61889748 4.04335022 144.63825989 C-3.66817686 144.59620997 -9.84451402 142.07662493 -15.49725342 136.88743591 C-19.69967699 132.28371991 -21.08354716 126.85906837 -21.11708069 120.79829407 C-21.12423599 119.90693253 -21.1313913 119.01557098 -21.13876343 118.09719849 C-21.14279678 116.64154228 -21.14279678 116.64154228 -21.14691162 115.15647888 C-21.15348282 114.12832565 -21.16005402 113.10017242 -21.16682434 112.04086304 C-21.18654054 108.63685531 -21.1982173 105.23289172 -21.20819092 101.82884216 C-21.21226645 100.66450779 -21.21634197 99.50017342 -21.220541 98.30055618 C-21.24139624 92.13583301 -21.25569941 85.97113204 -21.26507568 79.80638123 C-21.27612881 73.45123664 -21.31051811 67.09644327 -21.35024738 60.74142265 C-21.3764438 55.84449124 -21.38477032 50.94764305 -21.38835716 46.05064774 C-21.39321656 43.70879372 -21.40481196 41.36694326 -21.42339516 39.02515793 C-21.44784637 35.73922487 -21.44681006 32.45419456 -21.43988037 29.16819763 C-21.45269043 28.20990555 -21.46550049 27.25161346 -21.47869873 26.26428223 C-21.42367893 19.06746053 -20.1993266 11.81249708 -15.19049549 6.32452202 C-10.39360521 2.00219063 -6.53759156 0.02861264 0 0 Z M-2.96990967 18.27415466 C-4.1144589 20.56325313 -4.10262846 21.8531282 -4.11708069 24.39802551 C-4.12423599 25.26165207 -4.1313913 26.12527863 -4.13876343 27.01507568 C-4.14145233 27.96472702 -4.14414124 28.91437836 -4.14691162 29.89280701 C-4.15348282 30.89129166 -4.16005402 31.88977631 -4.16682434 32.91851807 C-4.18658287 36.2323768 -4.19822454 39.5461902 -4.20819092 42.86009216 C-4.21226645 43.98961933 -4.21634197 45.1191465 -4.220541 46.28290176 C-4.24141086 52.25915088 -4.25570964 58.23537696 -4.26507568 64.21165466 C-4.2761528 70.3948171 -4.31056537 76.57762091 -4.35024738 82.76065636 C-4.37634647 87.50636989 -4.38476147 92.25199703 -4.38835716 96.99777603 C-4.39323909 99.27760368 -4.40489838 101.55742707 -4.42339516 103.83718491 C-4.44764755 107.02398675 -4.44684702 110.2098481 -4.43988037 113.39671326 C-4.45269043 114.34231613 -4.46550049 115.28791901 -4.47869873 116.26217651 C-4.46678486 121.38703008 -4.46678486 121.38703008 -2.1809845 125.86134338 C1.21602118 128.03192932 4.62307219 127.79865224 8.52227783 127.74290466 C9.34583771 127.74995422 10.16939758 127.75700378 11.01791382 127.76426697 C14.53271688 127.79371818 18.04696402 127.77715124 21.56182861 127.76487732 C24.13231234 127.76248973 26.70190493 127.78345362 29.27227783 127.80540466 C30.05996552 127.79408508 30.8476532 127.7827655 31.65921021 127.77110291 C36.90752859 127.81890682 39.85179623 128.82442031 44.03009033 132.27415466 C45.87384033 134.66477966 45.87384033 134.66477966 47.53009033 137.52415466 C48.19009033 138.6469281 48.85009033 139.76970154 49.53009033 140.92649841 C49.90907471 141.58633728 50.28805908 142.24617615 50.67852783 142.92601013 C52.32214155 145.78155145 53.98858096 148.62332232 55.65509033 151.46556091 C59.12736078 157.39369909 62.58309734 163.3312888 66.03009033 169.27415466 C70.04495645 167.93586596 70.38441987 166.31218147 72.35821533 162.62181091 C72.67030945 162.04764938 72.98240356 161.47348785 73.30395508 160.88192749 C74.30500235 159.03820066 75.29349407 157.18814931 76.28009033 155.33665466 C89.12955284 131.32811077 89.12955284 131.32811077 96.03009033 128.27415466 C98.92156932 127.87048253 101.7745449 127.88041379 104.69024658 127.90306091 C106.38751431 127.8856867 108.08477989 127.86810223 109.78204346 127.85032654 C112.44394768 127.84023704 115.10571655 127.83666305 117.76763916 127.83836365 C120.34641622 127.83479622 122.92415432 127.80747439 125.50274658 127.77806091 C126.29761978 127.78624344 127.09249298 127.79442596 127.91145325 127.80285645 C131.13716016 127.75936637 133.49185091 127.6209027 136.2381897 125.85163879 C138.97722924 121.91178252 138.59641529 118.22925588 138.5635376 113.53611755 C138.57215317 112.54870071 138.58076874 111.56128387 138.58964539 110.54394531 C138.61235923 107.27796764 138.60555607 104.01284429 138.59649658 100.74681091 C138.60172994 98.47763818 138.60800536 96.20846764 138.61528015 93.93930054 C138.62569455 89.18208078 138.62110805 84.42515994 138.60650635 79.66795349 C138.58932202 73.56995595 138.61280491 67.47290092 138.64799595 61.37500858 C138.66995165 56.68839263 138.66853274 52.00200279 138.66023064 47.31535149 C138.65941003 45.06706649 138.66629422 42.81876507 138.68100166 40.57052803 C138.69841196 37.42695752 138.68393284 34.2850882 138.66119385 31.1415863 C138.67288605 30.21207153 138.68457825 29.28255676 138.69662476 28.32487488 C138.63629385 24.22777479 138.33098508 21.80341658 136.27947998 18.19490051 C131.16268419 15.17031271 126.24624605 15.60322544 120.40875244 15.67478943 C119.12697617 15.67084671 117.84519989 15.66690399 116.52458191 15.6628418 C113.01614782 15.65287813 109.50852335 15.67401747 106.00020671 15.70132184 C102.32655466 15.72517721 98.65291797 15.72220708 94.97920227 15.72262573 C88.81137409 15.72725161 82.64385491 15.75087937 76.47613525 15.78709412 C69.34662093 15.82884492 62.2173847 15.84641017 55.08775514 15.84971386 C47.4941745 15.85331427 39.90069381 15.87218869 32.30715489 15.89683414 C30.1201182 15.90306039 27.93308912 15.90669817 25.74604607 15.90986824 C21.67125348 15.91686858 17.59674608 15.94126185 13.52203369 15.96775818 C12.30997253 15.96842285 11.09791138 15.96908752 9.84912109 15.96977234 C8.7401799 15.97974747 7.63123871 15.9897226 6.48869324 16 C5.04384505 16.00697576 5.04384505 16.00697576 3.56980801 16.01409245 C0.90289249 16.28717948 -0.72464515 16.82908594 -2.96990967 18.27415466 Z " fill="#000000" transform="translate(289.96990966796875,-0.2741546630859375)"/>
<path d="M0 0 C2.875 1.5625 2.875 1.5625 5 4 C5.1328125 7.65234375 5.1328125 7.65234375 5 11 C5.60996826 10.98428955 6.21993652 10.9685791 6.84838867 10.95239258 C9.6279971 10.88980187 12.40745692 10.85093378 15.1875 10.8125 C16.62706055 10.77479492 16.62706055 10.77479492 18.09570312 10.73632812 C27.07416443 10.6431261 27.07416443 10.6431261 31 14 C32.56935594 17.13871188 32.35201103 19.53855822 32 23 C29.47197045 26.42027527 28.01924007 27.7971537 23.8203125 28.6328125 C22.88960937 28.75398438 21.95890625 28.87515625 21 29 C20.56300781 30.43279297 20.56300781 30.43279297 20.1171875 31.89453125 C17.76330214 39.38575684 15.18340328 46.09101929 11.0390625 52.828125 C9.64564912 55.09475749 9.64564912 55.09475749 11 58 C13.28539276 59.82989883 13.28539276 59.82989883 16 61.5625 C20.89925769 64.79851538 20.89925769 64.79851538 22 67 C22.49055907 71.33327174 22.47744439 73.32000344 19.9375 76.9375 C17 79 17 79 13.8125 79.75 C9.01651721 78.80652797 6.17153728 76.66514507 2.33203125 73.7265625 C0.27177816 72.20121599 -1.67481795 71.05835873 -4 70 C-4.44730469 70.39832031 -4.89460938 70.79664062 -5.35546875 71.20703125 C-13.90697674 78.70099668 -13.90697674 78.70099668 -19.5 79.5 C-23 79 -23 79 -25.9375 76.9375 C-28 74 -28 74 -28.625 70.5 C-27.5938464 64.72553984 -23.69670782 62.45942518 -19.1875 59.1875 C-18.135625 58.465625 -17.08375 57.74375 -16 57 C-16.99787984 53.77608051 -18.02789713 50.9504051 -19.6875 48 C-21.27271344 44.376655 -21.21813124 42.73560248 -20 39 C-18.4375 36.625 -18.4375 36.625 -16 35 C-13.22136142 34.44084891 -10.77614367 34.41974046 -8 35 C-5.5 36.875 -5.5 36.875 -4 39 C-4 39.66 -4 40.32 -4 41 C-3.34 41 -2.68 41 -2 41 C-1.79503906 40.38511719 -1.59007812 39.77023438 -1.37890625 39.13671875 C-0.25260417 35.7578125 0.87369792 32.37890625 2 29 C0.96593018 28.99589111 -0.06813965 28.99178223 -1.13354492 28.98754883 C-4.98251698 28.96572133 -8.83047198 28.91139574 -12.67895508 28.84741211 C-14.34226712 28.82426334 -16.0057251 28.80984369 -17.66918945 28.80444336 C-20.06553751 28.7951302 -22.45960059 28.75409449 -24.85546875 28.70703125 C-25.96513252 28.71293022 -25.96513252 28.71293022 -27.09721375 28.71894836 C-31.02257988 28.60885128 -32.84494125 28.12104537 -35.97387695 25.6784668 C-38 23 -38 23 -38.5625 19.4375 C-37.92128811 15.51898289 -37.10500781 14.37441774 -34 12 C-31.54724859 10.7736243 -29.9494219 10.88584686 -27.2109375 10.90234375 C-26.26992187 10.90556641 -25.32890625 10.90878906 -24.359375 10.91210938 C-23.37453125 10.92048828 -22.3896875 10.92886719 -21.375 10.9375 C-19.88613281 10.94426758 -19.88613281 10.94426758 -18.3671875 10.95117188 C-15.9113984 10.96297855 -13.45572896 10.979446 -11 11 C-11.04382813 9.89527344 -11.08765625 8.79054688 -11.1328125 7.65234375 C-11 4 -11 4 -8.875 1.5625 C-5.48401457 -0.28042686 -3.80152049 -0.63358675 0 0 Z " fill="#000000" transform="translate(158,32)"/>
<path d="M0 0 C3.80848353 4.6546493 6.33305491 10.45531973 8.85546875 15.8828125 C9.19915497 16.61171188 9.54284119 17.34061127 9.89694214 18.09159851 C10.99929949 20.43352871 12.0939985 22.77892317 13.1875 25.125 C13.94509759 26.74444724 14.70282951 28.36383165 15.46069336 29.9831543 C16.95652755 33.18209387 18.44854812 36.3827788 19.93847656 39.58447266 C21.71759255 43.40332574 23.52273124 47.20894404 25.3359375 51.01171875 C26.24552706 52.94496667 27.15444982 54.87852855 28.0625 56.8125 C28.47330811 57.66279785 28.88411621 58.5130957 29.30737305 59.38916016 C31.49039372 64.10123709 32.59367635 67.69064445 32 73 C29.81160682 76.32635764 28.37659512 76.90585122 24.5 77.875 C19.84663479 78.04119161 19.84663479 78.04119161 17 76 C15.59209934 73.66494525 14.39816059 71.45400847 13.25 69 C12.93417969 68.35804687 12.61835938 67.71609375 12.29296875 67.0546875 C10 62.30992965 10 62.30992965 10 60 C0.1 60 -9.8 60 -20 60 C-20.99 62.97 -20.99 62.97 -22 66 C-22.74363761 67.58592102 -23.53323356 69.15141028 -24.375 70.6875 C-24.97441406 71.80705078 -24.97441406 71.80705078 -25.5859375 72.94921875 C-27.18183644 75.26371307 -28.57600101 76.57731648 -31 78 C-33.80774431 78.29640295 -36.30881405 77.82849673 -39 77 C-41 75.375 -41 75.375 -42 73 C-42.35984829 67.79876917 -41.65376732 64.41103035 -39.39453125 59.73828125 C-38.82903564 58.54976562 -38.26354004 57.36125 -37.6809082 56.13671875 C-37.05826497 54.86190125 -36.43545842 53.58716351 -35.8125 52.3125 C-35.1785004 50.99026865 -34.54595223 49.66734045 -33.91479492 48.34375 C-32.60719597 45.60377719 -31.29368036 42.86675608 -29.9765625 40.13134766 C-27.14061366 34.22433911 -24.39924119 28.27367938 -21.65414429 22.32406616 C-20.32040268 19.43349472 -18.98337626 16.54446097 -17.64453125 13.65625 C-17.20471924 12.70556641 -16.76490723 11.75488281 -16.31176758 10.77539062 C-15.87888428 9.85951172 -15.44600098 8.94363281 -15 8 C-14.49686279 6.93330078 -13.99372559 5.86660156 -13.4753418 4.76757812 C-10.38042014 -1.03815278 -6.10017351 -2.06970173 0 0 Z M-6 29 C-8.97 35.93 -8.97 35.93 -12 43 C-7.38 43 -2.76 43 2 43 C0.02 38.38 -1.96 33.76 -4 29 C-4.66 29 -5.32 29 -6 29 Z " fill="#000000" transform="translate(362,33)"/>
<path d="M0 0 C1.12411285 -0.0087616 2.24822571 -0.01752319 3.40640259 -0.02655029 C7.12158829 -0.04855387 10.83558347 -0.0339866 14.55078125 -0.01708984 C17.13240792 -0.02045766 19.71403305 -0.02530999 22.2956543 -0.03158569 C27.70606036 -0.03895841 33.11601913 -0.02871523 38.52636719 -0.00488281 C44.77562809 0.02232764 51.02407333 0.01351288 57.27331448 -0.01401484 C63.2924823 -0.03946475 69.31125201 -0.0367384 75.33047485 -0.02210617 C77.88856114 -0.01876906 80.44666822 -0.02286985 83.00473022 -0.03450394 C86.57923645 -0.04719283 90.15217327 -0.02785962 93.7265625 0 C94.78541656 -0.01012115 95.84427063 -0.02024231 96.93521118 -0.03067017 C101.7060509 0.03827047 104.09255488 0.08017049 108.02026367 2.96865845 C110.46758717 6.52516348 110.61917016 8.41399479 109.86328125 12.64697266 C107.81591136 15.6222562 106.19093953 17.38012861 102.56558228 18.10878372 C99.60869171 18.30022326 96.68961953 18.32226797 93.7265625 18.29394531 C92.60244965 18.30270691 91.47833679 18.31146851 90.32015991 18.32049561 C86.60497421 18.34249919 82.89097903 18.32793191 79.17578125 18.31103516 C76.59415458 18.31440297 74.01252945 18.3192553 71.4309082 18.32553101 C66.02050214 18.33290373 60.61054337 18.32266055 55.20019531 18.29882812 C48.95093441 18.27161768 42.70248917 18.28043243 36.45324802 18.30796015 C30.4340802 18.33341006 24.41531049 18.33068371 18.39608765 18.31605148 C15.83800136 18.31271438 13.27989428 18.31681516 10.72183228 18.32844925 C7.14732605 18.34113814 3.57438923 18.32180493 0 18.29394531 C-1.05885406 18.30406647 -2.11770813 18.31418762 -3.20864868 18.32461548 C-7.9794884 18.25567484 -10.36599238 18.21377482 -14.29370117 15.32528687 C-16.74102467 11.76878183 -16.89260766 9.87995053 -16.13671875 5.64697266 C-11.83494971 -0.60445396 -6.94911872 -0.0664238 0 0 Z " fill="#000000" transform="translate(108.13671875,371.35302734375)"/>
<path d="M0 0 C1.12411285 -0.0087616 2.24822571 -0.01752319 3.40640259 -0.02655029 C7.12158829 -0.04855387 10.83558347 -0.0339866 14.55078125 -0.01708984 C17.13240792 -0.02045766 19.71403305 -0.02530999 22.2956543 -0.03158569 C27.70606036 -0.03895841 33.11601913 -0.02871523 38.52636719 -0.00488281 C44.77562809 0.02232764 51.02407333 0.01351288 57.27331448 -0.01401484 C63.2924823 -0.03946475 69.31125201 -0.0367384 75.33047485 -0.02210617 C77.88856114 -0.01876906 80.44666822 -0.02286985 83.00473022 -0.03450394 C86.57923645 -0.04719283 90.15217327 -0.02785962 93.7265625 0 C94.78541656 -0.01012115 95.84427063 -0.02024231 96.93521118 -0.03067017 C101.7060509 0.03827047 104.09255488 0.08017049 108.02026367 2.96865845 C110.46758717 6.52516348 110.61917016 8.41399479 109.86328125 12.64697266 C107.81591136 15.6222562 106.19093953 17.38012861 102.56558228 18.10878372 C99.60869171 18.30022326 96.68961953 18.32226797 93.7265625 18.29394531 C92.60244965 18.30270691 91.47833679 18.31146851 90.32015991 18.32049561 C86.60497421 18.34249919 82.89097903 18.32793191 79.17578125 18.31103516 C76.59415458 18.31440297 74.01252945 18.3192553 71.4309082 18.32553101 C66.02050214 18.33290373 60.61054337 18.32266055 55.20019531 18.29882812 C48.95093441 18.27161768 42.70248917 18.28043243 36.45324802 18.30796015 C30.4340802 18.33341006 24.41531049 18.33068371 18.39608765 18.31605148 C15.83800136 18.31271438 13.27989428 18.31681516 10.72183228 18.32844925 C7.14732605 18.34113814 3.57438923 18.32180493 0 18.29394531 C-1.05885406 18.30406647 -2.11770813 18.31418762 -3.20864868 18.32461548 C-7.9794884 18.25567484 -10.36599238 18.21377482 -14.29370117 15.32528687 C-16.74102467 11.76878183 -16.89260766 9.87995053 -16.13671875 5.64697266 C-11.83494971 -0.60445396 -6.94911872 -0.0664238 0 0 Z " fill="#000000" transform="translate(310.13671875,328.35302734375)"/>
<path d="M0 0 C1.12411285 -0.0087616 2.24822571 -0.01752319 3.40640259 -0.02655029 C7.12158829 -0.04855387 10.83558347 -0.0339866 14.55078125 -0.01708984 C17.13240792 -0.02045766 19.71403305 -0.02530999 22.2956543 -0.03158569 C27.70606036 -0.03895841 33.11601913 -0.02871523 38.52636719 -0.00488281 C44.77562809 0.02232764 51.02407333 0.01351288 57.27331448 -0.01401484 C63.2924823 -0.03946475 69.31125201 -0.0367384 75.33047485 -0.02210617 C77.88856114 -0.01876906 80.44666822 -0.02286985 83.00473022 -0.03450394 C86.57923645 -0.04719283 90.15217327 -0.02785962 93.7265625 0 C94.78541656 -0.01012115 95.84427063 -0.02024231 96.93521118 -0.03067017 C101.7060509 0.03827047 104.09255488 0.08017049 108.02026367 2.96865845 C110.46758717 6.52516348 110.61917016 8.41399479 109.86328125 12.64697266 C107.81591136 15.6222562 106.19093953 17.38012861 102.56558228 18.10878372 C99.60869171 18.30022326 96.68961953 18.32226797 93.7265625 18.29394531 C92.60244965 18.30270691 91.47833679 18.31146851 90.32015991 18.32049561 C86.60497421 18.34249919 82.89097903 18.32793191 79.17578125 18.31103516 C76.59415458 18.31440297 74.01252945 18.3192553 71.4309082 18.32553101 C66.02050214 18.33290373 60.61054337 18.32266055 55.20019531 18.29882812 C48.95093441 18.27161768 42.70248917 18.28043243 36.45324802 18.30796015 C30.4340802 18.33341006 24.41531049 18.33068371 18.39608765 18.31605148 C15.83800136 18.31271438 13.27989428 18.31681516 10.72183228 18.32844925 C7.14732605 18.34113814 3.57438923 18.32180493 0 18.29394531 C-1.05885406 18.30406647 -2.11770813 18.31418762 -3.20864868 18.32461548 C-7.9794884 18.25567484 -10.36599238 18.21377482 -14.29370117 15.32528687 C-16.74102467 11.76878183 -16.89260766 9.87995053 -16.13671875 5.64697266 C-11.83494971 -0.60445396 -6.94911872 -0.0664238 0 0 Z " fill="#000000" transform="translate(108.13671875,328.35302734375)"/>
<path d="M0 0 C1.12411285 -0.0087616 2.24822571 -0.01752319 3.40640259 -0.02655029 C7.12158829 -0.04855387 10.83558347 -0.0339866 14.55078125 -0.01708984 C17.13240792 -0.02045766 19.71403305 -0.02530999 22.2956543 -0.03158569 C27.70606036 -0.03895841 33.11601913 -0.02871523 38.52636719 -0.00488281 C44.77562809 0.02232764 51.02407333 0.01351288 57.27331448 -0.01401484 C63.2924823 -0.03946475 69.31125201 -0.0367384 75.33047485 -0.02210617 C77.88856114 -0.01876906 80.44666822 -0.02286985 83.00473022 -0.03450394 C86.57923645 -0.04719283 90.15217327 -0.02785962 93.7265625 0 C94.78541656 -0.01012115 95.84427063 -0.02024231 96.93521118 -0.03067017 C101.7060509 0.03827047 104.09255488 0.08017049 108.02026367 2.96865845 C110.46758717 6.52516348 110.61917016 8.41399479 109.86328125 12.64697266 C107.81591136 15.6222562 106.19093953 17.38012861 102.56558228 18.10878372 C99.60869171 18.30022326 96.68961953 18.32226797 93.7265625 18.29394531 C92.60244965 18.30270691 91.47833679 18.31146851 90.32015991 18.32049561 C86.60497421 18.34249919 82.89097903 18.32793191 79.17578125 18.31103516 C76.59415458 18.31440297 74.01252945 18.3192553 71.4309082 18.32553101 C66.02050214 18.33290373 60.61054337 18.32266055 55.20019531 18.29882812 C48.95093441 18.27161768 42.70248917 18.28043243 36.45324802 18.30796015 C30.4340802 18.33341006 24.41531049 18.33068371 18.39608765 18.31605148 C15.83800136 18.31271438 13.27989428 18.31681516 10.72183228 18.32844925 C7.14732605 18.34113814 3.57438923 18.32180493 0 18.29394531 C-1.05885406 18.30406647 -2.11770813 18.31418762 -3.20864868 18.32461548 C-7.9794884 18.25567484 -10.36599238 18.21377482 -14.29370117 15.32528687 C-16.74102467 11.76878183 -16.89260766 9.87995053 -16.13671875 5.64697266 C-11.83494971 -0.60445396 -6.94911872 -0.0664238 0 0 Z " fill="#000000" transform="translate(310.13671875,285.35302734375)"/>
<path d="M0 0 C1.12411285 -0.0087616 2.24822571 -0.01752319 3.40640259 -0.02655029 C7.12158829 -0.04855387 10.83558347 -0.0339866 14.55078125 -0.01708984 C17.13240792 -0.02045766 19.71403305 -0.02530999 22.2956543 -0.03158569 C27.70606036 -0.03895841 33.11601913 -0.02871523 38.52636719 -0.00488281 C44.77562809 0.02232764 51.02407333 0.01351288 57.27331448 -0.01401484 C63.2924823 -0.03946475 69.31125201 -0.0367384 75.33047485 -0.02210617 C77.88856114 -0.01876906 80.44666822 -0.02286985 83.00473022 -0.03450394 C86.57923645 -0.04719283 90.15217327 -0.02785962 93.7265625 0 C94.78541656 -0.01012115 95.84427063 -0.02024231 96.93521118 -0.03067017 C101.7060509 0.03827047 104.09255488 0.08017049 108.02026367 2.96865845 C110.46758717 6.52516348 110.61917016 8.41399479 109.86328125 12.64697266 C107.81591136 15.6222562 106.19093953 17.38012861 102.56558228 18.10878372 C99.60869171 18.30022326 96.68961953 18.32226797 93.7265625 18.29394531 C92.60244965 18.30270691 91.47833679 18.31146851 90.32015991 18.32049561 C86.60497421 18.34249919 82.89097903 18.32793191 79.17578125 18.31103516 C76.59415458 18.31440297 74.01252945 18.3192553 71.4309082 18.32553101 C66.02050214 18.33290373 60.61054337 18.32266055 55.20019531 18.29882812 C48.95093441 18.27161768 42.70248917 18.28043243 36.45324802 18.30796015 C30.4340802 18.33341006 24.41531049 18.33068371 18.39608765 18.31605148 C15.83800136 18.31271438 13.27989428 18.31681516 10.72183228 18.32844925 C7.14732605 18.34113814 3.57438923 18.32180493 0 18.29394531 C-1.05885406 18.30406647 -2.11770813 18.31418762 -3.20864868 18.32461548 C-7.9794884 18.25567484 -10.36599238 18.21377482 -14.29370117 15.32528687 C-16.74102467 11.76878183 -16.89260766 9.87995053 -16.13671875 5.64697266 C-11.83494971 -0.60445396 -6.94911872 -0.0664238 0 0 Z " fill="#000000" transform="translate(108.13671875,285.35302734375)"/>
<path d="M0 0 C1.11435928 -0.00554901 2.22871857 -0.01109802 3.37684631 -0.01681519 C7.05961126 -0.02862384 10.74114925 -0.00432184 14.42382812 0.02148438 C16.98303166 0.02319519 19.54223694 0.02313009 22.10144043 0.0213623 C27.46478373 0.02301626 32.82769897 0.04114661 38.19091797 0.07324219 C44.38549098 0.11013346 50.57960201 0.11891737 56.77427053 0.11194468 C62.74105145 0.10563239 68.70769552 0.11662102 74.67445374 0.13591003 C77.21020231 0.14294433 79.74596484 0.14606405 82.28172302 0.1452179 C85.82479099 0.14701437 89.36720181 0.16838473 92.91015625 0.1953125 C93.95965958 0.1923819 95.0091629 0.18945129 96.09046936 0.18643188 C105.06313227 0.29171512 105.06313227 0.29171512 108.95507812 3.61523438 C110.52443406 6.75394625 110.30708915 9.15379259 109.95507812 12.61523438 C107.91883923 15.61270181 106.29236926 17.34699452 102.65640259 18.07631302 C99.69977192 18.26861588 96.78121172 18.29052773 93.81835938 18.26220703 C92.69424652 18.27096863 91.57013367 18.27973022 90.41195679 18.28875732 C86.69677108 18.3107609 82.9827759 18.29619363 79.26757812 18.27929688 C76.68595145 18.28266469 74.10432632 18.28751702 71.52270508 18.29379272 C66.11229901 18.30116544 60.70234025 18.29092226 55.29199219 18.26708984 C49.04273128 18.23987939 42.79428604 18.24869415 36.5450449 18.27622187 C30.52587708 18.30167178 24.50710736 18.29894543 18.48788452 18.2843132 C15.92979824 18.2809761 13.37169116 18.28507688 10.81362915 18.29671097 C7.23912292 18.30939986 3.6661861 18.29006665 0.09179688 18.26220703 C-0.96705719 18.27232819 -2.02591125 18.28244934 -3.11685181 18.2928772 C-7.88769153 18.22393656 -10.2741955 18.18203654 -14.2019043 15.29354858 C-16.64922779 11.73704355 -16.80081078 9.84821224 -16.04492188 5.61523438 C-11.7471056 -0.61567694 -6.93277426 -0.0876139 0 0 Z " fill="#000000" transform="translate(310.044921875,371.384765625)"/>
<path d="M0 0 C1.12411285 -0.0087616 2.24822571 -0.01752319 3.40640259 -0.02655029 C7.12158829 -0.04855387 10.83558347 -0.0339866 14.55078125 -0.01708984 C17.13240792 -0.02045766 19.71403305 -0.02530999 22.2956543 -0.03158569 C27.70606036 -0.03895841 33.11601913 -0.02871523 38.52636719 -0.00488281 C44.77562809 0.02232764 51.02407333 0.01351288 57.27331448 -0.01401484 C63.2924823 -0.03946475 69.31125201 -0.0367384 75.33047485 -0.02210617 C77.88856114 -0.01876906 80.44666822 -0.02286985 83.00473022 -0.03450394 C86.57923645 -0.04719283 90.15217327 -0.02785962 93.7265625 0 C94.78541656 -0.01012115 95.84427063 -0.02024231 96.93521118 -0.03067017 C101.7057962 0.03826679 104.09521426 0.08446861 108.02807617 2.9647522 C110.42688713 6.47070361 110.46957473 8.47870501 109.86328125 12.64697266 C108.10312994 15.83200835 107.36437209 16.47994238 103.86328125 17.64697266 C102.30128456 17.74646064 100.73544589 17.79047526 99.1703186 17.8008728 C98.20579269 17.80947327 97.24126678 17.81807373 96.24751282 17.82693481 C95.19081894 17.83119476 94.13412506 17.83545471 93.04541016 17.83984375 C91.93134293 17.84802124 90.8172757 17.85619873 89.66944885 17.86462402 C85.97625265 17.88947352 82.2830948 17.90599086 78.58984375 17.92041016 C76.70021471 17.92839567 76.70021471 17.92839567 74.77241135 17.93654251 C69.47945767 17.95776816 64.18651743 17.97689902 58.89353371 17.9881649 C51.31238278 18.00440873 43.73174393 18.03760654 36.15078604 18.09456575 C30.17442952 18.13793646 24.1983062 18.15390973 18.22178268 18.16029739 C15.68040695 18.16702622 13.13903915 18.18229021 10.59776688 18.2061882 C7.04475918 18.23770055 3.49305134 18.23789698 -0.06005859 18.23046875 C-1.11270401 18.24687408 -2.16534943 18.26327942 -3.24989319 18.28018188 C-8.01262659 18.23934482 -10.36659602 18.21303615 -14.28994751 15.32925415 C-16.74019526 11.77047327 -16.89323673 9.88347336 -16.13671875 5.64697266 C-11.83494971 -0.60445396 -6.94911872 -0.0664238 0 0 Z " fill="#000000" transform="translate(310.13671875,242.35302734375)"/>
<path d="M0 0 C1.43416763 -0.00856522 1.43416763 -0.00856522 2.89730835 -0.01730347 C3.94465149 -0.01842133 4.99199463 -0.01953918 6.07107544 -0.02069092 C7.1753891 -0.02565582 8.27970276 -0.03062073 9.41748047 -0.03573608 C13.07822284 -0.05036611 16.73892189 -0.05716078 20.39968872 -0.06268311 C22.93933107 -0.06843341 25.47897341 -0.07419116 28.01861572 -0.07995605 C32.66539652 -0.08912403 37.31216428 -0.09542368 41.95895183 -0.09845281 C48.79494 -0.10293375 55.63072823 -0.12048507 62.46665561 -0.1494534 C68.39066369 -0.17368468 74.31462202 -0.18139758 80.23868179 -0.18312836 C82.75770278 -0.18615886 85.27672284 -0.19420069 87.79571152 -0.20731354 C91.31734179 -0.22433854 94.83848339 -0.22250229 98.36013794 -0.21600342 C99.40343262 -0.2252182 100.44672729 -0.23443298 101.52163696 -0.243927 C110.44415744 -0.19225993 110.44415744 -0.19225993 114.34500122 3.14044189 C115.91435716 6.27915377 115.69701225 8.67900011 115.34500122 12.14044189 C113.30876233 15.13790933 111.68229236 16.87220204 108.04632568 17.60152054 C105.08969501 17.7938234 102.17113481 17.81573525 99.20828247 17.78741455 C98.08416962 17.79617615 96.96005676 17.80493774 95.80187988 17.81396484 C92.08669418 17.83596842 88.372699 17.82140115 84.65750122 17.80450439 C82.07587455 17.80787221 79.49424942 17.81272454 76.91262817 17.81900024 C71.50222211 17.82637296 66.09226334 17.81612978 60.68191528 17.79229736 C54.43265438 17.76508691 48.18420914 17.77390167 41.93496799 17.80142939 C35.91580018 17.8268793 29.89703046 17.82415295 23.87780762 17.80952072 C21.31972133 17.80618361 18.76161425 17.8102844 16.20355225 17.82191849 C12.62904602 17.83460738 9.0561092 17.81527417 5.48171997 17.78741455 C4.42286591 17.79753571 3.36401184 17.80765686 2.27307129 17.81808472 C-2.49751373 17.74914776 -4.88693179 17.70294594 -8.8197937 14.82266235 C-11.21860466 11.31671094 -11.26129225 9.30870954 -10.65499878 5.14044189 C-8.07273498 0.46777407 -5.06192808 0.01811071 0 0 Z " fill="#000000" transform="translate(304.6549987792969,414.85955810546875)"/>
<path d="M0 0 C1.43416763 -0.00856522 1.43416763 -0.00856522 2.89730835 -0.01730347 C3.94465149 -0.01842133 4.99199463 -0.01953918 6.07107544 -0.02069092 C7.1753891 -0.02565582 8.27970276 -0.03062073 9.41748047 -0.03573608 C13.07822284 -0.05036611 16.73892189 -0.05716078 20.39968872 -0.06268311 C22.93933107 -0.06843341 25.47897341 -0.07419116 28.01861572 -0.07995605 C32.66539652 -0.08912403 37.31216428 -0.09542368 41.95895183 -0.09845281 C48.79494 -0.10293375 55.63072823 -0.12048507 62.46665561 -0.1494534 C68.39066369 -0.17368468 74.31462202 -0.18139758 80.23868179 -0.18312836 C82.75770278 -0.18615886 85.27672284 -0.19420069 87.79571152 -0.20731354 C91.31734179 -0.22433854 94.83848339 -0.22250229 98.36013794 -0.21600342 C99.40343262 -0.2252182 100.44672729 -0.23443298 101.52163696 -0.243927 C110.44415744 -0.19225993 110.44415744 -0.19225993 114.34500122 3.14044189 C115.91435716 6.27915377 115.69701225 8.67900011 115.34500122 12.14044189 C113.30876233 15.13790933 111.68229236 16.87220204 108.04632568 17.60152054 C105.08969501 17.7938234 102.17113481 17.81573525 99.20828247 17.78741455 C98.08416962 17.79617615 96.96005676 17.80493774 95.80187988 17.81396484 C92.08669418 17.83596842 88.372699 17.82140115 84.65750122 17.80450439 C82.07587455 17.80787221 79.49424942 17.81272454 76.91262817 17.81900024 C71.50222211 17.82637296 66.09226334 17.81612978 60.68191528 17.79229736 C54.43265438 17.76508691 48.18420914 17.77390167 41.93496799 17.80142939 C35.91580018 17.8268793 29.89703046 17.82415295 23.87780762 17.80952072 C21.31972133 17.80618361 18.76161425 17.8102844 16.20355225 17.82191849 C12.62904602 17.83460738 9.0561092 17.81527417 5.48171997 17.78741455 C4.42286591 17.79753571 3.36401184 17.80765686 2.27307129 17.81808472 C-2.49751373 17.74914776 -4.88693179 17.70294594 -8.8197937 14.82266235 C-11.21860466 11.31671094 -11.26129225 9.30870954 -10.65499878 5.14044189 C-8.07273498 0.46777407 -5.06192808 0.01811071 0 0 Z " fill="#000000" transform="translate(102.65499877929688,414.85955810546875)"/>
<path d="M0 0 C1.12411285 -0.0087616 2.24822571 -0.01752319 3.40640259 -0.02655029 C7.12158829 -0.04855387 10.83558347 -0.0339866 14.55078125 -0.01708984 C17.13240792 -0.02045766 19.71403305 -0.02530999 22.2956543 -0.03158569 C27.70606036 -0.03895841 33.11601913 -0.02871523 38.52636719 -0.00488281 C44.77562809 0.02232764 51.02407333 0.01351288 57.27331448 -0.01401484 C63.2924823 -0.03946475 69.31125201 -0.0367384 75.33047485 -0.02210617 C77.88856114 -0.01876906 80.44666822 -0.02286985 83.00473022 -0.03450394 C86.57923645 -0.04719283 90.15217327 -0.02785962 93.7265625 0 C94.78541656 -0.01012115 95.84427063 -0.02024231 96.93521118 -0.03067017 C101.7057962 0.03826679 104.09521426 0.08446861 108.02807617 2.9647522 C110.42688713 6.47070361 110.46957473 8.47870501 109.86328125 12.64697266 C108.10312994 15.83200835 107.36437209 16.47994238 103.86328125 17.64697266 C102.31384043 17.74232929 100.76064483 17.78186046 99.20828247 17.78741455 C97.77411484 17.79597977 97.77411484 17.79597977 96.31097412 17.80471802 C95.26363098 17.80583588 94.21628784 17.80695374 93.13720703 17.80810547 C92.03289337 17.81307037 90.92857971 17.81803528 89.790802 17.82315063 C86.13005963 17.83778066 82.46936058 17.84457533 78.80859375 17.85009766 C76.2689514 17.85584797 73.72930907 17.86160571 71.18966675 17.86737061 C66.54288595 17.87653858 61.89611819 17.88283823 57.24933064 17.88586736 C50.41334247 17.8903483 43.57755424 17.90789962 36.74162686 17.93686795 C30.81761878 17.96109923 24.89366045 17.96881213 18.96960068 17.97054291 C16.45057969 17.97357341 13.93155963 17.98161524 11.41257095 17.99472809 C7.89094068 18.01175309 4.36979909 18.00991684 0.84814453 18.00341797 C-0.19515015 18.01263275 -1.23844482 18.02184753 -2.31335449 18.03134155 C-11.23587497 17.97967448 -11.23587497 17.97967448 -15.13671875 14.64697266 C-16.70607469 11.50826078 -16.48872978 9.10841444 -16.13671875 5.64697266 C-11.87884744 -0.62087274 -6.92440289 -0.06618755 0 0 Z " fill="#000000" transform="translate(108.13671875,242.35302734375)"/>
</svg>
