<?xml version="1.0" encoding="UTF-8"?>
<svg version="1.1" xmlns="http://www.w3.org/2000/svg" width="512" height="512">
<path d="M0 0 C102.96 0 205.92 0 312 0 C312 47.52 312 95.04 312 144 C343.71156345 143.84193263 343.71156345 143.84193263 375.42285156 143.63964844 C381.58935547 143.62158203 381.58935547 143.62158203 384.48626709 143.6182251 C386.48744272 143.61212716 388.48860467 143.59815193 390.48968506 143.57769775 C408.76708151 143.40039277 421.88854406 145.4519807 435.75 158.3125 C445.32415101 168.42858408 448.46664218 179.98076101 448.38768005 193.599823 C448.39575836 195.29052986 448.39575836 195.29052986 448.40399987 197.01539242 C448.41824176 200.77062845 448.41118479 204.5255101 448.40405273 208.28076172 C448.40975827 210.981955 448.41662325 213.68312335 448.42485046 216.38430786 C448.44199989 222.94695919 448.44288649 229.50951461 448.43763756 236.07218252 C448.4335873 241.40937955 448.43504956 246.74654836 448.44038582 252.08374405 C448.44113424 252.84492418 448.44188266 253.60610431 448.44265376 254.3903505 C448.44418533 255.93695839 448.44572368 257.48356627 448.44726873 259.03017415 C448.4609799 273.51670228 448.4555659 288.00317632 448.44408352 302.48970319 C448.43415333 315.72446065 448.44709053 328.95907826 448.47101771 342.19381414 C448.49543721 355.80407256 448.50500954 369.41426592 448.49836498 383.02454579 C448.49487899 390.65734431 448.49706369 398.29003534 448.51461601 405.92281723 C448.52937375 412.42059965 448.52992707 418.91819886 448.5125451 425.41597782 C448.50406157 428.72700929 448.5040074 432.03744694 448.51719666 435.34850311 C448.5304369 438.94804399 448.5188307 442.54670598 448.50120544 446.14620972 C448.51081045 447.17833615 448.52041546 448.21046259 448.53031152 449.27386558 C448.39203079 463.0697263 442.94927735 473.76737678 433.6875 483.75 C421.14018384 495.62513851 407.40011128 496.44814112 391.06298828 496.40405273 C389.14996951 496.40976214 387.23695414 496.4167286 385.32394409 496.42485046 C380.15029234 496.44273456 374.97681064 496.44162234 369.8031373 496.43590808 C365.47431251 496.43280914 361.14552004 496.43891656 356.81669986 496.44494683 C346.59928927 496.45897506 336.38196232 496.45744512 326.16455078 496.44604492 C315.64557121 496.43456715 305.1268467 496.44863762 294.60790074 496.4754414 C285.55618824 496.49763759 276.50455557 496.50422689 267.4528178 496.49836498 C262.05565268 496.49500338 256.65865101 496.49735738 251.26150894 496.51461601 C246.18388948 496.53014545 241.10664622 496.52606324 236.02904129 496.50731087 C234.17318287 496.50364146 232.3172962 496.50668496 230.46146393 496.51719666 C213.36839279 496.60656948 200.76876386 493.57620317 188.0625 481.375 C185.38175163 478.67449182 184.06657746 476.44429577 182 473 C91.91 472.505 91.91 472.505 0 472 C0 316.24 0 160.48 0 0 Z M16 16 C16 161.2 16 306.4 16 456 C68.8 456 121.6 456 176 456 C176 445.44 176 434.88 176 424 C133.76 424 91.52 424 48 424 C48.33 377.8 48.66 331.6 49 284 C52.63 287.96 56.26 291.92 60 296 C62.30845804 298.48323089 64.61903259 300.96371504 66.9375 303.4375 C71.30793793 308.11017459 75.66544661 312.79401709 80 317.5 C84.31483794 322.18408364 88.6512397 326.84739619 93 331.5 C97.83960796 336.67774651 102.65905839 341.87320243 107.4609375 347.0859375 C111.29051457 351.23971157 115.14208969 355.37254137 119 359.5 C123.83960796 364.67774651 128.65905839 369.87320243 133.4609375 375.0859375 C137.29051495 379.23971199 141.14214453 383.37248965 145 387.5 C149.40844433 392.21759698 153.80807376 396.94294259 158.1875 401.6875 C158.91030151 402.47000122 158.91030151 402.47000122 159.64770508 403.26831055 C162.16207212 405.99408309 164.66525233 408.72940928 167.15625 411.4765625 C167.66518799 412.03641846 168.17412598 412.59627441 168.69848633 413.1730957 C169.67205616 414.24499625 170.64334784 415.31897156 171.61206055 416.39526367 C172.72117196 417.61551431 173.85780486 418.81065984 175 420 C175.33 420 175.66 420 176 420 C176.00146656 418.78447323 176.00293312 417.56894646 176.00444412 416.31658554 C176.04018612 387.42879726 176.09648495 358.54109757 176.17792095 329.65340362 C176.18793779 326.09380595 176.19778202 322.53420782 176.20751953 318.97460938 C176.21043159 317.91168149 176.21043159 317.91168149 176.21340248 316.82728031 C176.24437975 305.37024035 176.26139117 293.91322038 176.27319422 282.45614645 C176.28562798 270.69034251 176.31317939 258.92464315 176.35461307 247.15890527 C176.37744158 240.55437718 176.39291106 233.94996423 176.39188385 227.34539032 C176.39113687 221.12373386 176.40910391 214.90240691 176.44116783 208.68083572 C176.44965769 206.40251036 176.45142302 204.124148 176.44580269 201.84581375 C176.41164721 185.86654576 177.103321 172.65968944 188 160 C191.75184416 156.27936919 195.60252471 152.93165019 200 150 C198.67879172 147.06769807 197.25361803 145.01335101 194.9609375 142.765625 C194.38085938 142.19199219 193.80078125 141.61835938 193.203125 141.02734375 C192.59984375 140.44082031 191.9965625 139.85429687 191.375 139.25 C190.45847656 138.34701172 190.45847656 138.34701172 189.5234375 137.42578125 C188.02011376 135.94594695 186.51065144 134.47235324 185 133 C181.13671373 134.5847358 178.71123077 137.05956887 175.796875 140.0078125 C175.0728952 140.73603714 175.0728952 140.73603714 174.33428955 141.47897339 C172.80141438 143.02299866 171.27565996 144.57384824 169.75 146.125 C168.70879639 147.17624009 167.66713459 148.22702657 166.625 149.27734375 C164.07800536 151.84633004 161.53734823 154.42148161 159 157 C155.58940597 155.39464713 153.38207516 153.59481099 150.75 150.875 C150.04359375 150.15054688 149.3371875 149.42609375 148.609375 148.6796875 C147.81273437 147.84824219 147.81273437 147.84824219 147 147 C148.5847358 143.13671373 151.05956887 140.71123077 154.0078125 137.796875 C154.49329559 137.3142218 154.97877869 136.8315686 155.47897339 136.33428955 C157.02299866 134.80141438 158.57384824 133.27565996 160.125 131.75 C161.17624009 130.70879639 162.22702657 129.66713459 163.27734375 128.625 C165.84633004 126.07800536 168.42148161 123.53734823 171 121 C169.4152642 117.13671373 166.94043113 114.71123077 163.9921875 111.796875 C163.50670441 111.3142218 163.02122131 110.8315686 162.52102661 110.33428955 C160.97700134 108.80141438 159.42615176 107.27565996 157.875 105.75 C156.82375991 104.70879639 155.77297343 103.66713459 154.72265625 102.625 C152.15366996 100.07800536 149.57851839 97.53734823 147 95 C148.60535287 91.58940597 150.40518901 89.38207516 153.125 86.75 C153.84945312 86.04359375 154.57390625 85.3371875 155.3203125 84.609375 C156.15175781 83.81273438 156.15175781 83.81273438 157 83 C160.86328627 84.5847358 163.28876923 87.05956887 166.203125 90.0078125 C166.6857782 90.49329559 167.1684314 90.97877869 167.66571045 91.47897339 C169.19858562 93.02299866 170.72434004 94.57384824 172.25 96.125 C173.29120361 97.17624009 174.33286541 98.22702657 175.375 99.27734375 C177.92199464 101.84633004 180.46265177 104.42148161 183 107 C186.86328627 105.4152642 189.28876923 102.94043113 192.203125 99.9921875 C192.6857782 99.50670441 193.1684314 99.02122131 193.66571045 98.52102661 C195.19858562 96.97700134 196.72434004 95.42615176 198.25 93.875 C199.29120361 92.82375991 200.33286541 91.77297343 201.375 90.72265625 C203.92199464 88.15366996 206.46265177 85.57851839 209 83 C212.41059403 84.60535287 214.61792484 86.40518901 217.25 89.125 C217.95640625 89.84945312 218.6628125 90.57390625 219.390625 91.3203125 C219.92171875 91.87460938 220.4528125 92.42890625 221 93 C219.4152642 96.86328627 216.94043113 99.28876923 213.9921875 102.203125 C213.50670441 102.6857782 213.02122131 103.1684314 212.52102661 103.66571045 C210.97700134 105.19858562 209.42615176 106.72434004 207.875 108.25 C206.82375991 109.29120361 205.77297343 110.33286541 204.72265625 111.375 C202.15366996 113.92199464 199.57851839 116.46265177 197 119 C201.58406973 128.85093753 210.06500759 139.12715076 220 144 C232.21212357 147.86379815 246.87360107 145.94220682 259.3125 145.3125 C271.419375 144.879375 283.52625 144.44625 296 144 C296 101.76 296 59.52 296 16 C203.6 16 111.2 16 16 16 Z M199.625 171.25 C192.39776844 180.50413219 191.84830393 191.24331105 191.86628723 202.48651123 C191.86402167 203.53012038 191.86175612 204.57372954 191.85942191 205.64896321 C191.85310134 209.13935918 191.85391003 212.62971613 191.85473633 216.12011719 C191.85174362 218.62543793 191.84834083 221.13075821 191.84455872 223.63607788 C191.83664289 229.73154927 191.83350454 235.82700641 191.83294634 241.92248246 C191.83247044 246.87979327 191.83041204 251.8371009 191.82724571 256.79441071 C191.8184429 270.86374026 191.81382571 284.9330622 191.81457619 299.00239453 C191.81461614 299.76021761 191.8146561 300.5180407 191.81469727 301.29882812 C191.81473815 302.05758158 191.81477903 302.81633504 191.81482115 303.59808102 C191.81522744 315.88955127 191.80566124 328.18099087 191.7915589 340.47245225 C191.77717741 353.10739781 191.7702897 365.74232843 191.77115268 378.37728238 C191.77148405 385.46512475 191.7687632 392.55293498 191.75797462 399.64076996 C191.74788958 406.30890375 191.74822308 412.97695857 191.75549126 419.64509964 C191.75653556 422.08834813 191.7541834 424.53160086 191.7481308 426.97484207 C191.74038609 430.31849194 191.74507221 433.66190916 191.75276184 437.0055542 C191.74761828 437.96482087 191.74247471 438.92408754 191.73717529 439.9124229 C191.79183204 450.71986887 193.10588463 460.37133108 200 469 C209.15000596 477.98087462 218.86947579 480.11720564 231.44940186 480.13371277 C232.16632682 480.13597833 232.88325179 480.13824388 233.62190175 480.14057809 C236.00674029 480.1468713 238.39152131 480.14609175 240.77636719 480.14526367 C242.49352084 480.14825811 244.21067382 480.1516613 245.92782593 480.15544128 C250.58089777 480.16425713 255.23395121 480.1666184 259.8870306 480.16725707 C262.79797239 480.16796902 265.70890953 480.1701061 268.61985016 480.17275429 C278.78628332 480.18200018 288.9527034 480.18609018 299.11914062 480.18530273 C308.57747961 480.18470235 318.03576149 480.19524833 327.49408603 480.2110464 C335.62936633 480.22414763 343.76462803 480.22948554 351.89991879 480.22884732 C356.75211423 480.22859307 361.60425891 480.23140409 366.45644379 480.24202538 C371.02339931 480.25174974 375.59025599 480.25175595 380.15721512 480.24450874 C381.82643657 480.24346823 383.49566431 480.24579384 385.16487503 480.2518692 C404.27610089 480.37286538 404.27610089 480.37286538 421 472 C430.8918589 461.92185374 432.15534266 451.03654664 432.13371277 437.51348877 C432.1371111 435.94807504 432.1371111 435.94807504 432.14057809 434.35103679 C432.14689866 430.86064082 432.14608997 427.37028387 432.14526367 423.87988281 C432.14825638 421.37456207 432.15165917 418.86924179 432.15544128 416.36392212 C432.16335711 410.26845073 432.16649546 404.17299359 432.16705366 398.07751754 C432.16752956 393.12020673 432.16958796 388.1628991 432.17275429 383.20558929 C432.1815571 369.13625974 432.18617429 355.0669378 432.18542381 340.99760547 C432.18538386 340.23978239 432.1853439 339.4819593 432.18530273 338.70117188 C432.18524141 337.56304169 432.18524141 337.56304169 432.18517885 336.40191898 C432.18477256 324.11044873 432.19433876 311.81900913 432.2084411 299.52754775 C432.22282259 286.89260219 432.2297103 274.25767157 432.22884732 261.62271762 C432.22851595 254.53487525 432.2312368 247.44706502 432.24202538 240.35923004 C432.25211042 233.69109625 432.25177692 227.02304143 432.24450874 220.35490036 C432.24346444 217.91165187 432.2458166 215.46839914 432.2518692 213.02515793 C432.25961391 209.68150806 432.25492779 206.33809084 432.24723816 202.9944458 C432.2549535 201.5555458 432.2549535 201.5555458 432.26282471 200.0875771 C432.20816796 189.28013113 430.89411537 179.62866892 424 171 C414.84999404 162.01912538 405.13052421 159.88279436 392.55059814 159.86628723 C391.83367318 159.86402167 391.11674821 159.86175612 390.37809825 159.85942191 C387.99325971 159.8531287 385.60847869 159.85390825 383.22363281 159.85473633 C381.50647916 159.85174189 379.78932618 159.8483387 378.07217407 159.84455872 C373.41910223 159.83574287 368.76604879 159.8333816 364.1129694 159.83274293 C361.20202761 159.83203098 358.29109047 159.8298939 355.38014984 159.82724571 C345.21371668 159.81799982 335.0472966 159.81390982 324.88085938 159.81469727 C315.42252039 159.81529765 305.96423851 159.80475167 296.50591397 159.7889536 C288.37063367 159.77585237 280.23537197 159.77051446 272.10008121 159.77115268 C267.24788577 159.77140693 262.39574109 159.76859591 257.54355621 159.75797462 C252.97660069 159.74825026 248.40974401 159.74824405 243.84278488 159.75549126 C242.17356343 159.75653177 240.50433569 159.75420616 238.83512497 159.7481308 C224.14199163 159.69814765 210.38241467 159.84552279 199.625 171.25 Z M64 326 C62.02747743 337.72752919 60.232422 351.18290044 67.16755676 361.57535934 C72.34659165 368.53666016 78.56665506 374.57793609 84.8984375 380.47998047 C87.92733201 383.30333554 90.81818168 386.23359444 93.69148254 389.21412277 C107.64031178 403.97470667 107.64031178 403.97470667 126.46374512 409.63504028 C131.06065305 409.45536178 135.50315938 408.97445011 140 408 C137.33779142 403.91642792 134.70608365 400.50505673 131.1875 397.125 C127.53409928 393.60518945 124.17133363 389.94111128 120.85424805 386.11035156 C117.76375136 382.59300418 114.53495002 379.20858191 111.3125 375.8125 C106.47257543 370.69148278 101.64528055 365.56100543 96.875 360.375 C92.02150009 355.09909793 87.1375944 349.85248025 82.23901367 344.6184082 C79.30400351 341.47957221 76.38077022 338.33112011 73.48046875 335.16015625 C72.92552734 334.55429687 72.37058594 333.9484375 71.79882812 333.32421875 C70.74441684 332.17139575 69.69223985 331.01652421 68.64257812 329.859375 C67.44829216 328.55441523 66.22698693 327.27426138 65 326 C64.67 326 64.34 326 64 326 Z M64 381 C64 389.91 64 398.82 64 408 C72.91 408 81.82 408 91 408 C87.39445886 403.79353534 83.95709997 399.82976127 80.07421875 395.94140625 C79.19572266 395.06162109 78.31722656 394.18183594 77.41210938 393.27539062 C76.51298828 392.38013672 75.61386719 391.48488281 74.6875 390.5625 C73.76904297 389.64017578 72.85058594 388.71785156 71.90429688 387.76757812 C71.03224609 386.89681641 70.16019531 386.02605469 69.26171875 385.12890625 C68.46725342 384.33556885 67.67278809 383.54223145 66.85424805 382.72485352 C65.30004467 380.88648368 65.30004467 380.88648368 64 381 Z " fill="#000000" transform="translate(56,8)"/>
<path d="M0 0 C0.70916571 -0.00453111 1.41833142 -0.00906223 2.148987 -0.01373065 C4.51945057 -0.02636598 6.88968414 -0.02475486 9.26017761 -0.02310181 C10.96220189 -0.02908763 12.66422346 -0.0358933 14.36624146 -0.04345703 C18.98618443 -0.06111944 23.6060533 -0.06581253 28.22602677 -0.0670886 C31.11382393 -0.0685107 34.00160228 -0.07278144 36.88939476 -0.07808304 C46.96807933 -0.0965846 57.046711 -0.10475355 67.12541199 -0.10317993 C76.51340452 -0.10197872 85.90116708 -0.1230767 95.28910142 -0.15466726 C103.35466428 -0.18083875 111.42015207 -0.19154685 119.48575705 -0.19026911 C124.30050122 -0.18975971 129.11504102 -0.19543105 133.92974281 -0.21662521 C138.45982406 -0.23602211 142.98950631 -0.23612219 147.51960182 -0.22159195 C149.17879826 -0.2195045 150.83801977 -0.22420096 152.49717331 -0.23631287 C169.57438671 -0.35286679 169.57438671 -0.35286679 177.08903503 6.23226929 C177.62786316 6.88324585 178.16669128 7.53422241 178.72184753 8.20492554 C179.27614441 8.85332397 179.83044128 9.50172241 180.40153503 10.16976929 C183.61223689 14.82962576 184.09945703 18.81481696 184.11427307 24.420578 C184.11880418 25.12974371 184.1233353 25.83890942 184.12800372 26.569565 C184.14063905 28.94002858 184.13902793 31.31026214 184.13737488 33.68075562 C184.1433607 35.38277989 184.15016638 37.08480146 184.1577301 38.78681946 C184.17539251 43.40676243 184.1800856 48.02663131 184.18136168 52.64660478 C184.18278378 55.53440193 184.18705451 58.42218028 184.19235611 61.30997276 C184.21085767 71.38865733 184.21902662 81.46728901 184.217453 91.54598999 C184.21625179 100.93398252 184.23734977 110.32174508 184.26894033 119.70967942 C184.29511182 127.77524228 184.30581992 135.84073007 184.30454218 143.90633506 C184.30403278 148.72107922 184.30970412 153.53561902 184.33089828 158.35032082 C184.35029518 162.88040206 184.35039526 167.41008431 184.33586502 171.94017982 C184.33377757 173.59937626 184.33847403 175.25859777 184.35058594 176.91775131 C184.46713986 193.99496471 184.46713986 193.99496471 177.88200378 201.50961304 C177.23102722 202.04844116 176.58005066 202.58726929 175.90934753 203.14242554 C175.2609491 203.69672241 174.61255066 204.25101929 173.94450378 204.82211304 C169.28464731 208.03281489 165.29945611 208.52003503 159.69369507 208.53485107 C158.98452936 208.53938219 158.27536365 208.5439133 157.54470807 208.54858172 C155.1742445 208.56121705 152.80401093 208.55960593 150.43351746 208.55795288 C148.73149318 208.56393871 147.02947161 208.57074438 145.32745361 208.57830811 C140.70751064 208.59597051 136.08764177 208.60066361 131.46766829 208.60193968 C128.57987114 208.60336178 125.69209279 208.60763251 122.80430031 208.61293411 C112.72561574 208.63143568 102.64698407 208.63960463 92.56828308 208.63803101 C83.18029055 208.6368298 73.79252799 208.65792778 64.40459365 208.68951833 C56.33903079 208.71568982 48.273543 208.72639792 40.20793802 208.72512019 C35.39319385 208.72461078 30.57865405 208.73028212 25.76395226 208.75147629 C21.23387101 208.77087319 16.70418876 208.77097326 12.17409325 208.75644302 C10.51489681 208.75435558 8.8556753 208.75905203 7.19652176 208.77116394 C-9.88069164 208.88771786 -9.88069164 208.88771786 -17.39533997 202.30258179 C-18.20358215 201.32611694 -18.20358215 201.32611694 -19.02815247 200.32992554 C-19.58244934 199.6815271 -20.13674622 199.03312866 -20.70783997 198.36508179 C-23.91854182 193.70522532 -24.40576196 189.72003412 -24.420578 184.11427307 C-24.42510912 183.40510736 -24.42964023 182.69594165 -24.43430865 181.96528608 C-24.44694398 179.5948225 -24.44533286 177.22458893 -24.44367981 174.85409546 C-24.44966564 173.15207118 -24.45647131 171.45004961 -24.46403503 169.74803162 C-24.48169744 165.12808864 -24.48639054 160.50821977 -24.48766661 155.8882463 C-24.48908871 153.00044914 -24.49335944 150.11267079 -24.49866104 147.22487831 C-24.51716261 137.14619375 -24.52533156 127.06756207 -24.52375793 116.98886108 C-24.52255673 107.60086855 -24.54365471 98.21310599 -24.57524526 88.82517165 C-24.60141675 80.75960879 -24.61212485 72.694121 -24.61084712 64.62851602 C-24.61033771 59.81377185 -24.61600905 54.99923205 -24.63720322 50.18453026 C-24.65660012 45.65444901 -24.65670019 41.12476676 -24.64216995 36.59467125 C-24.6400825 34.93547481 -24.64477896 33.27625331 -24.65689087 31.61709976 C-24.77344479 14.53988636 -24.77344479 14.53988636 -18.18830872 7.02523804 C-17.53733215 6.48640991 -16.88635559 5.94758179 -16.21565247 5.39242554 C-15.56725403 4.83812866 -14.91885559 4.28383179 -14.25080872 3.71273804 C-9.59095225 0.50203619 -5.60576104 0.01481604 0 0 Z M-6.15315247 19.26742554 C-8.5284351 23.17547421 -8.39594492 26.95018057 -8.38020325 31.44442749 C-8.38044432 32.15870753 -8.38068539 32.87298758 -8.38093376 33.60891247 C-8.37944776 35.90797314 -8.36424811 38.20670455 -8.34846497 40.50570679 C-8.34552231 41.93030644 -8.34348324 43.35490825 -8.34236145 44.7795105 C-8.33189987 50.04634861 -8.30397732 55.31314035 -8.27815247 60.57992554 C-8.23690247 72.35680054 -8.19565247 84.13367554 -8.15315247 96.26742554 C18.24684753 96.26742554 44.64684753 96.26742554 71.84684753 96.26742554 C71.84684753 69.86742554 71.84684753 43.46742554 71.84684753 16.26742554 C60.09059753 16.20555054 48.33434753 16.14367554 36.22184753 16.07992554 C32.51756531 16.05261353 28.81328308 16.02530151 24.99674988 15.99716187 C21.65979421 15.98712505 21.65979421 15.98712505 18.3228302 15.98109436 C16.8430663 15.97650472 15.36331323 15.96598894 13.88362122 15.95069885 C11.6346759 15.92863296 9.38641276 15.92571098 7.13737488 15.92684937 C5.87162628 15.92018753 4.60587769 15.9135257 3.30177307 15.90666199 C-0.57317865 16.3112847 -2.9199945 17.09787301 -6.15315247 19.26742554 Z M87.84684753 16.26742554 C87.84684753 42.66742554 87.84684753 69.06742554 87.84684753 96.26742554 C114.24684753 96.26742554 140.64684753 96.26742554 167.84684753 96.26742554 C167.90872253 84.51117554 167.97059753 72.75492554 168.03434753 60.64242554 C168.06165955 56.93814331 168.08897156 53.23386108 168.11711121 49.41732788 C168.12714802 46.08037221 168.12714802 46.08037221 168.13317871 42.7434082 C168.13776835 41.26364431 168.14828413 39.78389124 168.16357422 38.30419922 C168.18564011 36.0552539 168.18856209 33.80699076 168.18742371 31.55795288 C168.19408554 30.29220428 168.20074738 29.02645569 168.20761108 27.72235107 C167.80298837 23.84739935 167.01640006 21.5005835 164.84684753 18.26742554 C160.93879886 15.8921429 157.1640925 16.02463309 152.66984558 16.04037476 C151.95556554 16.04013369 151.2412855 16.03989262 150.5053606 16.03964424 C148.20629993 16.04113025 145.90756852 16.05632989 143.60856628 16.07211304 C142.18396663 16.07505569 140.75936482 16.07709476 139.33476257 16.07821655 C134.06792446 16.08867813 128.80113272 16.11660068 123.53434753 16.14242554 C105.86903503 16.20430054 105.86903503 16.20430054 87.84684753 16.26742554 Z M-8.15315247 112.26742554 C-8.21502747 124.02367554 -8.27690247 135.77992554 -8.34065247 147.89242554 C-8.38162048 153.44884888 -8.38162048 153.44884888 -8.42341614 159.11752319 C-8.43345295 162.45447886 -8.43345295 162.45447886 -8.43948364 165.79144287 C-8.44407328 167.27120677 -8.45458906 168.75095984 -8.46987915 170.23065186 C-8.49194504 172.47959717 -8.49486702 174.72786031 -8.49372864 176.97689819 C-8.50039047 178.24264679 -8.50705231 179.50839539 -8.51391602 180.8125 C-8.1092933 184.68745172 -7.32270499 187.03426757 -5.15315247 190.26742554 C-1.24510379 192.64270818 2.52960256 192.51021799 7.02384949 192.49447632 C8.09526955 192.49483792 8.09526955 192.49483792 9.18833447 192.49520683 C11.48739514 192.49372083 13.78612655 192.47852118 16.08512878 192.46273804 C17.50972843 192.45979538 18.93433025 192.45775631 20.3589325 192.45663452 C25.62577061 192.44617295 30.89256235 192.41825039 36.15934753 192.39242554 C53.82466003 192.33055054 53.82466003 192.33055054 71.84684753 192.26742554 C71.84684753 165.86742554 71.84684753 139.46742554 71.84684753 112.26742554 C45.44684753 112.26742554 19.04684753 112.26742554 -8.15315247 112.26742554 Z M87.84684753 112.26742554 C87.84684753 138.66742554 87.84684753 165.06742554 87.84684753 192.26742554 C99.60309753 192.32930054 111.35934753 192.39117554 123.47184753 192.45492554 C127.17612976 192.48223755 130.88041199 192.50954956 134.69694519 192.53768921 C138.03390086 192.54772602 138.03390086 192.54772602 141.37086487 192.55375671 C142.85062876 192.55834636 144.33038183 192.56886213 145.81007385 192.58415222 C148.05901917 192.60621812 150.30728231 192.60914009 152.55632019 192.60800171 C153.82206879 192.61466354 155.08781738 192.62132538 156.391922 192.62818909 C160.26687372 192.22356638 162.61368957 191.43697806 165.84684753 189.26742554 C168.22213017 185.35937686 168.08963999 181.58467051 168.07389832 177.09042358 C168.07425992 176.01900352 168.07425992 176.01900352 168.07462883 174.92593861 C168.07314283 172.62687793 168.05794318 170.32814652 168.04216003 168.02914429 C168.03921738 166.60454464 168.03717831 165.17994282 168.03605652 163.75534058 C168.02559494 158.48850247 167.99767239 153.22171072 167.97184753 147.95492554 C167.93059753 136.17805054 167.88934753 124.40117554 167.84684753 112.26742554 C141.44684753 112.26742554 115.04684753 112.26742554 87.84684753 112.26742554 Z " fill="#000000" transform="translate(288.1531524658203,263.7325744628906)"/>
<path d="M0 0 C0.70916571 -0.00453111 1.41833142 -0.00906223 2.148987 -0.01373065 C4.51945057 -0.02636598 6.88968414 -0.02475486 9.26017761 -0.02310181 C10.96220189 -0.02908763 12.66422346 -0.0358933 14.36624146 -0.04345703 C18.98618443 -0.06111944 23.6060533 -0.06581253 28.22602677 -0.0670886 C31.11382393 -0.0685107 34.00160228 -0.07278144 36.88939476 -0.07808304 C46.96807933 -0.0965846 57.046711 -0.10475355 67.12541199 -0.10317993 C76.51340452 -0.10197872 85.90116708 -0.1230767 95.28910142 -0.15466726 C103.35466428 -0.18083875 111.42015207 -0.19154685 119.48575705 -0.19026911 C124.30050122 -0.18975971 129.11504102 -0.19543105 133.92974281 -0.21662521 C138.45982406 -0.23602211 142.98950631 -0.23612219 147.51960182 -0.22159195 C149.17879826 -0.2195045 150.83801977 -0.22420096 152.49717331 -0.23631287 C169.57438671 -0.35286679 169.57438671 -0.35286679 177.08903503 6.23226929 C177.62786316 6.88324585 178.16669128 7.53422241 178.72184753 8.20492554 C179.27614441 8.85332397 179.83044128 9.50172241 180.40153503 10.16976929 C184.67787516 16.3762413 184.21919616 22.7317986 184.217453 30.02255249 C184.22181356 32.0640184 184.25813619 34.10329634 184.29606628 36.14437866 C184.32209799 44.93007793 183.821747 50.73145676 177.88200378 57.50961304 C176.90553894 58.31785522 176.90553894 58.31785522 175.90934753 59.14242554 C175.2609491 59.69672241 174.61255066 60.25101929 173.94450378 60.82211304 C169.28464731 64.03281489 165.29945611 64.52003503 159.69369507 64.53485107 C158.98452936 64.53938219 158.27536365 64.5439133 157.54470807 64.54858172 C155.1742445 64.56121705 152.80401093 64.55960593 150.43351746 64.55795288 C148.73149318 64.56393871 147.02947161 64.57074438 145.32745361 64.57830811 C140.70751064 64.59597051 136.08764177 64.60066361 131.46766829 64.60193968 C128.57987114 64.60336178 125.69209279 64.60763251 122.80430031 64.61293411 C112.72561574 64.63143568 102.64698407 64.63960463 92.56828308 64.63803101 C83.18029055 64.6368298 73.79252799 64.65792778 64.40459365 64.68951833 C56.33903079 64.71568982 48.273543 64.72639792 40.20793802 64.72512019 C35.39319385 64.72461078 30.57865405 64.73028212 25.76395226 64.75147629 C21.23387101 64.77087319 16.70418876 64.77097326 12.17409325 64.75644302 C10.51489681 64.75435558 8.8556753 64.75905203 7.19652176 64.77116394 C-9.88069164 64.88771786 -9.88069164 64.88771786 -17.39533997 58.30258179 C-17.93416809 57.65160522 -18.47299622 57.00062866 -19.02815247 56.32992554 C-19.58244934 55.6815271 -20.13674622 55.03312866 -20.70783997 54.36508179 C-24.98418009 48.15860977 -24.52550109 41.80305247 -24.52375793 34.51229858 C-24.52811849 32.47083267 -24.56444112 30.43155473 -24.60237122 28.39047241 C-24.62840292 19.60477314 -24.12805193 13.80339431 -18.18830872 7.02523804 C-17.53733215 6.48640991 -16.88635559 5.94758179 -16.21565247 5.39242554 C-15.56725403 4.83812866 -14.91885559 4.28383179 -14.25080872 3.71273804 C-9.59095225 0.50203619 -5.60576104 0.01481604 0 0 Z M-6.15315247 19.26742554 C-8.63357664 23.27756375 -8.48697688 27.61164763 -8.46565247 32.20492554 C-8.48176575 32.89521851 -8.49787903 33.58551147 -8.51448059 34.29672241 C-8.51896037 39.02289007 -7.83118733 42.35247697 -5.15315247 46.26742554 C-1.23603878 48.31305003 2.10445118 48.52042472 6.48196411 48.52812195 C7.13537122 48.5319475 7.78877833 48.53577304 8.46198565 48.53971452 C10.64365966 48.55000399 12.82506849 48.54606019 15.00675964 48.54208374 C16.57409915 48.54643245 18.14143653 48.55161614 19.70877075 48.55757141 C23.96083203 48.57095522 28.21280438 48.57154079 32.46488261 48.56900811 C36.01610929 48.56793803 39.567318 48.57282271 43.11854082 48.57761353 C51.49698422 48.58870648 59.87538277 48.58914725 68.25382996 48.58309937 C76.89429275 48.57705822 85.53459276 48.58937463 94.17502779 48.61066943 C101.59682755 48.62828757 109.01857551 48.63428648 116.44039541 48.63103169 C120.87162392 48.6292191 125.30273629 48.63185264 129.73394585 48.64574623 C133.90119557 48.6583235 138.06819156 48.65638151 142.23543739 48.64333534 C143.76323914 48.64096982 145.29105875 48.64370341 146.81884003 48.65195847 C148.90776946 48.66243016 150.99584813 48.65432299 153.08474731 48.64164734 C154.83655257 48.64189895 154.83655257 48.64189895 156.62374783 48.64215565 C160.29040293 48.21585606 162.70206687 47.17357631 165.84684753 45.26742554 C168.32727171 41.25728732 168.18067194 36.92320344 168.15934753 32.32992554 C168.17546082 31.63963257 168.1915741 30.9493396 168.20817566 30.23812866 C168.21265544 25.51196101 167.5248824 22.18237411 164.84684753 18.26742554 C160.92973385 16.22180104 157.58924389 16.01442636 153.21173096 16.00672913 C152.55832385 16.00290358 151.90491674 15.99907803 151.23170942 15.99513656 C149.05003541 15.98484708 146.86862657 15.98879089 144.68693542 15.99276733 C143.11959592 15.98841862 141.55225854 15.98323494 139.98492432 15.97727966 C135.73286304 15.96389585 131.48089069 15.96331028 127.22881246 15.96584296 C123.67758578 15.96691305 120.12637707 15.96202837 116.57515424 15.95723754 C108.19671085 15.94614459 99.81831229 15.94570382 91.43986511 15.95175171 C82.79940232 15.95779286 74.1591023 15.94547644 65.51866728 15.92418164 C58.09686752 15.90656351 50.67511956 15.9005646 43.25329965 15.90381938 C38.82207115 15.90563197 34.39095878 15.90299844 29.95974922 15.88910484 C25.7924995 15.87652758 21.62550351 15.87846956 17.45825768 15.89151573 C15.93045592 15.89388125 14.40263632 15.89114767 12.87485504 15.88289261 C10.78592561 15.87242092 8.69784693 15.88052809 6.60894775 15.89320374 C5.44107759 15.89303599 4.27320742 15.89286825 3.06994724 15.89269543 C-0.59670786 16.31899501 -3.00837181 17.36127476 -6.15315247 19.26742554 Z " fill="#000000" transform="translate(288.1531524658203,183.73257446289063)"/>
<path d="M0 0 C44.55 0 89.1 0 135 0 C135 5.28 135 10.56 135 16 C94.74 16 54.48 16 13 16 C12.34 19.3 11.68 22.6 11 26 C10.21107282 28.83415645 9.39664588 31.63060561 8.51318359 34.43359375 C8.27214905 35.21259033 8.0311145 35.99158691 7.78277588 36.79418945 C6.99272089 39.34345446 6.19562238 41.89045654 5.3984375 44.4375 C4.83708577 46.24408261 4.27619191 48.05080754 3.71572876 49.85766602 C2.24035212 54.60994231 0.75904123 59.36034774 -0.72363281 64.11035156 C-2.494483 69.78743251 -4.25827715 75.46670867 -6.02306747 81.14567566 C-7.44505699 85.72069444 -8.86869434 90.29518459 -10.29644775 94.8684082 C-12.74627846 102.71927552 -15.18504794 110.57225493 -17.54980469 118.44921875 C-17.9215683 119.68164307 -18.29333191 120.91406738 -18.67636108 122.18383789 C-19.34453343 124.40628305 -20.0064647 126.63061853 -20.66079712 128.85717773 C-20.94595184 129.80407471 -21.23110657 130.75097168 -21.52490234 131.7265625 C-21.76445648 132.53689941 -22.00401062 133.34723633 -22.25082397 134.18212891 C-23 136 -23 136 -25 137 C-32.08738973 118.52932188 -39.14274042 100.04630469 -46.15628052 81.54745483 C-46.92797043 79.51350696 -47.7008208 77.479999 -48.474823 75.44692993 C-49.56580795 72.58039234 -50.65257076 69.71228872 -51.73828125 66.84375 C-52.06891571 65.97755539 -52.39955017 65.11136078 -52.74020386 64.21891785 C-53.03903473 63.42673355 -53.3378656 62.63454926 -53.64575195 61.81835938 C-53.90854446 61.1259314 -54.17133698 60.43350342 -54.4420929 59.72009277 C-55 58 -55 58 -55 56 C-66.22 56 -77.44 56 -89 56 C-89 50.72 -89 45.44 -89 40 C-73.82 40 -58.64 40 -43 40 C-40.44276822 45.75377151 -37.987821 51.44094413 -35.765625 57.31640625 C-35.34129181 58.42930275 -35.34129181 58.42930275 -34.90838623 59.56468201 C-34.01993008 61.89641009 -33.13490255 64.22942132 -32.25 66.5625 C-31.64215517 68.15959203 -31.03408413 69.756598 -30.42578125 71.35351562 C-28.94748885 75.23453669 -27.47385715 79.11728094 -26 83 C-16.83181831 55.49545492 -8.49481279 27.71991543 0 0 Z " fill="#000000" transform="translate(185,56)"/>
<path d="M0 0 C3.04332765 1.3584202 5.12309151 2.88463024 7.453125 5.2578125 C8.071875 5.88300781 8.690625 6.50820313 9.328125 7.15234375 C9.96234375 7.80332031 10.5965625 8.45429688 11.25 9.125 C11.8996875 9.78371094 12.549375 10.44242187 13.21875 11.12109375 C14.81711727 12.74296643 16.41061897 14.3693281 18 16 C21.04332765 14.6415798 23.12309151 13.11536976 25.453125 10.7421875 C26.071875 10.11699219 26.690625 9.49179687 27.328125 8.84765625 C27.96234375 8.19667969 28.5965625 7.54570312 29.25 6.875 C29.8996875 6.21628906 30.549375 5.55757813 31.21875 4.87890625 C32.81711727 3.25703357 34.41061897 1.6306719 36 0 C39.63303084 1.69586126 41.94549046 3.73800488 44.75 6.625 C45.54921875 7.44226563 46.3484375 8.25953125 47.171875 9.1015625 C47.77515625 9.72804688 48.3784375 10.35453125 49 11 C47.6415798 14.04332765 46.11536976 16.12309151 43.7421875 18.453125 C43.11699219 19.071875 42.49179687 19.690625 41.84765625 20.328125 C40.87119141 21.27945312 40.87119141 21.27945312 39.875 22.25 C39.21628906 22.8996875 38.55757813 23.549375 37.87890625 24.21875 C36.25703357 25.81711727 34.6306719 27.41061897 33 29 C34.3584202 32.04332765 35.88463024 34.12309151 38.2578125 36.453125 C38.88300781 37.071875 39.50820313 37.690625 40.15234375 38.328125 C40.80332031 38.96234375 41.45429688 39.5965625 42.125 40.25 C42.78371094 40.8996875 43.44242187 41.549375 44.12109375 42.21875 C45.74296643 43.81711727 47.3693281 45.41061897 49 47 C47.30413874 50.63303084 45.26199512 52.94549046 42.375 55.75 C41.55773437 56.54921875 40.74046875 57.3484375 39.8984375 58.171875 C39.27195312 58.77515625 38.64546875 59.3784375 38 60 C34.95667235 58.6415798 32.87690849 57.11536976 30.546875 54.7421875 C29.928125 54.11699219 29.309375 53.49179687 28.671875 52.84765625 C28.03765625 52.19667969 27.4034375 51.54570312 26.75 50.875 C26.1003125 50.21628906 25.450625 49.55757813 24.78125 48.87890625 C23.18288273 47.25703357 21.58938103 45.6306719 20 44 C16.95667235 45.3584202 14.87690849 46.88463024 12.546875 49.2578125 C11.928125 49.88300781 11.309375 50.50820313 10.671875 51.15234375 C10.03765625 51.80332031 9.4034375 52.45429688 8.75 53.125 C8.1003125 53.78371094 7.450625 54.44242187 6.78125 55.12109375 C5.18288273 56.74296643 3.58938103 58.3693281 2 60 C-1.63303084 58.30413874 -3.94549046 56.26199512 -6.75 53.375 C-7.54921875 52.55773437 -8.3484375 51.74046875 -9.171875 50.8984375 C-9.77515625 50.27195312 -10.3784375 49.64546875 -11 49 C-9.6415798 45.95667235 -8.11536976 43.87690849 -5.7421875 41.546875 C-4.80439453 40.61875 -4.80439453 40.61875 -3.84765625 39.671875 C-3.19667969 39.03765625 -2.54570312 38.4034375 -1.875 37.75 C-0.88693359 36.77546875 -0.88693359 36.77546875 0.12109375 35.78125 C1.74296643 34.18288273 3.3693281 32.58938103 5 31 C3.6415798 27.95667235 2.11536976 25.87690849 -0.2578125 23.546875 C-0.88300781 22.928125 -1.50820313 22.309375 -2.15234375 21.671875 C-2.80332031 21.03765625 -3.45429688 20.4034375 -4.125 19.75 C-4.78371094 19.1003125 -5.44242187 18.450625 -6.12109375 17.78125 C-7.74296643 16.18288273 -9.3693281 14.58938103 -11 13 C-9.30413874 9.36696916 -7.26199512 7.05450954 -4.375 4.25 C-3.55773437 3.45078125 -2.74046875 2.6515625 -1.8984375 1.828125 C-0.95871094 0.92320312 -0.95871094 0.92320312 0 0 Z " fill="#000000" transform="translate(301,386)"/>
<path d="M0 0 C36.96 0 73.92 0 112 0 C112 5.28 112 10.56 112 16 C75.04 16 38.08 16 0 16 C0 10.72 0 5.44 0 0 Z " fill="#000000" transform="translate(104,248)"/>
<path d="M0 0 C36.96 0 73.92 0 112 0 C112 5.28 112 10.56 112 16 C75.04 16 38.08 16 0 16 C0 10.72 0 5.44 0 0 Z " fill="#000000" transform="translate(104,216)"/>
<path d="M0 0 C5.28 0 10.56 0 16 0 C16 5.28 16 10.56 16 16 C21.28 16 26.56 16 32 16 C32 21.28 32 26.56 32 32 C26.72 32 21.44 32 16 32 C16 37.28 16 42.56 16 48 C10.72 48 5.44 48 0 48 C0 42.72 0 37.44 0 32 C-5.28 32 -10.56 32 -16 32 C-16 26.72 -16 21.44 -16 16 C-10.72 16 -5.44 16 0 16 C0 10.72 0 5.44 0 0 Z " fill="#000000" transform="translate(312,296)"/>
<path d="M0 0 C3.63303084 1.69586126 5.94549046 3.73800488 8.75 6.625 C9.54921875 7.44226563 10.3484375 8.25953125 11.171875 9.1015625 C11.77515625 9.72804688 12.3784375 10.35453125 13 11 C11.48387099 14.54879679 9.40531305 16.86439389 6.70556641 19.60083008 C5.8176944 20.50468948 4.92982239 21.40854889 4.01504517 22.33979797 C3.04436437 23.31685292 2.07319155 24.29341928 1.1015625 25.26953125 C0.1050165 26.27504587 -0.89145252 27.28063679 -1.8878479 28.28630066 C-3.97393157 30.38884745 -6.06434544 32.48698431 -8.15722656 34.58276367 C-10.84149464 37.27243433 -13.50920721 39.97791552 -16.17328453 42.6875658 C-18.22374977 44.76771822 -20.28532248 46.83658121 -22.35017776 48.90244102 C-23.3390801 49.89555685 -24.32384954 50.89280556 -25.30439377 51.89417458 C-26.67334453 53.28988007 -28.05967846 54.66847183 -29.44677734 56.04614258 C-30.23128265 56.83571854 -31.01578796 57.62529449 -31.82406616 58.438797 C-34 60 -34 60 -36.13491821 59.86747742 C-38.86165977 58.59922916 -40.67860827 56.79381316 -42.8125 54.6875 C-43.62332031 53.90761719 -44.43414062 53.12773437 -45.26953125 52.32421875 C-47 50 -47 50 -46.87916565 48.14703369 C-45.67826551 45.2142837 -43.91319792 43.55423445 -41.66381836 41.32324219 C-40.28249977 39.94226349 -40.28249977 39.94226349 -38.87327576 38.53338623 C-37.86229096 37.53772081 -36.8511431 36.54222093 -35.83984375 35.546875 C-34.80928859 34.52191674 -33.77939506 33.49629286 -32.75013733 32.47003174 C-30.04249408 29.77382983 -27.32596228 27.08675928 -24.60748291 24.40148926 C-21.83381027 21.65853271 -19.06863571 18.90703876 -16.30273438 16.15625 C-10.87677256 10.7624398 -5.44139257 5.37824766 0 0 Z " fill="#000000" transform="translate(433,386)"/>
<path d="M0 0 C15.84 0 31.68 0 48 0 C48 5.28 48 10.56 48 16 C32.16 16 16.32 16 0 16 C0 10.72 0 5.44 0 0 Z " fill="#000000" transform="translate(392,312)"/>
<path d="M0 0 C2.5 1.5 2.5 1.5 4 4 C4.791013 8.02098277 4.62153384 10.96411027 2.5 14.5 C-1.03588973 16.62153384 -3.97901723 16.791013 -8 16 C-10.5 14.5 -10.5 14.5 -12 12 C-12.791013 7.97901723 -12.62153384 5.03588973 -10.5 1.5 C-6.96411027 -0.62153384 -4.02098277 -0.791013 0 0 Z " fill="#000000" transform="translate(436,424)"/>
<path d="M0 0 C2.5 1.5 2.5 1.5 4 4 C4.791013 8.02098277 4.62153384 10.96411027 2.5 14.5 C-1.03588973 16.62153384 -3.97901723 16.791013 -8 16 C-10.5 14.5 -10.5 14.5 -12 12 C-12.791013 7.97901723 -12.62153384 5.03588973 -10.5 1.5 C-6.96411027 -0.62153384 -4.02098277 -0.791013 0 0 Z " fill="#000000" transform="translate(404,392)"/>
<path d="M0 0 C2.5 1.5 2.5 1.5 4 4 C4.791013 8.02098277 4.62153384 10.96411027 2.5 14.5 C-1.03588973 16.62153384 -3.97901723 16.791013 -8 16 C-10.5 14.5 -10.5 14.5 -12 12 C-12.791013 7.97901723 -12.62153384 5.03588973 -10.5 1.5 C-6.96411027 -0.62153384 -4.02098277 -0.791013 0 0 Z " fill="#000000" transform="translate(196,280)"/>
<path d="M0 0 C2.5 1.5 2.5 1.5 4 4 C4.791013 8.02098277 4.62153384 10.96411027 2.5 14.5 C-1.03588973 16.62153384 -3.97901723 16.791013 -8 16 C-10.5 14.5 -10.5 14.5 -12 12 C-12.791013 7.97901723 -12.62153384 5.03588973 -10.5 1.5 C-6.96411027 -0.62153384 -4.02098277 -0.791013 0 0 Z " fill="#000000" transform="translate(164,280)"/>
</svg>
