<?xml version="1.0" encoding="UTF-8"?>
<svg version="1.1" xmlns="http://www.w3.org/2000/svg" width="512" height="512">
<path d="M0 0 C4.42248519 3.89072344 7.1040085 8.09434325 9.625 13.375 C12.41637761 18.82268856 16.23660479 21.77002916 21.09985352 25.22558594 C29.53019952 31.34838639 37.02199271 41.57883197 39 52 C39.65606717 61.14191955 39.37255663 68.78574027 35 77 C34.54496094 77.86109375 34.08992188 78.7221875 33.62109375 79.609375 C32.44795476 81.76180096 31.2445728 83.88830681 30 86 C30.60585938 86.25394531 31.21171875 86.50789063 31.8359375 86.76953125 C36.37883599 89.35258725 38.4196181 94.56286387 40.3125 99.25 C42.81680934 112.90986912 39.69752986 125.15108439 31.94140625 136.609375 C29.11700422 140.0873107 25.94247598 142.85203033 22 145 C21.34 145 20.68 145 20 145 C19.938125 145.9075 19.87625 146.815 19.8125 147.75 C17.39069379 164.43355388 5.35550467 181.08040533 -7 192 C-7.66 192.33 -8.32 192.66 -9 193 C-10.40339778 199.43223981 -9.57151693 204.6619813 -8 211 C-4.91855431 211 -3.7181501 209.11140813 -1.5 207.0625 C5.93706912 200.21701592 13.55013476 201.59343447 23.31347656 201.859375 C29.37664405 202.17674909 35.14223508 203.4155226 41 205 C41.99773437 205.26683594 42.99546875 205.53367187 44.0234375 205.80859375 C68.74677639 213.26536486 92.01429296 230.44331495 104.41015625 253.3125 C113.86346616 271.75055428 118.0973679 291.62213571 121 312 C121.14034668 312.9801709 121.28069336 313.9603418 121.42529297 314.97021484 C124.0312194 333.89310819 124.85626507 352.91375433 125.66796875 371.98046875 C125.70217422 372.77218475 125.7363797 373.56390076 125.7716217 374.37960815 C125.96883279 379.25734995 126.02948121 384.11825908 126 389 C127.33637764 388.99000725 127.33637764 388.99000725 128.69975281 388.97981262 C137.10108471 388.91966947 145.50234417 388.87400927 153.90384197 388.84456348 C158.22301617 388.82891611 162.54201228 388.8076949 166.86108398 388.77368164 C171.03024353 388.7410549 175.19923192 388.72314 179.36850929 388.71536827 C180.95811469 388.7098307 182.54771085 388.69901709 184.13724327 388.68280983 C186.36603316 388.660991 188.59411832 388.65803486 190.82299805 388.65942383 C192.09096725 388.65276199 193.35893646 388.64610016 194.66532898 388.63923645 C198.55445026 389.05998356 201.21542282 390.21542282 204 393 C204.23828125 394.92578125 204.23828125 394.92578125 204.3125 397.3125 C204.34988281 398.09238281 204.38726563 398.87226563 204.42578125 399.67578125 C203.81680848 402.99999042 202.6927623 403.96462283 200 406 C197.08929519 406.39191054 194.55782986 406.53755941 191.64782715 406.50336456 C190.79346982 406.50917833 189.93911249 406.51499209 189.05886555 406.52098203 C186.17633135 406.53565972 183.29463833 406.52166066 180.41210938 406.50793457 C178.33260409 406.51254041 176.25310205 406.51889118 174.17360687 406.52684355 C168.44388556 406.54360347 162.71442937 406.53526025 156.98470688 406.52289867 C150.8114819 406.51387771 144.63830369 406.5278032 138.46508789 406.53881836 C127.06561315 406.55560886 115.66624697 406.55410901 104.26677489 406.54317249 C93.73667871 406.53311935 83.20661367 406.53047921 72.67651367 406.53526306 C71.97865035 406.5355686 71.28078703 406.53587414 70.56177634 406.53618894 C67.7290851 406.53743425 64.89639388 406.53870784 62.06370267 406.540028 C35.4784206 406.55227032 8.89319263 406.54116014 -17.69208109 406.51964041 C-41.32339555 406.50065727 -64.9546238 406.50235576 -88.5859375 406.52148438 C-115.12187778 406.54289226 -141.65777024 406.55140218 -168.19371796 406.53903532 C-171.02131652 406.53775241 -173.84891509 406.53650105 -176.67651367 406.53526306 C-177.37276582 406.53494675 -178.06901797 406.53463044 -178.78636867 406.53430455 C-189.31112411 406.52975025 -199.83584504 406.53508395 -210.3605957 406.54518127 C-222.3249731 406.55660237 -234.28924863 406.5534069 -246.25362206 406.5320583 C-252.36240802 406.52151871 -258.47101865 406.51747552 -264.57980347 406.53065491 C-270.16578634 406.54252444 -275.75143043 406.53610639 -281.33738232 406.5147447 C-283.36423499 406.51025548 -285.39111596 406.51259643 -287.41795063 406.52224785 C-290.16165651 406.53431639 -292.90418405 406.52203461 -295.64782715 406.50336456 C-296.84323514 406.51741156 -296.84323514 406.51741156 -298.06279278 406.53174233 C-301.62478023 406.48290651 -303.61323604 406.29354117 -306.49100494 404.10940886 C-308.24144671 401.6624841 -308.51316664 400.41876542 -308.4375 397.4375 C-308.43621094 396.67308594 -308.43492187 395.90867187 -308.43359375 395.12109375 C-307.89756987 392.49892289 -307.09719643 391.62347676 -305 390 C-301.49356462 388.83118821 -298.75098532 388.88001573 -295.05004883 388.88647461 C-293.99600609 388.88625557 -293.99600609 388.88625557 -292.92066956 388.8860321 C-290.59942532 388.88672843 -288.27826146 388.89450774 -285.95703125 388.90234375 C-284.3470616 388.90420892 -282.73709139 388.90563236 -281.12712097 388.90663147 C-276.89057853 388.91044882 -272.6540704 388.92027245 -268.4175415 388.93133545 C-264.09412093 388.94156636 -259.77069481 388.94613269 -255.44726562 388.95117188 C-246.96482801 388.96189541 -238.48241827 388.97896247 -230 389 C-229.97625305 388.03302689 -229.9525061 387.06605377 -229.92803955 386.06977844 C-229.03353691 350.16418834 -229.03353691 350.16418834 -227.75 336.1875 C-227.68753082 335.48759949 -227.62506165 334.78769897 -227.56069946 334.06658936 C-224.38209715 298.87138917 -219.19645108 262.3090114 -195 235 C-194.09314453 233.96166016 -194.09314453 233.96166016 -193.16796875 232.90234375 C-175.19290246 213.70269873 -148.39946876 202.74213739 -122.47338867 201.45507812 C-114.28684669 201.21436223 -108.66188094 201.11453059 -102.1875 206.5 C-99.66796875 209.03125 -99.66796875 209.03125 -98 211 C-95.53745274 204.38190423 -95.81064528 197.99560484 -96 191 C-96.59167969 190.731875 -97.18335938 190.46375 -97.79296875 190.1875 C-108.42462401 184.46710496 -115.60979564 170.7157355 -120 160 C-120.63304491 157.56983998 -121.23703387 155.13193497 -121.8125 152.6875 C-123.43746579 146.5194007 -125.43344249 144.02385207 -130.6875 140.55859375 C-138.86039403 135.05017362 -143.0689923 126.47457051 -145 117 C-145.82858488 107.85839957 -144.70506369 99.25741677 -139.3125 91.60546875 C-137.53588569 88.07867784 -138.10404545 86.11128445 -138.8125 82.25 C-139.96051207 74.87548181 -140.30177248 67.58429664 -140.375 60.125 C-140.41330933 58.55733887 -140.41330933 58.55733887 -140.45239258 56.95800781 C-140.49292792 42.36991686 -133.10202894 32.20996825 -123.375 21.875 C-96.77107539 -3.75412432 -32.70469083 -23.23914024 0 0 Z M-114.34375 37.58203125 C-121.16407329 45.82325523 -123.51453894 51.2899672 -123 62 C-122.11699219 61.51789063 -121.23398438 61.03578125 -120.32421875 60.5390625 C-104.92929674 52.34426029 -89.35390079 52.01135149 -72.19140625 51.82421875 C-71.24666946 51.81225464 -70.30193268 51.80029053 -69.3285675 51.78796387 C-65.4118173 51.73927604 -61.49540011 51.69169778 -57.57836914 51.67407227 C-54.67805253 51.65856 -51.77890967 51.61840069 -48.87890625 51.57421875 C-47.56775597 51.57708138 -47.56775597 51.57708138 -46.2301178 51.58000183 C-39.45688403 51.44573348 -34.00534446 49.80228064 -28.9765625 45.11328125 C-28.53054688 44.51902344 -28.08453125 43.92476562 -27.625 43.3125 C-25.21732243 40.17175859 -24.09660291 39.18665581 -20.0625 38.5 C-13.07867798 38.65938183 -7.23330648 43.90022455 -2.38671875 48.45703125 C3.8727246 55.10586455 8.98800963 62.39560082 14 70 C14.66 70.99 15.32 71.98 16 73 C16.66 73 17.32 73 18 73 C21.1578621 67.03671576 23.30118349 61.79126472 22 55 C18.81366461 45.82166223 13.04659585 40.240548 5.4375 34.5625 C-0.88564672 29.74486441 -4.84599498 24.0377356 -7.9453125 16.76171875 C-9.84271145 13.59235977 -12.21691284 12.28107855 -15.64453125 11.05078125 C-48.21377865 3.46066071 -91.22574738 12.11369837 -114.34375 37.58203125 Z M-21.6875 60.3125 C-29.33999558 66.88508137 -38.17771131 67.13415893 -47.76171875 67.24609375 C-49.70638377 67.27908753 -51.65104512 67.31229807 -53.59570312 67.34570312 C-56.62049318 67.39259721 -59.64527491 67.43694354 -62.67016602 67.47680664 C-72.9807475 67.61898046 -83.25097166 67.85067244 -93.51953125 68.84765625 C-94.65596321 68.94958534 -94.65596321 68.94958534 -95.81535339 69.05357361 C-102.9925068 69.83527083 -109.02058639 71.8955279 -113.671875 77.6484375 C-115.94895771 81.68021336 -116.74142328 86.15732975 -117.86328125 90.62109375 C-119.28543464 94.8484569 -121.35728118 97.22142277 -124.44921875 100.33984375 C-127.47519138 103.57923511 -127.86570015 107.00234396 -128.4375 111.25 C-127.71816859 117.41569781 -125.57262004 122.77070114 -120.8046875 126.90234375 C-117.91966104 128.84949857 -115.09323699 130.57143523 -111.84765625 131.84375 C-108.34087273 134.03826992 -108.05526813 137.76837629 -107.140625 141.6015625 C-106.99794189 142.25108887 -106.85525879 142.90061523 -106.70825195 143.56982422 C-103.83147824 156.47162557 -98.37636437 165.60755267 -89 175 C-88.36191406 175.6496875 -87.72382813 176.299375 -87.06640625 176.96875 C-76.31480707 187.16153425 -62.54404745 191.09071131 -48 191 C-33.45251352 189.40446922 -23.21176441 183.17673263 -13 173 C-12.36191406 172.38511719 -11.72382813 171.77023438 -11.06640625 171.13671875 C-3.73551289 163.51193657 0.24142347 153.84073208 3.16625977 143.84594727 C6.1159726 133.8222073 6.1159726 133.8222073 9.234375 130.921875 C11.45478745 129.77538753 13.66628299 128.88351045 16 128 C21.05537155 123.21789177 24.16088067 115.6425002 24.4375 108.6875 C23.86620851 103.87232883 22.37726414 101.37726414 19 98 C17.5790145 97.76868497 16.15011798 97.5842583 14.71875 97.4296875 C11.84019823 96.83440299 10.39611384 96.42641894 8.37890625 94.25488281 C6.94507513 91.93062178 5.70512672 89.57558064 4.5 87.125 C3.573546 85.39009915 2.64122708 83.65831773 1.703125 81.9296875 C1.25001953 81.0850293 0.79691406 80.24037109 0.33007812 79.37011719 C-4.03639477 71.58933179 -9.9460824 63.54934238 -17 58 C-19.33824032 57.78258603 -19.33824032 57.78258603 -21.6875 60.3125 Z M-78 203 C-78.26554688 204.08539063 -78.53109375 205.17078125 -78.8046875 206.2890625 C-79.16133082 207.73440647 -79.5181088 209.17971722 -79.875 210.625 C-80.04902344 211.33785156 -80.22304687 212.05070313 -80.40234375 212.78515625 C-80.57636719 213.48769531 -80.75039062 214.19023437 -80.9296875 214.9140625 C-81.08679199 215.5529541 -81.24389648 216.1918457 -81.40576172 216.85009766 C-82.16675057 219.60328903 -83.08074172 222.29610109 -84 225 C-80.84251686 229.67505379 -77.39430621 234.05832151 -71.80371094 235.60931396 C-66.50089643 236.40497835 -61.20082435 236.38036524 -55.85058594 236.2487793 C-53.00247108 236.18755312 -50.16837843 236.22792944 -47.3203125 236.27929688 C-39.00668479 236.28886765 -32.21900191 236.26934245 -25.625 230.80078125 C-23.27098285 228.64903293 -23.27098285 228.64903293 -22 226 C-22.27931806 222.15937663 -23.3162853 218.71425986 -24.5 215.0625 C-25.75276447 211.02309845 -26.54349379 207.19985712 -27 203 C-27.59683594 203.20496094 -28.19367188 203.40992188 -28.80859375 203.62109375 C-41.78257103 207.6501595 -54.75574694 207.74320281 -68 205 C-68.99773437 204.80792969 -69.99546875 204.61585938 -71.0234375 204.41796875 C-73.35352521 203.96435223 -75.67792876 203.4927194 -78 203 Z M-186 251 C-214.21617968 288.07006807 -211.84062912 344.55744975 -213 389 C-203.43 389 -193.86 389 -184 389 C-184.99 384.71 -185.98 380.42 -187 376 C-187.55474665 366.12550961 -187.55474665 366.12550961 -185 362 C-182.16730334 360.58365167 -179.52533562 360.6536995 -176.375 360.4375 C-175.18648437 360.35371094 -173.99796875 360.26992188 -172.7734375 360.18359375 C-171.85820312 360.12300781 -170.94296875 360.06242188 -170 360 C-169.99853344 359.44561752 -169.99706688 358.89123505 -169.99555588 358.3200531 C-169.95844079 344.80621452 -169.89911321 331.29262891 -169.81609726 317.7789917 C-169.7766174 311.24376431 -169.74443116 304.70867178 -169.72900391 298.17333984 C-169.71384107 291.86433351 -169.6794011 285.55569791 -169.63169098 279.24685669 C-169.61687353 276.84200262 -169.60895878 274.43709562 -169.60811615 272.03219604 C-169.60574597 268.65908454 -169.57865994 265.2869971 -169.54589844 261.9140625 C-169.55344398 260.42836006 -169.55344398 260.42836006 -169.56114197 258.91264343 C-169.45978465 252.15097677 -168.26292643 246.61143557 -163.62371445 241.47671509 C-156.81187907 235.33300927 -149.26007673 235.67289184 -140.6015625 235.5859375 C-139.41146576 235.56657135 -138.22136902 235.5472052 -136.99520874 235.5272522 C-133.20521139 235.46761497 -129.41518341 235.42113384 -125.625 235.375 C-123.05076822 235.33680569 -120.47654903 235.29775311 -117.90234375 235.2578125 C-111.60167442 235.16192633 -105.30092893 235.07683243 -99 235 C-99.78101074 234.0514917 -100.56202148 233.1029834 -101.36669922 232.12573242 C-101.80601776 231.5921965 -102.2453363 231.05866058 -102.69796753 230.50895691 C-104.3597805 228.58304168 -106.1799202 226.94865536 -108.125 225.3125 C-111.91172274 222.10778329 -111.91172274 222.10778329 -113.37890625 220.31640625 C-132.12816891 205.09110139 -174.4838671 237.72343915 -186 251 Z M-0.57470703 229.44433594 C-2.32574755 231.35554358 -4.16340529 233.17123657 -6 235 C-4.99308105 235.00879936 -4.99308105 235.00879936 -3.96582031 235.01777649 C3.04275353 235.08188201 10.05087548 235.16634615 17.05908203 235.26245117 C19.67197702 235.29563439 22.28494255 235.32368671 24.89794922 235.34643555 C28.66143761 235.38010208 32.42428339 235.43242649 36.1875 235.48828125 C37.34926758 235.49467117 38.51103516 235.5010611 39.70800781 235.50764465 C46.81345544 235.63544258 53.28585654 235.97419201 59.0234375 240.6484375 C59.46945312 241.21820313 59.91546875 241.78796875 60.375 242.375 C61.06722656 243.22191406 61.06722656 243.22191406 61.7734375 244.0859375 C65.4169989 249.77174987 65.30467811 255.00585027 65.31884766 261.57348633 C65.32889328 262.63735565 65.3389389 263.70122498 65.34928894 264.79733276 C65.38014524 268.3088935 65.39716313 271.82037791 65.4140625 275.33203125 C65.43277215 277.76869871 65.45234541 280.20535968 65.4727478 282.64201355 C65.52409629 289.05183079 65.56370764 295.46166905 65.60089111 301.87158203 C65.6409136 308.41378997 65.69201398 314.9559103 65.7421875 321.49804688 C65.83897903 334.33196862 65.92374984 347.16594061 66 360 C66.90363281 360.03738281 67.80726563 360.07476562 68.73828125 360.11328125 C70.50751953 360.21189453 70.50751953 360.21189453 72.3125 360.3125 C73.48425781 360.37050781 74.65601563 360.42851562 75.86328125 360.48828125 C79.13454328 361.02194915 80.09980288 361.37344766 82 364 C85.59023738 371.18047477 81.41109753 382.41487818 80 389 C89.57 389 99.14 389 109 389 C109.79035069 314.31442948 109.79035069 314.31442948 80 249 C79.21109375 248.11957031 78.4221875 247.23914063 77.609375 246.33203125 C63.45458978 231.32878669 45.25834446 222.42030219 25 219 C23.76636719 218.78085937 22.53273438 218.56171875 21.26171875 218.3359375 C10.90491816 217.34518683 5.97383471 222.18436567 -0.57470703 229.44433594 Z M-151.96379566 253.25212383 C-153.26093837 255.44015253 -153.3698712 256.80593433 -153.36076355 259.3469696 C-153.36489604 260.23273776 -153.36902853 261.11850592 -153.37328625 262.03111553 C-153.36249192 263.00399926 -153.3516976 263.97688299 -153.34057617 264.97924805 C-153.34093778 266.02038915 -153.34129938 267.06153025 -153.34167194 268.13422108 C-153.33942963 271.51024805 -153.31656908 274.88578046 -153.29296875 278.26171875 C-153.2885589 280.3436255 -153.28549775 282.42553555 -153.28381348 284.50744629 C-153.26807328 292.23418152 -153.22618977 299.9608456 -153.1875 307.6875 C-153.125625 324.950625 -153.06375 342.21375 -153 360 C-86.34 360 -19.68 360 49 360 C49.061875 342.736875 49.12375 325.47375 49.1875 307.6875 C49.21481201 302.23307373 49.24212402 296.77864746 49.27026367 291.15893555 C49.28029588 286.2771406 49.28029588 286.2771406 49.28633118 281.39533997 C49.29094327 279.21795311 49.30150546 277.04057401 49.31672668 274.86323547 C49.33861186 271.5684372 49.34172053 268.27410786 49.34057617 264.97924805 C49.3513705 264.00636432 49.36216482 263.03348059 49.37328625 262.03111553 C49.36915376 261.14534738 49.36502127 260.25957922 49.36076355 259.3469696 C49.36352893 258.57542888 49.36629431 257.80388815 49.36914349 257.0089674 C49.11240368 254.95975987 49.11240368 254.95975987 47.96379566 253.25212383 C44.89933822 251.29821372 41.73857233 251.58771683 38.21850586 251.61904907 C37.41768302 251.6143691 36.61686018 251.60968913 35.79176998 251.60486734 C33.09929445 251.59286907 30.40732337 251.60239329 27.71484375 251.61181641 C25.78825584 251.60775285 23.86167026 251.60241219 21.93508911 251.59588623 C16.69550515 251.58218117 11.45609792 251.58752444 6.21651077 251.59702349 C0.74060835 251.60460358 -4.73527864 251.59757908 -10.21118164 251.59286499 C-19.40806808 251.58740262 -28.60488232 251.59461169 -37.80175781 251.60888672 C-48.44399712 251.62521413 -59.08606402 251.61992596 -69.72829914 251.6034075 C-78.85530991 251.58980636 -87.98226869 251.58786626 -97.10928631 251.59572351 C-102.56492121 251.60040758 -108.020475 251.60100476 -113.47610474 251.59111404 C-118.60444357 251.5824666 -123.7325595 251.58842555 -128.86087418 251.60579681 C-130.74630487 251.60977356 -132.63175424 251.60860741 -134.51717758 251.60200882 C-137.0845428 251.59385002 -139.65118699 251.60404578 -142.21850586 251.61904907 C-142.97034684 251.61235691 -143.72218782 251.60566474 -144.49681187 251.59876978 C-147.38473087 251.63166238 -149.49155066 251.6758107 -151.96379566 253.25212383 Z M-170 377 C-167.00285089 382.99429822 -166.00726401 384.34886999 -161 388 C-157.19121641 389.26959453 -153.61363387 389.15146326 -149.64472961 389.15390015 C-148.78209777 389.1582824 -147.91946592 389.16266465 -147.03069371 389.1671797 C-144.12894011 389.18057555 -141.22721688 389.18674834 -138.32543945 389.19287109 C-136.2493323 389.20077145 -134.17322652 389.20904035 -132.09712219 389.21765137 C-125.26918857 389.24387939 -118.44124879 389.25917988 -111.61328125 389.2734375 C-109.26361779 389.27879687 -106.91395438 389.28417438 -104.564291 389.28956985 C-94.79086622 389.31119979 -85.0174431 389.32993678 -75.24400043 389.34119225 C-61.23337045 389.35743303 -47.22301774 389.39061293 -33.21249229 389.44759309 C-23.36355595 389.48628376 -13.5146938 389.50582393 -3.66568345 389.51111281 C2.21777689 389.51476745 8.10094156 389.52680117 13.98431969 389.55921555 C19.52065422 389.58928043 25.05651393 389.59561339 30.59291267 389.58383179 C32.62300765 389.58361092 34.65312456 389.59192658 36.68314362 389.60948563 C39.45926975 389.63218786 42.23367562 389.62387744 45.0098114 389.60800171 C45.80934335 389.6218838 46.6088753 389.63576588 47.43263549 389.65006864 C53.3477057 389.5669737 57.43802131 387.77815591 62 384 C64.81583232 380.85383344 64.81583232 380.85383344 66 377 C-11.88 377 -89.76 377 -170 377 Z " fill="#000000" transform="translate(308,57)"/>
<path d="M0 0 C3.30887334 2.39365306 4.73362299 3.88605978 5.6875 7.875 C3.57183303 17.49166807 -7.80992496 23.40291829 -15.3671875 28.640625 C-15.90601563 29.08921875 -16.44484375 29.5378125 -17 30 C-17 30.66 -17 31.32 -17 32 C-15.56805638 33.34924171 -15.56805638 33.34924171 -13.67578125 34.6796875 C-12.97646484 35.19660156 -12.27714844 35.71351563 -11.55664062 36.24609375 C-10.81607422 36.78363281 -10.07550781 37.32117188 -9.3125 37.875 C-7.87058726 38.93420668 -6.42916993 39.99408816 -4.98828125 41.0546875 C-4.3020166 41.55967773 -3.61575195 42.06466797 -2.90869141 42.58496094 C3.76707317 47.53414634 3.76707317 47.53414634 5 50 C5.40820726 53.67386532 5.24841035 55.55286137 3.4375 58.8125 C0.11523917 61.79401613 -1.52765373 62.21995146 -6 62 C-9.32941035 60.43628477 -12.1038857 58.25009184 -15 56 C-16.00417969 55.236875 -17.00835937 54.47375 -18.04296875 53.6875 C-20.25331558 52.0039664 -22.44612379 50.30004514 -24.6328125 48.5859375 C-26.85564667 46.85505265 -29.11228748 45.20347023 -31.4296875 43.6015625 C-32.50476563 42.84617187 -33.57984375 42.09078125 -34.6875 41.3125 C-35.66074219 40.64863281 -36.63398438 39.98476563 -37.63671875 39.30078125 C-40.70416153 36.31446093 -41.43669366 34.22708742 -42 30 C-40.26808254 23.89479324 -35.56874038 20.87265744 -30.6875 17.25 C-29.88658936 16.64526855 -29.08567871 16.04053711 -28.26049805 15.41748047 C-26.62810176 14.18965362 -24.99146962 12.96743748 -23.35058594 11.75097656 C-21.19633788 10.14625418 -19.06837168 8.51279709 -16.9453125 6.8671875 C-15.73549173 5.95164745 -14.52462224 5.03749086 -13.3125 4.125 C-12.50462036 3.49126465 -12.50462036 3.49126465 -11.68041992 2.84472656 C-7.72477835 -0.05652917 -4.83937204 -0.57474727 0 0 Z " fill="#000000" transform="translate(228,332)"/>
<path d="M0 0 C3.28707384 1.76292949 6.13902741 4.00696821 9.0625 6.3125 C9.8887085 6.94679932 10.71491699 7.58109863 11.56616211 8.23461914 C13.24722852 9.52825925 14.92314301 10.82862273 16.59375 12.13574219 C18.79629627 13.84217921 21.02666875 15.49611413 23.28125 17.1328125 C24.54214072 18.06706887 25.80258755 19.00192477 27.0625 19.9375 C27.63943604 20.34846924 28.21637207 20.75943848 28.81079102 21.18286133 C31.69429954 23.38147606 33.05322056 25.11751206 34.55859375 28.44140625 C35.10881159 32.87723322 34.58816802 34.37268009 32 38 C29.71074463 40.11827364 27.23942648 41.89964679 24.6875 43.6875 C23.24196704 44.72705279 21.79798666 45.76876746 20.35546875 46.8125 C19.62763184 47.33714844 18.89979492 47.86179687 18.14990234 48.40234375 C16.08145694 49.93946693 14.09212554 51.53718971 12.11328125 53.1875 C11.50331299 53.69192627 10.89334473 54.19635254 10.26489258 54.71606445 C9.12273554 55.66830964 7.9902637 56.6323455 6.86987305 57.61010742 C2.55357044 61.163578 -0.56097827 61.84813486 -6 62 C-8.9375 60.5 -8.9375 60.5 -11 58 C-12.08337749 54.27588988 -12.52127675 52.11574647 -10.859375 48.55859375 C-8.65209145 45.52126029 -6.29323485 43.69360075 -3.25 41.5 C-1.65671875 40.34177734 -1.65671875 40.34177734 -0.03125 39.16015625 C1.46921875 38.09087891 1.46921875 38.09087891 3 37 C3.7734375 36.44183594 4.546875 35.88367188 5.34375 35.30859375 C6.88946405 34.19681992 8.44350122 33.09662414 10 32 C8.89203049 28.67609146 8.32287258 28.23838717 5.578125 26.29296875 C4.88203125 25.78830078 4.1859375 25.28363281 3.46875 24.76367188 C2.0055005 23.72419798 0.54196514 22.68512634 -0.921875 21.64648438 C-11.44560653 14.01484451 -11.44560653 14.01484451 -12.41015625 8.76953125 C-11.86957012 5.72645654 -11.34126901 3.42002339 -9.375 1 C-5.912178 -0.45803032 -3.76618781 -0.439326 0 0 Z " fill="#000000" transform="translate(291,332)"/>
<path d="M0 0 C2.9375 2.0625 2.9375 2.0625 5 5 C5.35902824 9.98569675 4.6448124 14.16258238 3.31933594 18.95751953 C3.14044327 19.61375305 2.9615506 20.26998657 2.77723694 20.94610596 C2.18881288 23.09433373 1.58723482 25.23859489 0.984375 27.3828125 C0.56753112 28.88528402 0.15113617 30.38788016 -0.26483154 31.89059448 C-1.13646756 35.03084397 -2.01490155 38.16909357 -2.89794922 41.30615234 C-4.02645026 45.31805753 -5.13567496 49.33500352 -6.23959732 53.35373116 C-7.09414138 56.45484855 -7.95994612 59.55273701 -8.8290329 62.64980698 C-9.2425806 64.12948329 -9.65240421 65.61020587 -10.05835724 67.0919838 C-10.62793064 69.1651941 -11.21283755 71.23348449 -11.80175781 73.30126953 C-12.13040833 74.47706573 -12.45905884 75.65286194 -12.79766846 76.86428833 C-14.09005676 80.23487036 -15.49290477 82.41280176 -18 85 C-22.00803597 86.1659741 -24.05282711 86.43240501 -27.875 84.6875 C-30 83 -30 83 -31 81 C-31.80649193 72.89828025 -29.17147372 65.43578833 -26.94921875 57.73828125 C-26.52971443 56.25973702 -26.11092853 54.78098878 -25.69282532 53.30204773 C-24.81754044 50.21465108 -23.93507316 47.12943044 -23.04711914 44.0456543 C-21.91186936 40.10162945 -20.79254402 36.1533011 -19.67827129 32.20330524 C-18.8164891 29.15361752 -17.94744135 26.1060385 -17.07608986 23.05907249 C-16.66069525 21.60403679 -16.24727764 20.14843512 -15.8359127 18.69225502 C-15.25936458 16.6563825 -14.67335059 14.62347061 -14.0847168 12.59106445 C-13.75384567 11.43604935 -13.42297455 10.28103424 -13.08207703 9.09101868 C-10.4513025 1.57605162 -8.15072301 -0.82888709 0 0 Z " fill="#000000" transform="translate(269,320)"/>
</svg>
